{"glyphs":{"0":{"ha":600,"x_min":26,"x_max":561,"o":"m 322 -1 q 170 34 238 -1 q 65 138 103 69 q 26 303 26 207 q 68 451 26 382 q 175 560 110 519 q 307 600 240 600 q 427 554 368 600 q 524 436 486 508 q 561 288 561 364 q 499 79 561 160 q 322 -1 438 -1 m 301 78 q 483 275 483 78 q 461 396 483 339 q 397 488 439 453 q 299 522 354 522 q 158 467 214 522 q 90 313 101 411 q 89 281 89 301 q 149 131 89 185 q 301 78 210 78 z "},"1":{"ha":442,"x_min":36,"x_max":411,"o":"m 288 -57 q 264 -51 274 -57 q 235 -29 254 -46 l 247 44 q 286 302 272 199 q 306 515 300 406 q 178 379 258 474 q 105 298 131 324 q 65 272 79 272 q 45 285 54 274 q 36 314 36 297 q 50 349 36 333 l 294 610 q 314 647 307 624 q 328 713 321 671 q 347 792 336 765 q 383 819 358 819 q 400 817 394 819 q 410 807 406 815 l 411 761 q 387 519 411 736 q 335 122 363 301 q 288 -57 307 -57 z "},"2":{"ha":690,"x_min":11,"x_max":653,"o":"m 611 0 q 555 6 585 0 q 496 19 525 13 q 379 40 424 40 q 286 33 338 40 q 190 26 210 26 q 63 57 107 26 q 14 144 19 88 q 33 194 11 179 q 104 208 56 208 q 156 201 132 208 q 219 178 181 193 q 289 153 258 161 q 354 144 319 144 q 431 192 392 144 q 497 315 471 239 q 522 475 522 392 q 494 634 522 578 q 388 690 465 690 q 175 519 240 690 q 140 545 150 529 q 129 589 129 561 q 160 667 129 629 q 249 730 192 706 q 383 754 307 754 q 548 679 493 754 q 603 482 603 604 q 552 262 603 360 q 429 107 501 164 q 497 89 464 93 q 568 85 529 85 q 634 76 615 83 q 653 39 653 68 q 640 13 653 26 q 611 0 628 0 z "},"3":{"ha":574,"x_min":14,"x_max":521,"o":"m 333 -1 q 240 10 275 3 q 151 47 206 17 q 14 142 97 76 l 14 153 q 26 192 14 178 q 63 207 39 207 q 78 197 67 207 q 93 183 90 186 q 192 108 139 139 q 321 78 244 78 q 406 110 369 78 q 443 203 443 142 q 376 333 443 289 q 179 374 308 376 q 171 406 171 389 q 175 430 171 419 q 186 443 179 440 q 328 492 279 451 q 378 600 378 532 q 330 667 378 642 q 203 693 282 693 q 119 680 146 693 q 92 639 92 667 l 92 608 q 52 620 67 608 q 38 656 38 632 q 81 737 38 707 q 207 767 124 767 q 380 720 317 767 q 443 585 443 674 q 402 474 443 511 q 279 418 361 438 q 460 352 400 403 q 521 211 521 301 q 493 92 521 140 q 422 22 465 44 q 333 -1 379 -1 z "},"4":{"ha":572,"x_min":26,"x_max":547,"o":"m 488 -3 q 462 31 475 -3 q 440 121 449 65 q 432 238 432 176 q 444 374 432 317 q 347 278 397 308 q 204 249 296 249 q 69 317 111 249 q 26 492 26 385 q 41 643 26 576 q 90 807 56 710 q 107 828 93 821 q 138 836 121 836 q 163 830 153 836 q 171 814 172 824 q 97 472 97 622 q 124 357 97 392 q 218 322 151 322 q 383 415 319 322 q 469 564 447 508 q 493 624 490 619 q 536 614 525 624 q 547 583 547 604 q 526 454 547 543 q 515 398 525 444 q 506 319 506 351 q 521 188 506 269 q 535 63 535 101 q 488 -3 535 -3 z "},"5":{"ha":794,"x_min":79,"x_max":754,"o":"m 411 -28 q 361 -29 394 -29 q 82 169 82 -29 q 90 232 79 206 q 114 258 100 258 q 135 230 128 258 q 140 142 143 201 q 208 72 140 96 q 372 47 275 47 q 603 254 603 47 q 510 425 603 367 q 210 493 418 483 q 197 514 200 506 q 196 532 194 522 q 225 640 206 585 q 281 786 244 696 l 315 879 q 488 892 390 892 q 644 882 571 892 q 754 856 717 872 q 721 797 746 822 q 511 813 607 813 q 371 806 432 813 q 300 572 319 692 q 522 522 449 546 q 643 435 596 497 q 693 253 690 374 q 623 55 696 129 q 411 -28 550 -19 z "},"6":{"ha":611,"x_min":26,"x_max":583,"o":"m 288 8 q 92 82 158 8 q 26 288 26 156 q 72 524 26 400 q 201 736 117 649 q 396 832 285 824 l 425 833 q 538 813 492 833 q 583 761 583 793 q 577 738 583 744 q 557 732 571 732 q 517 739 544 732 q 421 753 454 753 q 392 751 401 753 q 267 689 326 743 q 170 562 207 635 q 133 431 133 489 q 310 481 217 481 q 442 449 382 481 q 538 360 503 418 q 574 228 574 303 q 490 60 574 113 q 288 8 406 8 m 279 81 q 381 93 332 76 q 463 148 431 110 q 494 244 494 186 q 463 331 494 294 q 383 388 432 368 q 279 407 333 407 q 151 369 203 407 q 99 258 99 331 q 279 81 99 94 z "},"7":{"ha":572,"x_min":39,"x_max":556,"o":"m 549 353 q 556 333 556 344 q 545 309 556 319 q 522 299 535 299 q 390 325 464 317 q 326 26 371 201 q 286 -1 318 -1 q 263 9 271 -1 q 249 39 256 19 q 313 331 292 208 q 242 332 290 332 q 114 329 206 332 q 108 356 108 346 q 114 380 108 369 q 129 392 119 390 q 257 399 167 399 q 322 397 300 399 q 339 665 343 544 q 258 664 318 667 q 175 661 206 661 q 76 672 113 661 q 39 708 39 682 q 50 742 39 725 q 331 726 194 726 q 417 729 392 726 q 400 393 417 533 q 549 353 526 383 z "},"8":{"ha":521,"x_min":24,"x_max":483,"o":"m 326 -1 q 198 26 256 -1 q 108 101 140 53 q 75 208 75 149 q 175 422 75 317 q 69 498 103 461 q 26 588 36 535 q 24 617 24 607 q 53 706 24 667 q 131 766 82 744 q 233 788 179 788 q 360 756 317 788 q 404 665 404 725 q 383 563 404 600 q 313 476 361 525 q 271 433 278 442 q 333 382 296 411 q 423 304 394 332 q 467 241 451 276 q 483 156 483 206 q 442 40 483 82 q 326 -1 400 -1 m 214 461 q 303 553 271 504 q 335 644 335 603 q 309 703 335 681 q 233 725 283 725 q 125 688 160 725 q 90 600 90 651 q 120 528 90 557 q 214 461 150 499 m 318 63 q 389 83 361 63 q 417 150 417 104 q 399 224 417 190 q 344 293 381 257 q 231 394 307 329 q 166 308 188 354 q 144 219 144 263 q 191 108 144 153 q 318 63 238 63 z "},"9":{"ha":418,"x_min":14,"x_max":406,"o":"m 211 835 q 302 815 257 835 q 376 758 347 794 q 406 676 406 721 q 400 639 406 656 q 367 440 376 554 q 357 213 357 326 q 368 35 357 61 q 355 15 368 19 q 315 10 342 10 q 268 151 268 8 q 292 411 268 260 q 224 406 242 406 q 65 459 115 406 q 14 610 14 513 q 67 769 14 704 q 211 835 121 835 m 228 461 q 303 481 271 461 q 333 631 317 564 q 306 728 339 692 q 226 765 274 765 q 133 728 175 765 q 90 622 90 692 q 126 505 90 549 q 228 461 163 461 z "},"\u0000":{"ha":0,"x_min":0,"x_max":0,"o":""},"\r":{"ha":347,"x_min":0,"x_max":0,"o":""}," ":{"ha":347,"x_min":0,"x_max":0,"o":""},"A":{"ha":856,"x_min":69,"x_max":786,"o":"m 708 -1 q 685 7 692 -1 q 679 31 679 15 q 693 125 679 61 q 708 221 708 183 q 692 386 708 329 l 649 386 q 500 389 592 386 l 369 390 l 182 390 l 185 336 q 206 176 185 272 q 219 98 213 138 q 225 26 225 58 l 225 14 q 196 0 211 0 q 139 85 160 0 q 118 292 118 171 q 122 388 118 340 q 81 398 92 389 q 69 426 69 407 q 78 447 69 442 q 111 456 88 453 l 110 493 l 114 557 q 143 813 124 714 q 226 983 163 911 q 418 1056 290 1056 q 646 899 564 1056 q 757 549 728 742 q 786 217 786 356 q 783 130 786 167 q 772 39 781 93 q 708 -1 740 -1 m 686 440 q 592 844 660 697 q 388 990 524 990 q 238 897 286 990 q 181 696 190 803 q 171 456 171 589 l 686 440 z "},"Á":{"ha":856,"x_min":69,"x_max":786,"o":"m 708 -1 q 685 7 692 -1 q 679 31 679 15 q 693 125 679 61 q 708 221 708 183 q 692 386 708 329 l 649 386 q 500 389 592 386 l 369 390 l 182 390 l 185 336 q 206 176 185 272 q 219 98 213 138 q 225 26 225 58 l 225 14 q 196 0 211 0 q 139 85 160 0 q 118 292 118 171 q 122 388 118 340 q 81 398 92 389 q 69 426 69 407 q 78 447 69 442 q 111 456 88 453 l 110 493 l 114 557 q 143 813 124 714 q 226 983 163 911 q 418 1056 290 1056 q 646 899 564 1056 q 757 549 728 742 q 786 217 786 356 q 783 130 786 167 q 772 39 781 93 q 708 -1 740 -1 m 686 440 q 592 844 660 697 q 388 990 524 990 q 238 897 286 990 q 181 696 190 803 q 171 456 171 589 l 686 440 m 333 1074 q 306 1079 313 1074 q 300 1106 300 1085 q 344 1174 300 1133 q 458 1265 389 1214 l 489 1289 q 514 1260 514 1276 q 494 1221 514 1243 q 426 1158 474 1199 q 333 1074 371 1111 z "},"Ă":{"ha":856,"x_min":69,"x_max":786,"o":"m 708 -1 q 685 7 692 -1 q 679 31 679 15 q 693 125 679 61 q 708 221 708 183 q 692 386 708 329 l 649 386 q 500 389 592 386 l 369 390 l 182 390 l 185 336 q 206 176 185 272 q 219 98 213 138 q 225 26 225 58 l 225 14 q 196 0 211 0 q 139 85 160 0 q 118 292 118 171 q 122 388 118 340 q 81 398 92 389 q 69 426 69 407 q 78 447 69 442 q 111 456 88 453 l 110 493 l 114 557 q 143 813 124 714 q 226 983 163 911 q 418 1056 290 1056 q 646 899 564 1056 q 757 549 728 742 q 786 217 786 356 q 783 130 786 167 q 772 39 781 93 q 708 -1 740 -1 m 686 440 q 592 844 660 697 q 388 990 524 990 q 238 897 286 990 q 181 696 190 803 q 171 456 171 589 l 686 440 m 399 1126 q 283 1158 329 1126 q 238 1239 238 1189 q 267 1249 239 1249 q 287 1245 278 1249 q 296 1236 296 1242 q 328 1196 296 1210 q 404 1182 360 1182 q 483 1201 453 1182 q 514 1251 514 1219 q 513 1264 514 1260 l 513 1269 q 533 1285 513 1285 q 565 1274 553 1285 q 576 1250 576 1264 q 522 1162 576 1197 q 399 1126 468 1126 z "},"Ắ":{"ha":856,"x_min":69,"x_max":786,"o":"m 708 -1 q 685 7 692 -1 q 679 31 679 15 q 693 125 679 61 q 708 221 708 183 q 692 386 708 329 l 649 386 q 500 389 592 386 l 369 390 l 182 390 l 185 336 q 206 176 185 272 q 219 98 213 138 q 225 26 225 58 l 225 14 q 196 0 211 0 q 139 85 160 0 q 118 292 118 171 q 122 388 118 340 q 81 398 92 389 q 69 426 69 407 q 78 447 69 442 q 111 456 88 453 l 110 493 l 114 557 q 143 813 124 714 q 226 983 163 911 q 418 1056 290 1056 q 646 899 564 1056 q 757 549 728 742 q 786 217 786 356 q 783 130 786 167 q 772 39 781 93 q 708 -1 740 -1 m 686 440 q 592 844 660 697 q 388 990 524 990 q 238 897 286 990 q 181 696 190 803 q 171 456 171 589 l 686 440 m 474 1126 q 358 1158 404 1126 q 313 1239 313 1189 q 342 1249 314 1249 q 362 1245 353 1249 q 371 1236 371 1242 q 403 1196 371 1210 q 479 1182 435 1182 q 558 1201 528 1182 q 589 1251 589 1219 q 588 1264 589 1260 l 588 1269 q 608 1285 588 1285 q 640 1274 628 1285 q 651 1250 651 1264 q 597 1162 651 1197 q 474 1126 543 1126 m 390 1326 q 363 1332 369 1326 q 357 1358 357 1338 q 401 1426 357 1386 q 515 1518 446 1467 l 546 1542 q 571 1513 571 1529 q 551 1474 571 1496 q 483 1411 531 1451 q 390 1326 428 1364 z "},"Ặ":{"ha":796,"x_min":69,"x_max":786,"o":"m 708 -1 q 685 7 692 -1 q 679 31 679 15 q 693 125 679 61 q 708 221 708 183 q 692 386 708 329 l 649 386 q 500 389 592 386 l 369 390 l 182 390 l 185 336 q 206 176 185 272 q 219 98 213 138 q 225 26 225 58 l 225 14 q 196 0 211 0 q 139 85 160 0 q 118 292 118 171 q 122 388 118 340 q 81 398 92 389 q 69 426 69 407 q 78 447 69 442 q 111 456 88 453 l 110 493 l 114 557 q 143 813 124 714 q 226 983 163 911 q 418 1056 290 1056 q 646 899 564 1056 q 757 549 728 742 q 786 217 786 356 q 783 130 786 167 q 772 39 781 93 q 708 -1 740 -1 m 686 440 q 592 844 660 697 q 388 990 524 990 q 238 897 286 990 q 181 696 190 803 q 171 456 171 589 l 686 440 m 449 -237 q 403 -214 418 -237 q 389 -156 389 -190 q 390 -133 389 -140 q 415 -111 389 -111 q 455 -120 435 -111 q 467 -133 475 -129 q 481 -190 481 -169 q 472 -219 481 -208 q 449 -237 464 -229 m 354 1135 q 239 1166 285 1135 q 193 1247 193 1197 q 222 1257 194 1257 q 242 1253 233 1257 q 251 1244 251 1250 q 283 1204 251 1218 q 360 1190 315 1190 q 439 1209 408 1190 q 469 1260 469 1228 q 468 1272 469 1268 l 468 1278 q 489 1293 468 1293 q 520 1283 508 1293 q 532 1258 532 1272 q 478 1170 532 1206 q 354 1135 424 1135 z "},"Ằ":{"ha":856,"x_min":69,"x_max":786,"o":"m 708 -1 q 685 7 692 -1 q 679 31 679 15 q 693 125 679 61 q 708 221 708 183 q 692 386 708 329 l 649 386 q 500 389 592 386 l 369 390 l 182 390 l 185 336 q 206 176 185 272 q 219 98 213 138 q 225 26 225 58 l 225 14 q 196 0 211 0 q 139 85 160 0 q 118 292 118 171 q 122 388 118 340 q 81 398 92 389 q 69 426 69 407 q 78 447 69 442 q 111 456 88 453 l 110 493 l 114 557 q 143 813 124 714 q 226 983 163 911 q 418 1056 290 1056 q 646 899 564 1056 q 757 549 728 742 q 786 217 786 356 q 783 130 786 167 q 772 39 781 93 q 708 -1 740 -1 m 686 440 q 592 844 660 697 q 388 990 524 990 q 238 897 286 990 q 181 696 190 803 q 171 456 171 589 l 686 440 m 410 1126 q 294 1158 340 1126 q 249 1239 249 1189 q 278 1249 250 1249 q 298 1245 289 1249 q 307 1236 307 1242 q 339 1196 307 1210 q 415 1182 371 1182 q 494 1201 464 1182 q 525 1251 525 1219 q 524 1264 525 1260 l 524 1269 q 544 1285 524 1285 q 576 1274 564 1285 q 588 1250 588 1264 q 533 1162 588 1197 q 410 1126 479 1126 m 301 1307 q 179 1406 281 1307 q 151 1442 158 1425 q 151 1465 144 1458 q 172 1475 161 1475 q 238 1438 196 1475 q 290 1396 240 1435 q 340 1346 340 1357 q 332 1314 340 1321 q 301 1307 324 1307 z "},"Ẳ":{"ha":856,"x_min":69,"x_max":786,"o":"m 708 -1 q 685 7 692 -1 q 679 31 679 15 q 693 125 679 61 q 708 221 708 183 q 692 386 708 329 l 649 386 q 500 389 592 386 l 369 390 l 182 390 l 185 336 q 206 176 185 272 q 219 98 213 138 q 225 26 225 58 l 225 14 q 196 0 211 0 q 139 85 160 0 q 118 292 118 171 q 122 388 118 340 q 81 398 92 389 q 69 426 69 407 q 78 447 69 442 q 111 456 88 453 l 110 493 l 114 557 q 143 813 124 714 q 226 983 163 911 q 418 1056 290 1056 q 646 899 564 1056 q 757 549 728 742 q 786 217 786 356 q 783 130 786 167 q 772 39 781 93 q 708 -1 740 -1 m 686 440 q 592 844 660 697 q 388 990 524 990 q 238 897 286 990 q 181 696 190 803 q 171 456 171 589 l 686 440 m 479 1126 q 364 1158 410 1126 q 318 1239 318 1189 q 347 1249 319 1249 q 367 1245 358 1249 q 376 1236 376 1242 q 408 1196 376 1210 q 485 1182 440 1182 q 564 1201 533 1182 q 594 1251 594 1219 q 593 1264 594 1260 l 593 1269 q 614 1285 593 1285 q 645 1274 633 1285 q 657 1250 657 1264 q 603 1162 657 1197 q 479 1126 549 1126 m 365 1288 q 356 1300 356 1292 q 369 1322 356 1308 q 400 1351 383 1336 q 446 1395 429 1376 q 463 1432 463 1414 q 450 1475 463 1460 q 396 1490 438 1490 q 357 1481 378 1490 q 326 1454 336 1471 q 309 1465 315 1456 q 303 1488 303 1474 q 338 1528 303 1514 q 407 1542 374 1542 q 497 1511 471 1542 q 524 1443 524 1481 q 508 1393 524 1413 q 463 1349 493 1374 q 437 1328 449 1339 q 419 1306 425 1317 q 415 1289 421 1299 q 393 1279 408 1279 q 365 1288 382 1279 z "},"Ẵ":{"ha":856,"x_min":69,"x_max":786,"o":"m 708 -1 q 685 7 692 -1 q 679 31 679 15 q 693 125 679 61 q 708 221 708 183 q 692 386 708 329 l 649 386 q 500 389 592 386 l 369 390 l 182 390 l 185 336 q 206 176 185 272 q 219 98 213 138 q 225 26 225 58 l 225 14 q 196 0 211 0 q 139 85 160 0 q 118 292 118 171 q 122 388 118 340 q 81 398 92 389 q 69 426 69 407 q 78 447 69 442 q 111 456 88 453 l 110 493 l 114 557 q 143 813 124 714 q 226 983 163 911 q 418 1056 290 1056 q 646 899 564 1056 q 757 549 728 742 q 786 217 786 356 q 783 130 786 167 q 772 39 781 93 q 708 -1 740 -1 m 686 440 q 592 844 660 697 q 388 990 524 990 q 238 897 286 990 q 181 696 190 803 q 171 456 171 589 l 686 440 m 481 1126 q 365 1158 411 1126 q 319 1239 319 1189 q 349 1249 321 1249 q 369 1245 360 1249 q 378 1236 378 1242 q 410 1196 378 1210 q 486 1182 442 1182 q 565 1201 535 1182 q 596 1251 596 1219 q 594 1264 596 1260 l 594 1269 q 615 1285 594 1285 q 647 1274 635 1285 q 658 1250 658 1264 q 604 1162 658 1197 q 481 1126 550 1126 m 101 1308 q 94 1349 94 1332 q 126 1428 94 1396 q 199 1460 158 1460 q 258 1445 233 1460 q 308 1406 282 1431 q 334 1385 324 1392 q 354 1378 344 1378 q 380 1387 374 1378 q 394 1428 386 1396 q 404 1467 396 1435 q 439 1426 444 1471 q 412 1357 433 1382 q 356 1332 390 1332 q 317 1342 332 1332 q 281 1371 301 1351 q 245 1399 260 1390 q 208 1408 231 1408 q 163 1390 178 1408 q 149 1336 149 1372 q 151 1300 149 1325 l 151 1296 q 129 1285 151 1281 q 101 1308 108 1289 z "},"Â":{"ha":782,"x_min":69,"x_max":786,"o":"m 708 -1 q 685 7 692 -1 q 679 31 679 15 q 693 125 679 61 q 708 221 708 183 q 692 386 708 329 l 649 386 q 500 389 592 386 l 369 390 l 182 390 l 185 336 q 206 176 185 272 q 219 98 213 138 q 225 26 225 58 l 225 14 q 196 0 211 0 q 139 85 160 0 q 118 292 118 171 q 122 388 118 340 q 81 398 92 389 q 69 426 69 407 q 78 447 69 442 q 111 456 88 453 l 110 493 l 114 557 q 143 813 124 714 q 226 983 163 911 q 418 1056 290 1056 q 646 899 564 1056 q 757 549 728 742 q 786 217 786 356 q 783 130 786 167 q 772 39 781 93 q 708 -1 740 -1 m 686 440 q 592 844 660 697 q 388 990 524 990 q 238 897 286 990 q 181 696 190 803 q 171 456 171 589 l 686 440 m 501 1076 q 472 1094 486 1076 q 438 1151 458 1113 q 364 1265 401 1218 q 316 1172 347 1217 q 251 1099 285 1126 q 193 1071 217 1071 q 153 1108 167 1071 l 203 1151 q 260 1203 242 1185 q 292 1252 278 1222 q 318 1335 306 1282 q 340 1347 322 1347 q 373 1340 363 1347 q 397 1310 383 1333 q 457 1236 408 1290 q 481 1207 465 1225 q 503 1179 496 1189 q 526 1136 521 1151 q 532 1103 532 1121 q 524 1082 532 1088 q 501 1076 517 1076 z "},"Ấ":{"ha":856,"x_min":69,"x_max":786,"o":"m 708 -1 q 685 7 692 -1 q 679 31 679 15 q 693 125 679 61 q 708 221 708 183 q 692 386 708 329 l 649 386 q 500 389 592 386 l 369 390 l 182 390 l 185 336 q 206 176 185 272 q 219 98 213 138 q 225 26 225 58 l 225 14 q 196 0 211 0 q 139 85 160 0 q 118 292 118 171 q 122 388 118 340 q 81 398 92 389 q 69 426 69 407 q 78 447 69 442 q 111 456 88 453 l 110 493 l 114 557 q 143 813 124 714 q 226 983 163 911 q 418 1056 290 1056 q 646 899 564 1056 q 757 549 728 742 q 786 217 786 356 q 783 130 786 167 q 772 39 781 93 q 708 -1 740 -1 m 686 440 q 592 844 660 697 q 388 990 524 990 q 238 897 286 990 q 181 696 190 803 q 171 456 171 589 l 686 440 m 532 1076 q 503 1094 517 1076 q 468 1151 489 1113 q 394 1265 432 1218 q 347 1172 378 1217 q 281 1099 315 1126 q 224 1071 247 1071 q 183 1108 197 1071 l 233 1151 q 290 1203 272 1185 q 322 1252 308 1222 q 349 1335 336 1282 q 371 1347 353 1347 q 403 1340 393 1347 q 428 1310 414 1333 q 488 1236 439 1290 q 511 1207 496 1225 q 533 1179 526 1189 q 557 1136 551 1151 q 563 1103 563 1121 q 555 1082 563 1088 q 532 1076 547 1076 m 593 1232 q 566 1238 572 1232 q 560 1264 560 1243 q 604 1332 560 1292 q 718 1424 649 1372 l 749 1447 q 774 1418 774 1435 q 753 1379 774 1401 q 686 1317 733 1357 q 593 1232 631 1269 z "},"Ậ":{"ha":796,"x_min":69,"x_max":786,"o":"m 708 -1 q 685 7 692 -1 q 679 31 679 15 q 693 125 679 61 q 708 221 708 183 q 692 386 708 329 l 649 386 q 500 389 592 386 l 369 390 l 182 390 l 185 336 q 206 176 185 272 q 219 98 213 138 q 225 26 225 58 l 225 14 q 196 0 211 0 q 139 85 160 0 q 118 292 118 171 q 122 388 118 340 q 81 398 92 389 q 69 426 69 407 q 78 447 69 442 q 111 456 88 453 l 110 493 l 114 557 q 143 813 124 714 q 226 983 163 911 q 418 1056 290 1056 q 646 899 564 1056 q 757 549 728 742 q 786 217 786 356 q 783 130 786 167 q 772 39 781 93 q 708 -1 740 -1 m 686 440 q 592 844 660 697 q 388 990 524 990 q 238 897 286 990 q 181 696 190 803 q 171 456 171 589 l 686 440 m 449 -237 q 403 -214 418 -237 q 389 -156 389 -190 q 390 -133 389 -140 q 415 -111 389 -111 q 455 -120 435 -111 q 467 -133 475 -129 q 481 -190 481 -169 q 472 -219 481 -208 q 449 -237 464 -229 m 485 1106 q 456 1124 469 1106 q 421 1181 442 1142 q 347 1294 385 1247 q 299 1201 331 1246 q 234 1128 268 1156 q 176 1100 200 1100 q 136 1138 150 1100 l 186 1181 q 243 1233 225 1214 q 275 1281 261 1251 q 301 1364 289 1311 q 324 1376 306 1376 q 356 1369 346 1376 q 381 1339 367 1363 q 440 1265 392 1319 q 464 1236 449 1254 q 486 1208 479 1218 q 510 1165 504 1181 q 515 1132 515 1150 q 508 1111 515 1117 q 485 1106 500 1106 z "},"Ầ":{"ha":856,"x_min":69,"x_max":786,"o":"m 708 -1 q 685 7 692 -1 q 679 31 679 15 q 693 125 679 61 q 708 221 708 183 q 692 386 708 329 l 649 386 q 500 389 592 386 l 369 390 l 182 390 l 185 336 q 206 176 185 272 q 219 98 213 138 q 225 26 225 58 l 225 14 q 196 0 211 0 q 139 85 160 0 q 118 292 118 171 q 122 388 118 340 q 81 398 92 389 q 69 426 69 407 q 78 447 69 442 q 111 456 88 453 l 110 493 l 114 557 q 143 813 124 714 q 226 983 163 911 q 418 1056 290 1056 q 646 899 564 1056 q 757 549 728 742 q 786 217 786 356 q 783 130 786 167 q 772 39 781 93 q 708 -1 740 -1 m 686 440 q 592 844 660 697 q 388 990 524 990 q 238 897 286 990 q 181 696 190 803 q 171 456 171 589 l 686 440 m 533 1076 q 504 1094 518 1076 q 469 1151 490 1113 q 396 1265 433 1218 q 348 1172 379 1217 q 283 1099 317 1126 q 225 1071 249 1071 q 185 1108 199 1071 l 235 1151 q 292 1203 274 1185 q 324 1252 310 1222 q 350 1335 338 1282 q 372 1347 354 1347 q 405 1340 394 1347 q 429 1310 415 1333 q 489 1236 440 1290 q 513 1207 497 1225 q 535 1179 528 1189 q 558 1136 553 1151 q 564 1103 564 1121 q 556 1082 564 1088 q 533 1076 549 1076 m 454 1383 q 332 1482 433 1383 q 304 1518 311 1501 q 304 1542 297 1535 q 325 1551 314 1551 q 390 1514 349 1551 q 443 1472 393 1511 q 493 1422 493 1433 q 485 1390 493 1397 q 454 1383 476 1383 z "},"Ẩ":{"ha":856,"x_min":69,"x_max":786,"o":"m 708 -1 q 685 7 692 -1 q 679 31 679 15 q 693 125 679 61 q 708 221 708 183 q 692 386 708 329 l 649 386 q 500 389 592 386 l 369 390 l 182 390 l 185 336 q 206 176 185 272 q 219 98 213 138 q 225 26 225 58 l 225 14 q 196 0 211 0 q 139 85 160 0 q 118 292 118 171 q 122 388 118 340 q 81 398 92 389 q 69 426 69 407 q 78 447 69 442 q 111 456 88 453 l 110 493 l 114 557 q 143 813 124 714 q 226 983 163 911 q 418 1056 290 1056 q 646 899 564 1056 q 757 549 728 742 q 786 217 786 356 q 783 130 786 167 q 772 39 781 93 q 708 -1 740 -1 m 686 440 q 592 844 660 697 q 388 990 524 990 q 238 897 286 990 q 181 696 190 803 q 171 456 171 589 l 686 440 m 549 1076 q 519 1094 533 1076 q 485 1151 506 1113 q 411 1265 449 1218 q 363 1172 394 1217 q 298 1099 332 1126 q 240 1071 264 1071 q 200 1108 214 1071 l 250 1151 q 307 1203 289 1185 q 339 1252 325 1222 q 365 1335 353 1282 q 388 1347 369 1347 q 420 1340 410 1347 q 444 1310 431 1333 q 504 1236 456 1290 q 528 1207 513 1225 q 550 1179 543 1189 q 574 1136 568 1151 q 579 1103 579 1121 q 572 1082 579 1088 q 549 1076 564 1076 m 558 1256 q 549 1268 549 1260 q 563 1290 549 1276 q 593 1319 576 1304 q 639 1363 622 1344 q 656 1400 656 1382 q 643 1443 656 1428 q 589 1458 631 1458 q 550 1449 571 1458 q 519 1422 529 1439 q 502 1433 508 1424 q 496 1456 496 1442 q 531 1496 496 1482 q 600 1510 567 1510 q 690 1479 664 1510 q 717 1411 717 1449 q 701 1361 717 1381 q 656 1317 686 1342 q 630 1296 642 1307 q 613 1274 618 1285 q 608 1257 614 1267 q 586 1247 601 1247 q 558 1256 575 1247 z "},"Ẫ":{"ha":856,"x_min":69,"x_max":786,"o":"m 708 -1 q 685 7 692 -1 q 679 31 679 15 q 693 125 679 61 q 708 221 708 183 q 692 386 708 329 l 649 386 q 500 389 592 386 l 369 390 l 182 390 l 185 336 q 206 176 185 272 q 219 98 213 138 q 225 26 225 58 l 225 14 q 196 0 211 0 q 139 85 160 0 q 118 292 118 171 q 122 388 118 340 q 81 398 92 389 q 69 426 69 407 q 78 447 69 442 q 111 456 88 453 l 110 493 l 114 557 q 143 813 124 714 q 226 983 163 911 q 418 1056 290 1056 q 646 899 564 1056 q 757 549 728 742 q 786 217 786 356 q 783 130 786 167 q 772 39 781 93 q 708 -1 740 -1 m 686 440 q 592 844 660 697 q 388 990 524 990 q 238 897 286 990 q 181 696 190 803 q 171 456 171 589 l 686 440 m 544 1076 q 515 1094 529 1076 q 481 1151 501 1113 q 407 1265 444 1218 q 359 1172 390 1217 q 294 1099 328 1126 q 236 1071 260 1071 q 196 1108 210 1071 l 246 1151 q 303 1203 285 1185 q 335 1252 321 1222 q 361 1335 349 1282 q 383 1347 365 1347 q 416 1340 406 1347 q 440 1310 426 1333 q 500 1236 451 1290 q 524 1207 508 1225 q 546 1179 539 1189 q 569 1136 564 1151 q 575 1103 575 1121 q 567 1082 575 1088 q 544 1076 560 1076 m 88 1350 q 81 1390 81 1374 q 113 1469 81 1438 q 185 1501 144 1501 q 244 1487 219 1501 q 294 1447 268 1472 q 320 1426 310 1433 q 340 1419 331 1419 q 366 1428 360 1419 q 381 1469 372 1438 q 390 1508 382 1476 q 425 1468 431 1513 q 398 1399 419 1424 q 342 1374 376 1374 q 303 1383 318 1374 q 267 1413 288 1393 q 231 1441 246 1432 q 194 1450 217 1450 q 149 1432 164 1450 q 135 1378 135 1414 q 138 1342 135 1367 l 138 1338 q 115 1326 138 1322 q 88 1350 94 1331 z "},"Ȁ":{"ha":856,"x_min":69,"x_max":786,"o":"m 343 1099 q 233 1188 325 1099 q 208 1219 214 1204 q 208 1242 201 1235 q 226 1250 215 1250 q 286 1217 247 1250 q 333 1179 289 1214 q 378 1135 378 1144 q 370 1105 378 1111 q 343 1099 363 1099 m 481 1099 q 371 1188 463 1099 q 345 1219 351 1204 q 346 1242 339 1235 q 364 1250 353 1250 q 424 1217 385 1250 q 471 1179 426 1214 q 515 1135 515 1144 q 508 1105 515 1111 q 481 1099 500 1099 m 708 -1 q 685 7 692 -1 q 679 31 679 15 q 693 125 679 61 q 708 221 708 183 q 692 386 708 329 l 649 386 q 500 389 592 386 l 369 390 l 182 390 l 185 336 q 206 176 185 272 q 219 98 213 138 q 225 26 225 58 l 225 14 q 196 0 211 0 q 139 85 160 0 q 118 292 118 171 q 122 388 118 340 q 81 398 92 389 q 69 426 69 407 q 78 447 69 442 q 111 456 88 453 l 110 493 l 114 557 q 143 813 124 714 q 226 983 163 911 q 418 1056 290 1056 q 646 899 564 1056 q 757 549 728 742 q 786 217 786 356 q 783 130 786 167 q 772 39 781 93 q 708 -1 740 -1 m 686 440 q 592 844 660 697 q 388 990 524 990 q 238 897 286 990 q 181 696 190 803 q 171 456 171 589 l 686 440 z "},"Ä":{"ha":856,"x_min":69,"x_max":786,"o":"m 708 -1 q 685 7 692 -1 q 679 31 679 15 q 693 125 679 61 q 708 221 708 183 q 692 386 708 329 l 649 386 q 500 389 592 386 l 369 390 l 182 390 l 185 336 q 206 176 185 272 q 219 98 213 138 q 225 26 225 58 l 225 14 q 196 0 211 0 q 139 85 160 0 q 118 292 118 171 q 122 388 118 340 q 81 398 92 389 q 69 426 69 407 q 78 447 69 442 q 111 456 88 453 l 110 493 l 114 557 q 143 813 124 714 q 226 983 163 911 q 418 1056 290 1056 q 646 899 564 1056 q 757 549 728 742 q 786 217 786 356 q 783 130 786 167 q 772 39 781 93 q 708 -1 740 -1 m 686 440 q 592 844 660 697 q 388 990 524 990 q 238 897 286 990 q 181 696 190 803 q 171 456 171 589 l 686 440 m 293 1090 q 247 1113 267 1090 q 228 1156 228 1136 q 251 1196 228 1168 q 286 1224 274 1224 q 347 1200 326 1224 q 368 1149 368 1176 q 344 1110 368 1131 q 293 1090 319 1090 m 511 1090 q 464 1113 482 1090 q 446 1156 446 1136 q 469 1196 446 1168 q 506 1224 492 1224 q 564 1200 543 1224 q 585 1149 585 1176 q 560 1110 585 1131 q 511 1090 536 1090 z "},"Ạ":{"ha":856,"x_min":69,"x_max":786,"o":"m 708 -1 q 685 7 692 -1 q 679 31 679 15 q 693 125 679 61 q 708 221 708 183 q 692 386 708 329 l 649 386 q 500 389 592 386 l 369 390 l 182 390 l 185 336 q 206 176 185 272 q 219 98 213 138 q 225 26 225 58 l 225 14 q 196 0 211 0 q 139 85 160 0 q 118 292 118 171 q 122 388 118 340 q 81 398 92 389 q 69 426 69 407 q 78 447 69 442 q 111 456 88 453 l 110 493 l 114 557 q 143 813 124 714 q 226 983 163 911 q 418 1056 290 1056 q 646 899 564 1056 q 757 549 728 742 q 786 217 786 356 q 783 130 786 167 q 772 39 781 93 q 708 -1 740 -1 m 686 440 q 592 844 660 697 q 388 990 524 990 q 238 897 286 990 q 181 696 190 803 q 171 456 171 589 l 686 440 m 449 -237 q 403 -214 418 -237 q 389 -156 389 -190 q 390 -133 389 -140 q 415 -111 389 -111 q 455 -120 435 -111 q 467 -133 475 -129 q 481 -190 481 -169 q 472 -219 481 -208 q 449 -237 464 -229 z "},"À":{"ha":856,"x_min":69,"x_max":786,"o":"m 708 -1 q 685 7 692 -1 q 679 31 679 15 q 693 125 679 61 q 708 221 708 183 q 692 386 708 329 l 649 386 q 500 389 592 386 l 369 390 l 182 390 l 185 336 q 206 176 185 272 q 219 98 213 138 q 225 26 225 58 l 225 14 q 196 0 211 0 q 139 85 160 0 q 118 292 118 171 q 122 388 118 340 q 81 398 92 389 q 69 426 69 407 q 78 447 69 442 q 111 456 88 453 l 110 493 l 114 557 q 143 813 124 714 q 226 983 163 911 q 418 1056 290 1056 q 646 899 564 1056 q 757 549 728 742 q 786 217 786 356 q 783 130 786 167 q 772 39 781 93 q 708 -1 740 -1 m 686 440 q 592 844 660 697 q 388 990 524 990 q 238 897 286 990 q 181 696 190 803 q 171 456 171 589 l 686 440 m 463 1090 q 340 1189 442 1090 q 313 1225 319 1208 q 313 1249 306 1242 q 333 1258 322 1258 q 399 1221 357 1258 q 451 1179 401 1218 q 501 1129 501 1140 q 493 1097 501 1104 q 463 1090 485 1090 z "},"Ả":{"ha":796,"x_min":69,"x_max":786,"o":"m 708 -1 q 685 7 692 -1 q 679 31 679 15 q 693 125 679 61 q 708 221 708 183 q 692 386 708 329 l 649 386 q 500 389 592 386 l 369 390 l 182 390 l 185 336 q 206 176 185 272 q 219 98 213 138 q 225 26 225 58 l 225 14 q 196 0 211 0 q 139 85 160 0 q 118 292 118 171 q 122 388 118 340 q 81 398 92 389 q 69 426 69 407 q 78 447 69 442 q 111 456 88 453 l 110 493 l 114 557 q 143 813 124 714 q 226 983 163 911 q 418 1056 290 1056 q 646 899 564 1056 q 757 549 728 742 q 786 217 786 356 q 783 130 786 167 q 772 39 781 93 q 708 -1 740 -1 m 686 440 q 592 844 660 697 q 388 990 524 990 q 238 897 286 990 q 181 696 190 803 q 171 456 171 589 l 686 440 m 329 1131 q 319 1143 319 1135 q 333 1165 319 1151 q 364 1194 347 1179 q 410 1238 393 1219 q 426 1275 426 1257 q 414 1318 426 1303 q 360 1333 401 1333 q 321 1324 342 1333 q 290 1297 300 1314 q 273 1308 279 1299 q 267 1331 267 1317 q 302 1371 267 1357 q 371 1385 338 1385 q 461 1354 435 1385 q 488 1286 488 1324 q 472 1236 488 1256 q 426 1192 457 1217 q 401 1171 413 1182 q 383 1149 389 1160 q 378 1132 385 1142 q 357 1122 372 1122 q 329 1131 346 1122 z "},"Ȃ":{"ha":856,"x_min":69,"x_max":786,"o":"m 708 -1 q 685 7 692 -1 q 679 31 679 15 q 693 125 679 61 q 708 221 708 183 q 692 386 708 329 l 649 386 q 500 389 592 386 l 369 390 l 182 390 l 185 336 q 206 176 185 272 q 219 98 213 138 q 225 26 225 58 l 225 14 q 196 0 211 0 q 139 85 160 0 q 118 292 118 171 q 122 388 118 340 q 81 398 92 389 q 69 426 69 407 q 78 447 69 442 q 111 456 88 453 l 110 493 l 114 557 q 143 813 124 714 q 226 983 163 911 q 418 1056 290 1056 q 646 899 564 1056 q 757 549 728 742 q 786 217 786 356 q 783 130 786 167 q 772 39 781 93 q 708 -1 740 -1 m 686 440 q 592 844 660 697 q 388 990 524 990 q 238 897 286 990 q 181 696 190 803 q 171 456 171 589 l 686 440 m 410 1249 q 533 1213 479 1249 q 588 1125 588 1178 q 577 1101 588 1111 q 549 1090 567 1092 l 544 1090 q 524 1111 519 1090 q 525 1124 525 1115 q 494 1174 525 1156 q 415 1193 464 1193 q 339 1179 371 1193 q 307 1139 307 1165 q 298 1130 307 1133 q 278 1126 289 1126 q 249 1136 250 1126 q 294 1217 249 1186 q 410 1249 340 1249 z "},"Ā":{"ha":782,"x_min":69,"x_max":786,"o":"m 708 -1 q 685 7 692 -1 q 679 31 679 15 q 693 125 679 61 q 708 221 708 183 q 692 386 708 329 l 649 386 q 500 389 592 386 l 369 390 l 182 390 l 185 336 q 206 176 185 272 q 219 98 213 138 q 225 26 225 58 l 225 14 q 196 0 211 0 q 139 85 160 0 q 118 292 118 171 q 122 388 118 340 q 81 398 92 389 q 69 426 69 407 q 78 447 69 442 q 111 456 88 453 l 110 493 l 114 557 q 143 813 124 714 q 226 983 163 911 q 418 1056 290 1056 q 646 899 564 1056 q 757 549 728 742 q 786 217 786 356 q 783 130 786 167 q 772 39 781 93 q 708 -1 740 -1 m 686 440 q 592 844 660 697 q 388 990 524 990 q 238 897 286 990 q 181 696 190 803 q 171 456 171 589 l 686 440 m 165 1135 q 193 1190 165 1172 q 258 1213 221 1208 q 368 1221 294 1218 q 453 1224 438 1224 q 510 1215 496 1224 q 524 1176 524 1206 q 499 1149 524 1149 q 446 1156 474 1149 q 421 1160 439 1157 q 386 1163 403 1163 q 276 1149 335 1163 q 224 1138 247 1142 q 165 1135 200 1135 z "},"Ą":{"ha":856,"x_min":69,"x_max":824,"o":"m 821 -154 q 817 -185 824 -169 q 800 -204 811 -200 q 699 -224 750 -224 q 589 -191 632 -224 q 546 -111 546 -158 q 585 -19 546 -61 q 679 46 624 24 q 686 90 681 65 q 693 124 692 115 q 708 221 708 182 q 692 386 708 329 l 649 386 q 500 389 592 386 l 369 390 l 182 390 l 185 336 q 206 176 185 272 q 219 98 213 138 q 225 26 225 58 l 225 14 q 196 0 211 0 q 139 85 160 0 q 118 292 118 171 q 122 388 118 340 q 81 398 92 389 q 69 426 69 407 q 78 447 69 442 q 111 456 88 453 l 110 493 l 114 557 q 143 813 124 714 q 226 983 163 911 q 418 1056 290 1056 q 646 899 564 1056 q 757 549 728 742 q 786 217 786 356 q 783 130 786 167 q 772 39 781 93 q 710 -1 742 0 q 614 -110 614 -47 q 634 -156 614 -137 q 701 -175 654 -175 q 821 -154 746 -175 m 686 440 q 592 844 660 697 q 388 990 524 990 q 238 897 286 990 q 181 696 190 803 q 171 456 171 589 l 686 440 z "},"Å":{"ha":856,"x_min":69,"x_max":786,"o":"m 708 -1 q 685 7 692 -1 q 679 31 679 15 q 693 125 679 61 q 708 221 708 183 q 692 386 708 329 l 649 386 q 500 389 592 386 l 369 390 l 182 390 l 185 336 q 206 176 185 272 q 219 98 213 138 q 225 26 225 58 l 225 14 q 196 0 211 0 q 139 85 160 0 q 118 292 118 171 q 122 388 118 340 q 81 398 92 389 q 69 426 69 407 q 78 447 69 442 q 111 456 88 453 l 110 493 l 114 557 q 143 813 124 714 q 226 983 163 911 q 418 1056 290 1056 q 646 899 564 1056 q 757 549 728 742 q 786 217 786 356 q 783 130 786 167 q 772 39 781 93 q 708 -1 740 -1 m 686 440 q 592 844 660 697 q 388 990 524 990 q 238 897 286 990 q 181 696 190 803 q 171 456 171 589 l 686 440 m 400 1085 q 314 1116 347 1085 q 281 1197 281 1147 q 322 1283 281 1254 q 424 1311 364 1311 q 504 1276 475 1311 q 533 1203 533 1242 q 494 1117 533 1150 q 400 1085 454 1085 m 408 1136 q 460 1156 436 1133 q 485 1207 485 1178 q 473 1247 485 1229 q 428 1267 461 1265 q 360 1255 388 1269 q 332 1201 332 1240 q 352 1153 332 1169 q 408 1136 372 1136 z "},"Ǻ":{"ha":856,"x_min":69,"x_max":786,"o":"m 400 1085 q 314 1116 347 1085 q 281 1197 281 1147 q 306 1268 281 1239 q 300 1293 300 1274 q 344 1361 300 1321 q 458 1453 389 1401 l 489 1476 q 514 1447 514 1464 q 494 1410 514 1432 q 425 1344 474 1388 q 382 1307 410 1332 q 424 1311 403 1311 q 504 1276 475 1311 q 533 1203 533 1242 q 494 1117 533 1150 q 400 1085 454 1085 m 415 1267 q 356 1252 379 1267 q 332 1201 332 1238 q 352 1153 332 1169 q 408 1136 372 1136 q 460 1156 436 1133 q 485 1207 485 1178 q 415 1267 485 1267 m 418 1056 q 646 899 564 1056 q 757 549 728 742 q 786 217 786 356 q 783 130 786 167 q 772 39 781 93 q 708 -1 740 -1 q 685 7 692 -1 q 679 31 679 15 q 693 125 679 61 q 708 221 708 183 q 692 386 708 329 l 649 386 q 500 389 592 386 l 369 390 l 182 390 l 185 336 q 206 176 185 272 q 219 98 213 138 q 225 26 225 58 l 225 14 q 196 0 211 0 q 139 85 160 0 q 118 292 118 171 q 122 388 118 340 q 81 398 92 389 q 69 426 69 407 q 78 447 69 442 q 111 456 88 453 l 110 493 l 114 557 q 143 813 124 714 q 226 983 163 911 q 418 1056 290 1056 m 686 440 q 592 844 660 697 q 388 990 524 990 q 238 897 286 990 q 181 696 190 803 q 171 456 171 589 l 686 440 z "},"Ã":{"ha":782,"x_min":69,"x_max":786,"o":"m 708 -1 q 685 7 692 -1 q 679 31 679 15 q 693 125 679 61 q 708 221 708 183 q 692 386 708 329 l 649 386 q 500 389 592 386 l 369 390 l 182 390 l 185 336 q 206 176 185 272 q 219 98 213 138 q 225 26 225 58 l 225 14 q 196 0 211 0 q 139 85 160 0 q 118 292 118 171 q 122 388 118 340 q 81 398 92 389 q 69 426 69 407 q 78 447 69 442 q 111 456 88 453 l 110 493 l 114 557 q 143 813 124 714 q 226 983 163 911 q 418 1056 290 1056 q 646 899 564 1056 q 757 549 728 742 q 786 217 786 356 q 783 130 786 167 q 772 39 781 93 q 708 -1 740 -1 m 686 440 q 592 844 660 697 q 388 990 524 990 q 238 897 286 990 q 181 696 190 803 q 171 456 171 589 l 686 440 m 118 1092 q 111 1133 111 1110 q 147 1217 111 1182 q 228 1251 182 1251 q 296 1240 265 1251 q 375 1194 326 1228 q 463 1163 422 1163 q 522 1186 497 1163 q 560 1250 547 1210 q 585 1245 576 1251 q 593 1226 593 1239 q 590 1211 593 1222 q 556 1148 575 1169 q 507 1117 538 1126 q 465 1110 483 1110 q 413 1120 438 1110 q 347 1153 388 1131 q 289 1182 313 1172 q 242 1192 265 1192 q 183 1174 201 1192 q 165 1118 165 1156 q 168 1083 165 1108 l 168 1079 q 160 1068 168 1071 q 146 1068 153 1065 q 118 1092 125 1072 z "},"Æ":{"ha":1483,"x_min":69,"x_max":1419,"o":"m 1360 118 q 1406 112 1393 118 q 1419 90 1419 106 q 1047 -1 1419 -1 l 1000 -1 q 847 31 899 -1 q 785 143 796 63 q 772 39 779 82 q 708 -1 740 -1 q 685 7 692 -1 q 679 31 679 15 q 693 125 679 61 q 708 221 708 183 q 692 386 708 329 l 649 386 q 500 389 592 386 l 369 390 l 182 390 l 185 336 q 206 176 185 272 q 219 98 213 138 q 225 26 225 58 l 225 14 q 196 0 211 0 q 139 85 160 0 q 118 292 118 171 q 122 388 118 340 q 81 398 92 389 q 69 426 69 407 q 78 447 69 442 q 111 456 88 453 l 110 493 l 114 557 q 143 813 124 714 q 226 983 163 911 q 418 1056 290 1056 q 633 919 553 1056 q 746 604 713 782 q 785 269 779 426 l 800 508 l 800 807 q 814 852 800 842 q 875 863 828 863 l 969 860 q 1317 850 1147 850 q 1374 829 1353 850 q 1396 772 1396 808 q 1392 761 1396 765 q 1382 758 1388 757 l 1317 783 l 882 772 q 872 774 874 772 q 878 754 878 763 l 878 508 q 1001 504 942 504 q 1228 514 1104 504 q 1266 517 1240 515 q 1294 517 1292 519 q 1307 501 1303 508 q 1313 482 1311 494 q 1220 442 1317 451 q 963 426 1124 432 q 872 424 908 426 q 856 290 856 382 l 857 208 l 857 118 q 906 94 879 100 q 992 89 932 89 q 1115 96 1054 89 q 1186 104 1175 103 q 1360 118 1303 118 m 686 440 q 592 844 660 697 q 388 990 524 990 q 238 897 286 990 q 181 696 190 803 q 171 456 171 589 l 686 440 z "},"Ǽ":{"ha":1336,"x_min":69,"x_max":1419,"o":"m 1360 118 q 1406 112 1393 118 q 1419 90 1419 106 q 1047 -1 1419 -1 l 1000 -1 q 847 31 899 -1 q 785 143 796 63 q 772 39 779 82 q 708 -1 740 -1 q 685 7 692 -1 q 679 31 679 15 q 693 125 679 61 q 708 221 708 183 q 692 386 708 329 l 649 386 q 500 389 592 386 l 369 390 l 182 390 l 185 336 q 206 176 185 272 q 219 98 213 138 q 225 26 225 58 l 225 14 q 196 0 211 0 q 139 85 160 0 q 118 292 118 171 q 122 388 118 340 q 81 398 92 389 q 69 426 69 407 q 78 447 69 442 q 111 456 88 453 l 110 493 l 114 557 q 143 813 124 714 q 226 983 163 911 q 418 1056 290 1056 q 633 919 553 1056 q 746 604 713 782 q 785 269 779 426 l 800 508 l 800 807 q 814 852 800 842 q 875 863 828 863 l 969 860 q 1317 850 1147 850 q 1374 829 1353 850 q 1396 772 1396 808 q 1392 761 1396 765 q 1382 758 1388 757 l 1317 783 l 882 772 q 872 774 874 772 q 878 754 878 763 l 878 508 q 1001 504 942 504 q 1228 514 1104 504 q 1266 517 1240 515 q 1294 517 1292 519 q 1307 501 1303 508 q 1313 482 1311 494 q 1220 442 1317 451 q 963 426 1124 432 q 872 424 908 426 q 856 290 856 382 l 857 208 l 857 118 q 906 94 879 100 q 992 89 932 89 q 1115 96 1054 89 q 1186 104 1175 103 q 1360 118 1303 118 m 686 440 q 592 844 660 697 q 388 990 524 990 q 238 897 286 990 q 181 696 190 803 q 171 456 171 589 l 686 440 m 658 983 q 631 989 638 983 q 625 1015 625 994 q 669 1083 625 1043 q 783 1175 714 1124 l 814 1199 q 839 1169 839 1186 q 819 1131 839 1153 q 751 1068 799 1108 q 658 983 696 1021 z "},"B":{"ha":935,"x_min":-28,"x_max":893,"o":"m 624 -1 q 213 28 358 -1 q 144 869 175 724 l 103 860 q 39 845 69 853 q -26 824 8 838 l -28 871 q 24 915 -28 894 q 148 947 75 935 q 278 958 221 958 q 422 936 340 958 q 561 870 503 914 q 619 767 619 826 q 567 647 619 699 q 432 572 515 594 q 660 498 554 551 q 829 366 765 444 q 893 197 893 288 q 813 46 893 93 q 624 -1 732 -1 m 588 78 q 746 101 690 78 q 801 200 801 124 q 753 335 801 281 q 641 422 706 390 q 481 488 576 453 q 367 534 404 514 q 331 579 331 554 q 349 607 331 597 q 413 635 367 617 q 510 680 475 656 q 546 749 546 704 q 467 849 546 814 q 289 885 388 885 q 222 879 261 885 q 272 487 258 646 q 292 118 286 328 q 390 89 311 99 q 588 78 469 79 z "},"C":{"ha":763,"x_min":69,"x_max":713,"o":"m 372 -15 q 208 38 276 -15 q 105 182 140 90 q 69 390 69 274 q 131 638 69 521 q 291 827 192 756 q 497 899 390 899 q 636 858 588 899 q 685 764 685 818 q 666 706 685 732 q 613 665 647 679 q 608 692 608 674 q 613 725 608 708 q 615 757 615 747 q 611 781 615 771 q 506 829 592 829 q 450 825 482 829 q 304 752 376 815 q 186 594 232 689 q 140 401 140 500 q 169 238 140 315 q 251 114 197 161 q 381 67 306 67 q 542 90 478 67 q 669 163 607 114 q 685 168 676 168 q 706 150 700 168 q 661 78 713 117 q 528 12 610 39 q 372 -15 446 -15 z "},"Ć":{"ha":763,"x_min":69,"x_max":707,"o":"m 372 -15 q 208 38 276 -15 q 105 182 140 90 q 69 390 69 274 q 131 638 69 521 q 291 827 192 756 q 497 899 390 899 q 636 858 588 899 q 685 764 685 818 q 666 706 685 732 q 613 665 647 679 q 608 692 608 674 q 613 725 608 708 q 615 757 615 747 q 611 781 615 771 q 506 829 592 829 q 450 825 482 829 q 304 752 376 815 q 186 594 232 689 q 140 401 140 500 q 169 238 140 315 q 251 114 197 161 q 381 67 306 67 q 542 90 478 67 q 669 163 607 114 q 685 168 676 168 q 706 150 700 168 q 661 78 713 117 q 528 12 610 39 q 372 -15 446 -15 m 421 981 q 394 986 400 981 q 388 1013 388 992 q 432 1081 388 1040 q 546 1172 476 1121 l 576 1196 q 601 1167 601 1183 q 581 1128 601 1150 q 514 1065 561 1106 q 421 981 458 1018 z "},"Č":{"ha":763,"x_min":69,"x_max":707,"o":"m 372 -15 q 208 38 276 -15 q 105 182 140 90 q 69 390 69 274 q 131 638 69 521 q 291 827 192 756 q 497 899 390 899 q 636 858 588 899 q 685 764 685 818 q 666 706 685 732 q 613 665 647 679 q 608 692 608 674 q 613 725 608 708 q 615 757 615 747 q 611 781 615 771 q 506 829 592 829 q 450 825 482 829 q 304 752 376 815 q 186 594 232 689 q 140 401 140 500 q 169 238 140 315 q 251 114 197 161 q 381 67 306 67 q 542 90 478 67 q 669 163 607 114 q 685 168 676 168 q 706 150 700 168 q 661 78 713 117 q 528 12 610 39 q 372 -15 446 -15 m 497 982 q 472 989 478 982 q 433 1049 454 1032 q 358 1093 411 1067 q 307 1119 317 1114 q 353 1149 322 1149 q 433 1120 388 1149 q 515 1050 478 1092 q 561 1086 531 1061 q 619 1131 597 1117 q 654 1146 642 1146 q 676 1140 671 1146 q 681 1122 681 1135 q 678 1104 681 1110 q 667 1092 675 1099 q 654 1079 660 1085 q 627 1058 646 1071 q 601 1042 608 1046 q 550 1004 563 1017 q 526 987 536 992 q 497 982 517 982 z "},"Ç":{"ha":763,"x_min":69,"x_max":713,"o":"m 706 150 q 672 86 713 121 q 565 24 632 51 q 429 -11 497 -3 q 439 -47 439 -22 q 463 -124 439 -99 q 539 -167 486 -150 q 632 -212 600 -189 q 664 -283 664 -235 q 640 -357 664 -324 q 579 -408 615 -390 q 507 -426 543 -426 q 315 -293 385 -426 q 336 -279 324 -285 q 361 -274 349 -274 q 388 -284 378 -274 q 413 -315 399 -294 q 449 -362 429 -346 q 508 -379 469 -379 q 567 -358 544 -379 q 590 -300 590 -336 q 573 -243 590 -260 q 531 -217 556 -226 q 497 -204 507 -208 q 410 -146 443 -185 q 378 -29 378 -107 q 379 -15 378 -19 l 372 -15 q 208 38 276 -15 q 105 182 140 90 q 69 390 69 274 q 131 638 69 521 q 291 827 192 756 q 497 899 390 899 q 636 858 588 899 q 685 764 685 818 q 666 706 685 732 q 613 665 647 679 q 608 692 608 674 q 613 725 608 708 q 615 757 615 747 q 611 781 615 771 q 506 829 592 829 q 450 825 482 829 q 304 752 376 815 q 186 594 232 689 q 140 401 140 500 q 169 238 140 315 q 251 114 197 161 q 381 67 306 67 q 542 90 478 67 q 669 163 607 114 q 685 168 676 168 q 706 150 700 168 z "},"Ĉ":{"ha":763,"x_min":69,"x_max":707,"o":"m 372 -15 q 208 38 276 -15 q 105 182 140 90 q 69 390 69 274 q 131 638 69 521 q 291 827 192 756 q 497 899 390 899 q 636 858 588 899 q 685 764 685 818 q 666 706 685 732 q 613 665 647 679 q 608 692 608 674 q 613 725 608 708 q 615 757 615 747 q 611 781 615 771 q 506 829 592 829 q 450 825 482 829 q 304 752 376 815 q 186 594 232 689 q 140 401 140 500 q 169 238 140 315 q 251 114 197 161 q 381 67 306 67 q 542 90 478 67 q 669 163 607 114 q 685 168 676 168 q 706 150 700 168 q 661 78 713 117 q 528 12 610 39 q 372 -15 446 -15 m 654 983 q 625 1001 639 983 q 590 1058 611 1019 q 517 1172 554 1125 q 469 1078 500 1124 q 403 1006 438 1033 q 346 978 369 978 q 306 1015 319 978 l 356 1058 q 413 1110 394 1092 q 444 1159 431 1129 q 471 1242 458 1189 q 493 1254 475 1254 q 526 1247 515 1254 q 550 1217 536 1240 q 610 1143 561 1197 q 633 1114 618 1132 q 656 1086 649 1096 q 679 1043 674 1058 q 685 1010 685 1028 q 677 989 685 994 q 654 983 669 983 z "},"Ċ":{"ha":763,"x_min":69,"x_max":707,"o":"m 372 -15 q 208 38 276 -15 q 105 182 140 90 q 69 390 69 274 q 131 638 69 521 q 291 827 192 756 q 497 899 390 899 q 636 858 588 899 q 685 764 685 818 q 666 706 685 732 q 613 665 647 679 q 608 692 608 674 q 613 725 608 708 q 615 757 615 747 q 611 781 615 771 q 506 829 592 829 q 450 825 482 829 q 304 752 376 815 q 186 594 232 689 q 140 401 140 500 q 169 238 140 315 q 251 114 197 161 q 381 67 306 67 q 542 90 478 67 q 669 163 607 114 q 685 168 676 168 q 706 150 700 168 q 661 78 713 117 q 528 12 610 39 q 372 -15 446 -15 m 508 1015 q 463 1039 478 1015 q 449 1097 449 1063 q 450 1119 449 1113 q 475 1142 449 1142 q 515 1133 494 1142 q 526 1119 535 1124 q 540 1063 540 1083 q 532 1034 540 1044 q 508 1015 524 1024 z "},"D":{"ha":1019,"x_min":-28,"x_max":936,"o":"m 283 83 q 287 109 283 100 q 304 118 290 118 q 333 113 317 118 q 364 100 349 107 q 434 75 403 83 q 513 67 465 67 q 772 149 685 67 q 858 363 858 231 q 792 570 858 481 q 623 711 725 660 q 415 772 521 763 l 494 185 q 488 146 494 161 q 460 131 482 131 q 439 206 454 128 q 397 435 424 283 q 350 697 367 611 q 324 794 333 782 q 135 783 208 794 q 22 756 61 771 q -10 740 -17 740 q -19 749 -17 743 q -24 768 -22 756 q -28 786 -26 781 q 32 839 -28 819 q 158 865 92 858 q 246 872 224 872 q 556 812 394 872 q 826 635 717 751 q 936 358 936 518 q 876 155 936 239 q 720 28 817 71 q 514 -15 624 -15 q 354 13 425 -15 q 283 83 283 40 z "},"Ð":{"ha":1019,"x_min":-28,"x_max":936,"o":"m 246 872 q 556 812 394 872 q 826 635 717 751 q 936 358 936 518 q 876 155 936 239 q 720 28 817 71 q 514 -15 624 -15 q 354 13 425 -15 q 283 83 283 40 q 287 109 283 100 q 304 118 290 118 q 333 113 317 118 q 364 100 349 107 q 434 75 403 83 q 513 67 465 67 q 772 149 685 67 q 858 363 858 231 q 792 570 858 481 q 623 711 725 660 q 415 772 521 763 l 451 500 q 528 507 501 506 q 571 508 543 508 q 656 497 626 508 q 685 471 685 486 q 658 443 685 443 q 614 450 638 443 q 547 458 581 458 q 458 450 517 458 l 494 185 q 488 146 494 161 q 460 131 482 131 q 435 224 454 128 q 397 438 417 321 q 353 428 388 436 q 290 417 319 421 q 236 414 261 414 q 388 492 236 468 q 347 712 361 639 q 324 794 332 785 q 135 783 208 794 q 22 756 61 771 q -10 740 -17 740 q -19 749 -17 743 q -24 768 -22 756 q -28 786 -26 781 q 32 839 -28 819 q 158 865 92 858 q 246 872 224 872 z "},"Ď":{"ha":1019,"x_min":-28,"x_max":936,"o":"m 283 83 q 287 109 283 100 q 304 118 290 118 q 333 113 317 118 q 364 100 349 107 q 434 75 403 83 q 513 67 465 67 q 772 149 685 67 q 858 363 858 231 q 792 570 858 481 q 623 711 725 660 q 415 772 521 763 l 494 185 q 488 146 494 161 q 460 131 482 131 q 439 206 454 128 q 397 435 424 283 q 350 697 367 611 q 324 794 333 782 q 135 783 208 794 q 22 756 61 771 q -10 740 -17 740 q -19 749 -17 743 q -24 768 -22 756 q -28 786 -26 781 q 32 839 -28 819 q 158 865 92 858 q 246 872 224 872 q 556 812 394 872 q 826 635 717 751 q 936 358 936 518 q 876 155 936 239 q 720 28 817 71 q 514 -15 624 -15 q 354 13 425 -15 q 283 83 283 40 m 464 936 q 439 943 444 936 q 399 1003 421 986 q 325 1047 378 1021 q 274 1074 283 1068 q 319 1103 289 1103 q 399 1074 354 1103 q 482 1004 444 1046 q 528 1040 497 1015 q 586 1085 564 1071 q 621 1100 608 1100 q 642 1094 638 1100 q 647 1076 647 1089 q 644 1058 647 1064 q 634 1046 642 1053 q 621 1033 626 1039 q 594 1013 613 1025 q 568 996 575 1000 q 517 958 529 971 q 493 941 503 946 q 464 936 483 936 z "},"Đ":{"ha":1019,"x_min":-28,"x_max":936,"o":"m 246 872 q 556 812 394 872 q 826 635 717 751 q 936 358 936 518 q 876 155 936 239 q 720 28 817 71 q 514 -15 624 -15 q 354 13 425 -15 q 283 83 283 40 q 287 109 283 100 q 304 118 290 118 q 333 113 317 118 q 364 100 349 107 q 434 75 403 83 q 513 67 465 67 q 772 149 685 67 q 858 363 858 231 q 792 570 858 481 q 623 711 725 660 q 415 772 521 763 l 451 500 q 528 507 501 506 q 571 508 543 508 q 656 497 626 508 q 685 471 685 486 q 658 443 685 443 q 614 450 638 443 q 547 458 581 458 q 458 450 517 458 l 494 185 q 488 146 494 161 q 460 131 482 131 q 435 224 454 128 q 397 438 417 321 q 353 428 388 436 q 290 417 319 421 q 236 414 261 414 q 388 492 236 468 q 347 712 361 639 q 324 794 332 785 q 135 783 208 794 q 22 756 61 771 q -10 740 -17 740 q -19 749 -17 743 q -24 768 -22 756 q -28 786 -26 781 q 32 839 -28 819 q 158 865 92 858 q 246 872 224 872 z "},"E":{"ha":842,"x_min":139,"x_max":778,"o":"m 358 -1 q 191 42 243 -1 q 139 197 139 85 l 158 508 l 158 807 q 172 852 158 842 q 233 863 186 863 l 328 860 q 675 850 506 850 q 733 829 711 850 q 754 772 754 808 q 750 761 754 765 q 740 758 746 757 l 675 783 l 240 772 q 231 774 232 772 q 236 754 236 763 l 236 508 q 360 504 300 504 q 586 514 463 504 q 624 517 599 515 q 653 517 650 519 q 665 501 661 508 q 671 482 669 494 q 578 442 675 451 q 321 426 482 432 q 231 424 267 426 q 214 290 214 382 l 215 208 l 215 118 q 264 94 238 100 q 350 89 290 89 q 473 96 413 89 q 544 104 533 103 q 718 118 661 118 q 765 112 751 118 q 778 90 778 106 q 406 -1 778 -1 l 358 -1 z "},"É":{"ha":842,"x_min":139,"x_max":778,"o":"m 358 -1 q 191 42 243 -1 q 139 197 139 85 l 158 508 l 158 807 q 172 852 158 842 q 233 863 186 863 l 328 860 q 675 850 506 850 q 733 829 711 850 q 754 772 754 808 q 750 761 754 765 q 740 758 746 757 l 675 783 l 240 772 q 231 774 232 772 q 236 754 236 763 l 236 508 q 360 504 300 504 q 586 514 463 504 q 624 517 599 515 q 653 517 650 519 q 665 501 661 508 q 671 482 669 494 q 578 442 675 451 q 321 426 482 432 q 231 424 267 426 q 214 290 214 382 l 215 208 l 215 118 q 264 94 238 100 q 350 89 290 89 q 473 96 413 89 q 544 104 533 103 q 718 118 661 118 q 765 112 751 118 q 778 90 778 106 q 406 -1 778 -1 l 358 -1 m 404 935 q 377 940 383 935 q 371 967 371 946 q 415 1035 371 994 q 529 1126 460 1075 l 560 1150 q 585 1121 585 1138 q 565 1082 585 1104 q 497 1019 544 1060 q 404 935 442 972 z "},"Ĕ":{"ha":842,"x_min":139,"x_max":778,"o":"m 358 -1 q 191 42 243 -1 q 139 197 139 85 l 158 508 l 158 807 q 172 852 158 842 q 233 863 186 863 l 328 860 q 675 850 506 850 q 733 829 711 850 q 754 772 754 808 q 750 761 754 765 q 740 758 746 757 l 675 783 l 240 772 q 231 774 232 772 q 236 754 236 763 l 236 508 q 360 504 300 504 q 586 514 463 504 q 624 517 599 515 q 653 517 650 519 q 665 501 661 508 q 671 482 669 494 q 578 442 675 451 q 321 426 482 432 q 231 424 267 426 q 214 290 214 382 l 215 208 l 215 118 q 264 94 238 100 q 350 89 290 89 q 473 96 413 89 q 544 104 533 103 q 718 118 661 118 q 765 112 751 118 q 778 90 778 106 q 406 -1 778 -1 l 358 -1 m 469 988 q 354 1019 400 988 q 308 1100 308 1050 q 338 1110 310 1110 q 358 1106 349 1110 q 367 1097 367 1103 q 399 1057 367 1071 q 475 1043 431 1043 q 554 1062 524 1043 q 585 1113 585 1081 q 583 1125 585 1121 l 583 1131 q 604 1146 583 1146 q 635 1135 624 1146 q 647 1111 647 1125 q 593 1023 647 1058 q 469 988 539 988 z "},"Ě":{"ha":842,"x_min":139,"x_max":778,"o":"m 358 -1 q 191 42 243 -1 q 139 197 139 85 l 158 508 l 158 807 q 172 852 158 842 q 233 863 186 863 l 328 860 q 675 850 506 850 q 733 829 711 850 q 754 772 754 808 q 750 761 754 765 q 740 758 746 757 l 675 783 l 240 772 q 231 774 232 772 q 236 754 236 763 l 236 508 q 360 504 300 504 q 586 514 463 504 q 624 517 599 515 q 653 517 650 519 q 665 501 661 508 q 671 482 669 494 q 578 442 675 451 q 321 426 482 432 q 231 424 267 426 q 214 290 214 382 l 215 208 l 215 118 q 264 94 238 100 q 350 89 290 89 q 473 96 413 89 q 544 104 533 103 q 718 118 661 118 q 765 112 751 118 q 778 90 778 106 q 406 -1 778 -1 l 358 -1 m 481 936 q 456 943 461 936 q 416 1003 438 986 q 342 1047 394 1021 q 290 1074 300 1068 q 336 1103 306 1103 q 416 1074 371 1103 q 499 1004 461 1046 q 544 1040 514 1015 q 603 1085 581 1071 q 638 1100 625 1100 q 659 1094 654 1100 q 664 1076 664 1089 q 661 1058 664 1064 q 651 1046 658 1053 q 638 1033 643 1039 q 610 1013 629 1025 q 585 996 592 1000 q 533 958 546 971 q 510 941 519 946 q 481 936 500 936 z "},"Ê":{"ha":842,"x_min":139,"x_max":778,"o":"m 358 -1 q 191 42 243 -1 q 139 197 139 85 l 158 508 l 158 807 q 172 852 158 842 q 233 863 186 863 l 328 860 q 675 850 506 850 q 733 829 711 850 q 754 772 754 808 q 750 761 754 765 q 740 758 746 757 l 675 783 l 240 772 q 231 774 232 772 q 236 754 236 763 l 236 508 q 360 504 300 504 q 586 514 463 504 q 624 517 599 515 q 653 517 650 519 q 665 501 661 508 q 671 482 669 494 q 578 442 675 451 q 321 426 482 432 q 231 424 267 426 q 214 290 214 382 l 215 208 l 215 118 q 264 94 238 100 q 350 89 290 89 q 473 96 413 89 q 544 104 533 103 q 718 118 661 118 q 765 112 751 118 q 778 90 778 106 q 406 -1 778 -1 l 358 -1 m 638 938 q 608 956 622 938 q 574 1013 594 974 q 500 1126 538 1079 q 452 1033 483 1078 q 387 960 421 988 q 329 932 353 932 q 289 969 303 932 l 339 1013 q 396 1065 378 1046 q 428 1113 414 1083 q 454 1196 442 1143 q 476 1208 458 1208 q 509 1201 499 1208 q 533 1171 519 1194 q 593 1097 544 1151 q 617 1068 601 1086 q 639 1040 632 1050 q 663 997 657 1013 q 668 964 668 982 q 660 943 668 949 q 638 938 653 938 z "},"Ế":{"ha":842,"x_min":139,"x_max":844,"o":"m 358 -1 q 191 42 243 -1 q 139 197 139 85 l 158 508 l 158 807 q 172 852 158 842 q 233 863 186 863 l 328 860 q 675 850 506 850 q 733 829 711 850 q 754 772 754 808 q 750 761 754 765 q 740 758 746 757 l 675 783 l 240 772 q 231 774 232 772 q 236 754 236 763 l 236 508 q 360 504 300 504 q 586 514 463 504 q 624 517 599 515 q 653 517 650 519 q 665 501 661 508 q 671 482 669 494 q 578 442 675 451 q 321 426 482 432 q 231 424 267 426 q 214 290 214 382 l 215 208 l 215 118 q 264 94 238 100 q 350 89 290 89 q 473 96 413 89 q 544 104 533 103 q 718 118 661 118 q 765 112 751 118 q 778 90 778 106 q 406 -1 778 -1 l 358 -1 m 603 938 q 574 956 588 938 q 539 1013 560 974 q 465 1126 503 1079 q 417 1033 449 1078 q 352 960 386 988 q 294 932 318 932 q 254 969 268 932 l 304 1013 q 361 1065 343 1046 q 393 1113 379 1083 q 419 1196 407 1143 q 442 1208 424 1208 q 474 1201 464 1208 q 499 1171 485 1194 q 558 1097 510 1151 q 582 1068 567 1086 q 604 1040 597 1050 q 628 997 622 1013 q 633 964 633 982 q 626 943 633 949 q 603 938 618 938 m 664 1093 q 637 1099 643 1093 q 631 1125 631 1104 q 675 1193 631 1153 q 789 1285 719 1233 l 819 1308 q 844 1279 844 1296 q 824 1240 844 1263 q 757 1178 804 1218 q 664 1093 701 1131 z "},"Ệ":{"ha":729,"x_min":124,"x_max":778,"o":"m 358 -1 q 191 42 243 -1 q 139 197 139 85 l 158 508 l 158 807 q 172 852 158 842 q 233 863 186 863 l 328 860 q 675 850 506 850 q 733 829 711 850 q 754 772 754 808 q 750 761 754 765 q 740 758 746 757 l 675 783 l 240 772 q 231 774 232 772 q 236 754 236 763 l 236 508 q 360 504 300 504 q 586 514 463 504 q 624 517 599 515 q 653 517 650 519 q 665 501 661 508 q 671 482 669 494 q 578 442 675 451 q 321 426 482 432 q 231 424 267 426 q 214 290 214 382 l 215 208 l 215 118 q 264 94 238 100 q 350 89 290 89 q 473 96 413 89 q 544 104 533 103 q 718 118 661 118 q 765 112 751 118 q 778 90 778 106 q 406 -1 778 -1 l 358 -1 m 492 -237 q 447 -214 461 -237 q 432 -156 432 -190 q 433 -133 432 -140 q 458 -111 432 -111 q 498 -120 478 -111 q 510 -133 518 -129 q 524 -190 524 -169 q 515 -219 524 -208 q 492 -237 507 -229 m 472 933 q 443 951 457 933 q 408 1008 429 969 q 335 1122 372 1075 q 287 1028 318 1074 q 222 956 256 983 q 164 928 188 928 q 124 965 138 928 l 174 1008 q 231 1060 213 1042 q 263 1109 249 1079 q 289 1192 276 1139 q 311 1204 293 1204 q 344 1197 333 1204 q 368 1167 354 1190 q 428 1093 379 1147 q 451 1064 436 1082 q 474 1036 467 1046 q 497 993 492 1008 q 503 960 503 978 q 495 939 503 944 q 472 933 488 933 z "},"Ề":{"ha":842,"x_min":139,"x_max":778,"o":"m 358 -1 q 191 42 243 -1 q 139 197 139 85 l 158 508 l 158 807 q 172 852 158 842 q 233 863 186 863 l 328 860 q 675 850 506 850 q 733 829 711 850 q 754 772 754 808 q 750 761 754 765 q 740 758 746 757 l 675 783 l 240 772 q 231 774 232 772 q 236 754 236 763 l 236 508 q 360 504 300 504 q 586 514 463 504 q 624 517 599 515 q 653 517 650 519 q 665 501 661 508 q 671 482 669 494 q 578 442 675 451 q 321 426 482 432 q 231 424 267 426 q 214 290 214 382 l 215 208 l 215 118 q 264 94 238 100 q 350 89 290 89 q 473 96 413 89 q 544 104 533 103 q 718 118 661 118 q 765 112 751 118 q 778 90 778 106 q 406 -1 778 -1 l 358 -1 m 604 938 q 575 956 589 938 q 540 1013 561 974 q 467 1126 504 1079 q 419 1033 450 1078 q 353 960 388 988 q 296 932 319 932 q 256 969 269 932 l 306 1013 q 363 1065 344 1046 q 394 1113 381 1083 q 421 1196 408 1143 q 443 1208 425 1208 q 476 1201 465 1208 q 500 1171 486 1194 q 560 1097 511 1151 q 583 1068 568 1086 q 606 1040 599 1050 q 629 997 624 1013 q 635 964 635 982 q 627 943 635 949 q 604 938 619 938 m 525 1244 q 403 1343 504 1244 q 375 1379 382 1363 q 375 1403 368 1396 q 396 1413 385 1413 q 461 1375 419 1413 q 514 1333 464 1372 q 564 1283 564 1294 q 556 1251 564 1258 q 525 1244 547 1244 z "},"Ể":{"ha":842,"x_min":139,"x_max":788,"o":"m 358 -1 q 191 42 243 -1 q 139 197 139 85 l 158 508 l 158 807 q 172 852 158 842 q 233 863 186 863 l 328 860 q 675 850 506 850 q 733 829 711 850 q 754 772 754 808 q 750 761 754 765 q 740 758 746 757 l 675 783 l 240 772 q 231 774 232 772 q 236 754 236 763 l 236 508 q 360 504 300 504 q 586 514 463 504 q 624 517 599 515 q 653 517 650 519 q 665 501 661 508 q 671 482 669 494 q 578 442 675 451 q 321 426 482 432 q 231 424 267 426 q 214 290 214 382 l 215 208 l 215 118 q 264 94 238 100 q 350 89 290 89 q 473 96 413 89 q 544 104 533 103 q 718 118 661 118 q 765 112 751 118 q 778 90 778 106 q 406 -1 778 -1 l 358 -1 m 619 938 q 590 956 604 938 q 556 1013 576 974 q 482 1126 519 1079 q 434 1033 465 1078 q 369 960 403 988 q 311 932 335 932 q 271 969 285 932 l 321 1013 q 378 1065 360 1046 q 410 1113 396 1083 q 436 1196 424 1143 q 458 1208 440 1208 q 491 1201 481 1208 q 515 1171 501 1194 q 575 1097 526 1151 q 599 1068 583 1086 q 621 1040 614 1050 q 644 997 639 1013 q 650 964 650 982 q 642 943 650 949 q 619 938 635 938 m 629 1117 q 619 1129 619 1121 q 633 1151 619 1138 q 664 1181 647 1165 q 710 1224 693 1206 q 726 1261 726 1243 q 714 1304 726 1289 q 660 1319 701 1319 q 621 1310 642 1319 q 590 1283 600 1300 q 573 1294 579 1285 q 567 1317 567 1303 q 602 1357 567 1343 q 671 1371 638 1371 q 761 1340 735 1371 q 788 1272 788 1310 q 772 1222 788 1242 q 726 1178 757 1203 q 701 1157 713 1168 q 683 1135 689 1146 q 678 1118 685 1128 q 657 1108 672 1108 q 629 1117 646 1108 z "},"Ễ":{"ha":842,"x_min":139,"x_max":778,"o":"m 358 -1 q 191 42 243 -1 q 139 197 139 85 l 158 508 l 158 807 q 172 852 158 842 q 233 863 186 863 l 328 860 q 675 850 506 850 q 733 829 711 850 q 754 772 754 808 q 750 761 754 765 q 740 758 746 757 l 675 783 l 240 772 q 231 774 232 772 q 236 754 236 763 l 236 508 q 360 504 300 504 q 586 514 463 504 q 624 517 599 515 q 653 517 650 519 q 665 501 661 508 q 671 482 669 494 q 578 442 675 451 q 321 426 482 432 q 231 424 267 426 q 214 290 214 382 l 215 208 l 215 118 q 264 94 238 100 q 350 89 290 89 q 473 96 413 89 q 544 104 533 103 q 718 118 661 118 q 765 112 751 118 q 778 90 778 106 q 406 -1 778 -1 l 358 -1 m 615 938 q 586 956 600 938 q 551 1013 572 974 q 478 1126 515 1079 q 430 1033 461 1078 q 365 960 399 988 q 307 932 331 932 q 267 969 281 932 l 317 1013 q 374 1065 356 1046 q 406 1113 392 1083 q 432 1196 419 1143 q 454 1208 436 1208 q 487 1201 476 1208 q 511 1171 497 1194 q 571 1097 522 1151 q 594 1068 579 1086 q 617 1040 610 1050 q 640 997 635 1013 q 646 964 646 982 q 638 943 646 949 q 615 938 631 938 m 158 1211 q 151 1251 151 1235 q 183 1331 151 1299 q 256 1363 215 1363 q 315 1348 290 1363 q 365 1308 339 1333 q 391 1288 381 1294 q 411 1281 401 1281 q 437 1290 431 1281 q 451 1331 443 1299 q 461 1369 453 1338 q 496 1329 501 1374 q 469 1260 490 1285 q 413 1235 447 1235 q 374 1244 389 1235 q 338 1274 358 1254 q 302 1302 317 1293 q 265 1311 288 1311 q 220 1293 235 1311 q 206 1239 206 1275 q 208 1203 206 1228 l 208 1199 q 186 1188 208 1183 q 158 1211 165 1192 z "},"Ȅ":{"ha":842,"x_min":139,"x_max":778,"o":"m 414 960 q 304 1049 396 960 q 278 1081 285 1065 q 279 1103 272 1096 q 297 1111 286 1111 q 357 1078 318 1111 q 404 1040 360 1075 q 449 996 449 1006 q 441 966 449 972 q 414 960 433 960 m 551 960 q 442 1049 533 960 q 416 1081 422 1065 q 417 1103 410 1096 q 435 1111 424 1111 q 494 1078 456 1111 q 542 1040 497 1075 q 586 996 586 1006 q 578 966 586 972 q 551 960 571 960 m 358 -1 q 191 42 243 -1 q 139 197 139 85 l 158 508 l 158 807 q 172 852 158 842 q 233 863 186 863 l 328 860 q 675 850 506 850 q 733 829 711 850 q 754 772 754 808 q 750 761 754 765 q 740 758 746 757 l 675 783 l 240 772 q 231 774 232 772 q 236 754 236 763 l 236 508 q 360 504 300 504 q 586 514 463 504 q 624 517 599 515 q 653 517 650 519 q 665 501 661 508 q 671 482 669 494 q 578 442 675 451 q 321 426 482 432 q 231 424 267 426 q 214 290 214 382 l 215 208 l 215 118 q 264 94 238 100 q 350 89 290 89 q 473 96 413 89 q 544 104 533 103 q 718 118 661 118 q 765 112 751 118 q 778 90 778 106 q 406 -1 778 -1 l 358 -1 z "},"Ë":{"ha":842,"x_min":139,"x_max":778,"o":"m 358 -1 q 191 42 243 -1 q 139 197 139 85 l 158 508 l 158 807 q 172 852 158 842 q 233 863 186 863 l 328 860 q 675 850 506 850 q 733 829 711 850 q 754 772 754 808 q 750 761 754 765 q 740 758 746 757 l 675 783 l 240 772 q 231 774 232 772 q 236 754 236 763 l 236 508 q 360 504 300 504 q 586 514 463 504 q 624 517 599 515 q 653 517 650 519 q 665 501 661 508 q 671 482 669 494 q 578 442 675 451 q 321 426 482 432 q 231 424 267 426 q 214 290 214 382 l 215 208 l 215 118 q 264 94 238 100 q 350 89 290 89 q 473 96 413 89 q 544 104 533 103 q 718 118 661 118 q 765 112 751 118 q 778 90 778 106 q 406 -1 778 -1 l 358 -1 m 364 951 q 318 974 338 951 q 299 1017 299 997 q 322 1057 299 1029 q 357 1085 344 1085 q 418 1061 397 1085 q 439 1010 439 1038 q 415 972 439 992 q 364 951 390 951 m 582 951 q 535 974 553 951 q 517 1017 517 997 q 540 1057 517 1029 q 576 1085 563 1085 q 635 1061 614 1085 q 656 1010 656 1038 q 631 972 656 992 q 582 951 607 951 z "},"Ė":{"ha":842,"x_min":139,"x_max":778,"o":"m 358 -1 q 191 42 243 -1 q 139 197 139 85 l 158 508 l 158 807 q 172 852 158 842 q 233 863 186 863 l 328 860 q 675 850 506 850 q 733 829 711 850 q 754 772 754 808 q 750 761 754 765 q 740 758 746 757 l 675 783 l 240 772 q 231 774 232 772 q 236 754 236 763 l 236 508 q 360 504 300 504 q 586 514 463 504 q 624 517 599 515 q 653 517 650 519 q 665 501 661 508 q 671 482 669 494 q 578 442 675 451 q 321 426 482 432 q 231 424 267 426 q 214 290 214 382 l 215 208 l 215 118 q 264 94 238 100 q 350 89 290 89 q 473 96 413 89 q 544 104 533 103 q 718 118 661 118 q 765 112 751 118 q 778 90 778 106 q 406 -1 778 -1 l 358 -1 m 492 969 q 447 993 461 969 q 432 1051 432 1017 q 433 1074 432 1067 q 458 1096 432 1096 q 498 1087 478 1096 q 510 1074 518 1078 q 524 1017 524 1038 q 515 988 524 999 q 492 969 507 978 z "},"Ẹ":{"ha":842,"x_min":139,"x_max":778,"o":"m 358 -1 q 191 42 243 -1 q 139 197 139 85 l 158 508 l 158 807 q 172 852 158 842 q 233 863 186 863 l 328 860 q 675 850 506 850 q 733 829 711 850 q 754 772 754 808 q 750 761 754 765 q 740 758 746 757 l 675 783 l 240 772 q 231 774 232 772 q 236 754 236 763 l 236 508 q 360 504 300 504 q 586 514 463 504 q 624 517 599 515 q 653 517 650 519 q 665 501 661 508 q 671 482 669 494 q 578 442 675 451 q 321 426 482 432 q 231 424 267 426 q 214 290 214 382 l 215 208 l 215 118 q 264 94 238 100 q 350 89 290 89 q 473 96 413 89 q 544 104 533 103 q 718 118 661 118 q 765 112 751 118 q 778 90 778 106 q 406 -1 778 -1 l 358 -1 m 492 -237 q 447 -214 461 -237 q 432 -156 432 -190 q 433 -133 432 -140 q 458 -111 432 -111 q 498 -120 478 -111 q 510 -133 518 -129 q 524 -190 524 -169 q 515 -219 524 -208 q 492 -237 507 -229 z "},"È":{"ha":842,"x_min":139,"x_max":778,"o":"m 358 -1 q 191 42 243 -1 q 139 197 139 85 l 158 508 l 158 807 q 172 852 158 842 q 233 863 186 863 l 328 860 q 675 850 506 850 q 733 829 711 850 q 754 772 754 808 q 750 761 754 765 q 740 758 746 757 l 675 783 l 240 772 q 231 774 232 772 q 236 754 236 763 l 236 508 q 360 504 300 504 q 586 514 463 504 q 624 517 599 515 q 653 517 650 519 q 665 501 661 508 q 671 482 669 494 q 578 442 675 451 q 321 426 482 432 q 231 424 267 426 q 214 290 214 382 l 215 208 l 215 118 q 264 94 238 100 q 350 89 290 89 q 473 96 413 89 q 544 104 533 103 q 718 118 661 118 q 765 112 751 118 q 778 90 778 106 q 406 -1 778 -1 l 358 -1 m 533 951 q 411 1050 513 951 q 383 1086 390 1069 q 383 1110 376 1103 q 404 1119 393 1119 q 469 1082 428 1119 q 522 1040 472 1079 q 572 990 572 1001 q 564 958 572 965 q 533 951 556 951 z "},"Ẻ":{"ha":842,"x_min":139,"x_max":778,"o":"m 358 -1 q 191 42 243 -1 q 139 197 139 85 l 158 508 l 158 807 q 172 852 158 842 q 233 863 186 863 l 328 860 q 675 850 506 850 q 733 829 711 850 q 754 772 754 808 q 750 761 754 765 q 740 758 746 757 l 675 783 l 240 772 q 231 774 232 772 q 236 754 236 763 l 236 508 q 360 504 300 504 q 586 514 463 504 q 624 517 599 515 q 653 517 650 519 q 665 501 661 508 q 671 482 669 494 q 578 442 675 451 q 321 426 482 432 q 231 424 267 426 q 214 290 214 382 l 215 208 l 215 118 q 264 94 238 100 q 350 89 290 89 q 473 96 413 89 q 544 104 533 103 q 718 118 661 118 q 765 112 751 118 q 778 90 778 106 q 406 -1 778 -1 l 358 -1 m 465 901 q 456 914 456 906 q 469 936 456 922 q 500 965 483 950 q 546 1009 529 990 q 563 1046 563 1028 q 550 1089 563 1074 q 496 1104 538 1104 q 457 1094 478 1104 q 426 1068 436 1085 q 409 1078 415 1069 q 403 1101 403 1088 q 438 1142 403 1128 q 507 1156 474 1156 q 597 1125 571 1156 q 624 1057 624 1094 q 608 1007 624 1026 q 563 963 593 988 q 537 942 549 953 q 519 919 525 931 q 515 903 521 913 q 493 893 508 893 q 465 901 482 893 z "},"Ȇ":{"ha":842,"x_min":139,"x_max":778,"o":"m 358 -1 q 191 42 243 -1 q 139 197 139 85 l 158 508 l 158 807 q 172 852 158 842 q 233 863 186 863 l 328 860 q 675 850 506 850 q 733 829 711 850 q 754 772 754 808 q 750 761 754 765 q 740 758 746 757 l 675 783 l 240 772 q 231 774 232 772 q 236 754 236 763 l 236 508 q 360 504 300 504 q 586 514 463 504 q 624 517 599 515 q 653 517 650 519 q 665 501 661 508 q 671 482 669 494 q 578 442 675 451 q 321 426 482 432 q 231 424 267 426 q 214 290 214 382 l 215 208 l 215 118 q 264 94 238 100 q 350 89 290 89 q 473 96 413 89 q 544 104 533 103 q 718 118 661 118 q 765 112 751 118 q 778 90 778 106 q 406 -1 778 -1 l 358 -1 m 481 1110 q 604 1074 550 1110 q 658 986 658 1039 q 648 963 658 972 q 619 951 638 953 l 615 951 q 594 972 590 951 q 596 985 596 976 q 565 1035 596 1017 q 486 1054 535 1054 q 410 1040 442 1054 q 378 1000 378 1026 q 369 991 378 994 q 349 988 360 988 q 319 997 321 988 q 365 1078 319 1047 q 481 1110 411 1110 z "},"Ē":{"ha":842,"x_min":139,"x_max":778,"o":"m 358 -1 q 191 42 243 -1 q 139 197 139 85 l 158 508 l 158 807 q 172 852 158 842 q 233 863 186 863 l 328 860 q 675 850 506 850 q 733 829 711 850 q 754 772 754 808 q 750 761 754 765 q 740 758 746 757 l 675 783 l 240 772 q 231 774 232 772 q 236 754 236 763 l 236 508 q 360 504 300 504 q 586 514 463 504 q 624 517 599 515 q 653 517 650 519 q 665 501 661 508 q 671 482 669 494 q 578 442 675 451 q 321 426 482 432 q 231 424 267 426 q 214 290 214 382 l 215 208 l 215 118 q 264 94 238 100 q 350 89 290 89 q 473 96 413 89 q 544 104 533 103 q 718 118 661 118 q 765 112 751 118 q 778 90 778 106 q 406 -1 778 -1 l 358 -1 m 299 1003 q 326 1058 299 1040 q 391 1081 354 1076 q 501 1089 428 1086 q 586 1092 571 1092 q 643 1083 629 1092 q 657 1044 657 1074 q 632 1017 657 1017 q 579 1024 607 1017 q 554 1028 572 1025 q 519 1031 536 1031 q 461 1027 485 1031 q 408 1017 438 1024 q 299 1003 350 1003 z "},"Ę":{"ha":842,"x_min":139,"x_max":800,"o":"m 797 -133 q 794 -164 800 -149 q 776 -183 788 -179 q 675 -203 726 -203 q 565 -170 608 -203 q 522 -90 522 -137 q 563 4 522 -40 q 358 -1 494 -1 q 191 42 243 -1 q 139 197 139 85 l 158 508 l 158 807 q 172 852 158 842 q 233 863 186 863 l 328 860 q 675 850 506 850 q 733 829 711 850 q 754 772 754 808 q 750 761 754 765 q 740 758 746 757 l 675 783 l 240 772 q 231 774 232 772 q 236 754 236 763 l 236 508 q 360 504 300 504 q 586 514 463 504 q 624 517 599 515 q 653 517 650 519 q 665 501 661 508 q 671 482 669 494 q 578 442 675 451 q 321 426 482 432 q 231 424 267 426 q 214 290 214 382 l 215 208 l 215 118 q 264 94 238 100 q 350 89 290 89 q 473 96 413 89 q 544 104 533 103 q 718 118 661 118 q 765 112 751 118 q 778 90 778 106 q 704 26 778 50 q 590 -89 590 -19 q 610 -135 590 -117 q 678 -154 631 -154 q 797 -133 722 -154 z "},"Ẽ":{"ha":842,"x_min":139,"x_max":778,"o":"m 358 -1 q 191 42 243 -1 q 139 197 139 85 l 158 508 l 158 807 q 172 852 158 842 q 233 863 186 863 l 328 860 q 675 850 506 850 q 733 829 711 850 q 754 772 754 808 q 750 761 754 765 q 740 758 746 757 l 675 783 l 240 772 q 231 774 232 772 q 236 754 236 763 l 236 508 q 360 504 300 504 q 586 514 463 504 q 624 517 599 515 q 653 517 650 519 q 665 501 661 508 q 671 482 669 494 q 578 442 675 451 q 321 426 482 432 q 231 424 267 426 q 214 290 214 382 l 215 208 l 215 118 q 264 94 238 100 q 350 89 290 89 q 473 96 413 89 q 544 104 533 103 q 718 118 661 118 q 765 112 751 118 q 778 90 778 106 q 406 -1 778 -1 l 358 -1 m 243 978 q 236 1019 236 996 q 272 1103 236 1068 q 353 1138 307 1138 q 421 1126 390 1138 q 500 1081 451 1114 q 588 1049 547 1049 q 647 1072 622 1049 q 685 1136 672 1096 q 710 1131 701 1138 q 718 1113 718 1125 q 715 1097 718 1108 q 681 1034 700 1056 q 632 1003 663 1013 q 590 996 608 996 q 538 1006 563 996 q 472 1039 513 1017 q 414 1068 438 1058 q 367 1078 390 1078 q 308 1060 326 1078 q 290 1004 290 1042 q 293 969 290 994 l 293 965 q 285 954 293 957 q 271 954 278 951 q 243 978 250 958 z "},"F":{"ha":900,"x_min":-28,"x_max":872,"o":"m 353 17 q 312 20 331 19 q 287 22 293 21 q 281 26 281 22 q 267 105 271 71 q 261 168 263 139 q 255 251 260 210 q 235 360 250 292 q 131 347 157 347 q 89 358 103 347 q 75 392 75 368 q 90 406 75 406 l 132 410 q 221 421 142 411 q 210 586 218 461 q 197 746 206 686 l 24 731 q -7 718 4 718 q -28 750 -24 731 q 133 810 6 786 q 408 833 260 833 q 728 794 594 833 q 872 672 861 754 q 789 682 829 672 q 688 711 749 692 q 545 751 610 738 q 400 765 481 765 q 288 757 349 765 q 294 431 288 628 l 343 435 q 603 453 565 453 q 628 451 621 453 q 639 444 635 449 q 560 385 640 403 q 304 361 479 368 q 331 183 311 293 q 353 17 349 81 z "},"G":{"ha":871,"x_min":69,"x_max":807,"o":"m 749 -96 q 685 -47 701 -96 q 669 61 669 3 l 674 101 q 513 33 606 58 q 319 8 421 8 q 189 42 246 8 q 101 135 132 76 q 69 269 69 194 q 158 485 69 383 q 377 652 247 588 q 618 725 507 717 q 713 701 674 731 q 751 618 751 671 q 682 633 722 618 q 653 642 676 635 q 604 649 629 649 q 395 592 506 649 q 210 441 285 535 q 136 244 136 347 q 166 160 136 196 q 241 106 196 125 q 332 88 286 88 q 513 97 442 88 q 635 145 583 106 q 686 267 686 185 q 669 321 686 306 l 422 321 q 385 340 403 321 q 368 379 368 360 q 389 414 368 414 q 442 400 406 414 q 499 385 475 385 q 593 393 529 385 q 633 397 604 394 q 686 400 663 400 q 733 380 710 400 q 754 335 756 360 l 746 14 q 779 -19 756 -6 q 793 -30 788 -24 q 800 -43 799 -36 q 786 -77 807 -58 q 749 -96 765 -96 z "},"Ğ":{"ha":871,"x_min":69,"x_max":801,"o":"m 749 -96 q 685 -47 701 -96 q 669 61 669 3 l 674 101 q 513 33 606 58 q 319 8 421 8 q 189 42 246 8 q 101 135 132 76 q 69 269 69 194 q 158 485 69 383 q 377 652 247 588 q 618 725 507 717 q 713 701 674 731 q 751 618 751 671 q 682 633 722 618 q 653 642 676 635 q 604 649 629 649 q 395 592 506 649 q 210 441 285 535 q 136 244 136 347 q 166 160 136 196 q 241 106 196 125 q 332 88 286 88 q 513 97 442 88 q 635 145 583 106 q 686 267 686 185 q 669 321 686 306 l 422 321 q 385 340 403 321 q 368 379 368 360 q 389 414 368 414 q 442 400 406 414 q 499 385 475 385 q 593 393 529 385 q 633 397 604 394 q 686 400 663 400 q 733 380 710 400 q 754 335 756 360 l 746 14 q 779 -19 756 -6 q 793 -30 788 -24 q 800 -43 799 -36 q 786 -77 807 -58 q 749 -96 765 -96 m 479 874 q 364 905 410 874 q 318 986 318 936 q 347 996 319 996 q 367 992 358 996 q 376 983 376 989 q 408 943 376 957 q 485 929 440 929 q 564 948 533 929 q 594 999 594 967 q 593 1011 594 1007 l 593 1017 q 614 1032 593 1032 q 645 1022 633 1032 q 657 997 657 1011 q 603 909 657 944 q 479 874 549 874 z "},"Ǧ":{"ha":871,"x_min":69,"x_max":801,"o":"m 749 -96 q 685 -47 701 -96 q 669 61 669 3 l 674 101 q 513 33 606 58 q 319 8 421 8 q 189 42 246 8 q 101 135 132 76 q 69 269 69 194 q 158 485 69 383 q 377 652 247 588 q 618 725 507 717 q 713 701 674 731 q 751 618 751 671 q 682 633 722 618 q 653 642 676 635 q 604 649 629 649 q 395 592 506 649 q 210 441 285 535 q 136 244 136 347 q 166 160 136 196 q 241 106 196 125 q 332 88 286 88 q 513 97 442 88 q 635 145 583 106 q 686 267 686 185 q 669 321 686 306 l 422 321 q 385 340 403 321 q 368 379 368 360 q 389 414 368 414 q 442 400 406 414 q 499 385 475 385 q 593 393 529 385 q 633 397 604 394 q 686 400 663 400 q 733 380 710 400 q 754 335 756 360 l 746 14 q 779 -19 756 -6 q 793 -30 788 -24 q 800 -43 799 -36 q 786 -77 807 -58 q 749 -96 765 -96 m 490 822 q 465 829 471 822 q 426 890 447 872 q 351 933 404 907 q 300 960 310 954 q 346 989 315 989 q 426 960 381 989 q 508 890 471 932 q 554 926 524 901 q 613 972 590 957 q 647 986 635 986 q 669 981 664 986 q 674 963 674 975 q 671 944 674 950 q 660 932 668 939 q 647 919 653 925 q 620 899 639 911 q 594 882 601 886 q 543 844 556 857 q 519 827 529 832 q 490 822 510 822 z "},"Ĝ":{"ha":871,"x_min":69,"x_max":801,"o":"m 749 -96 q 685 -47 701 -96 q 669 61 669 3 l 674 101 q 513 33 606 58 q 319 8 421 8 q 189 42 246 8 q 101 135 132 76 q 69 269 69 194 q 158 485 69 383 q 377 652 247 588 q 618 725 507 717 q 713 701 674 731 q 751 618 751 671 q 682 633 722 618 q 653 642 676 635 q 604 649 629 649 q 395 592 506 649 q 210 441 285 535 q 136 244 136 347 q 166 160 136 196 q 241 106 196 125 q 332 88 286 88 q 513 97 442 88 q 635 145 583 106 q 686 267 686 185 q 669 321 686 306 l 422 321 q 385 340 403 321 q 368 379 368 360 q 389 414 368 414 q 442 400 406 414 q 499 385 475 385 q 593 393 529 385 q 633 397 604 394 q 686 400 663 400 q 733 380 710 400 q 754 335 756 360 l 746 14 q 779 -19 756 -6 q 793 -30 788 -24 q 800 -43 799 -36 q 786 -77 807 -58 q 749 -96 765 -96 m 647 824 q 618 842 632 824 q 583 899 604 860 q 510 1013 547 965 q 462 919 493 964 q 397 846 431 874 q 339 818 363 818 q 299 856 313 818 l 349 899 q 406 951 388 932 q 438 999 424 969 q 464 1082 451 1029 q 486 1094 468 1094 q 519 1088 508 1094 q 543 1057 529 1081 q 603 983 554 1038 q 626 954 611 972 q 649 926 642 936 q 672 883 667 899 q 678 850 678 868 q 670 829 678 835 q 647 824 663 824 z "},"Ģ":{"ha":871,"x_min":69,"x_max":801,"o":"m 749 -96 q 685 -47 701 -96 q 669 61 669 3 l 674 101 q 513 33 606 58 q 319 8 421 8 q 189 42 246 8 q 101 135 132 76 q 69 269 69 194 q 158 485 69 383 q 377 652 247 588 q 618 725 507 717 q 713 701 674 731 q 751 618 751 671 q 682 633 722 618 q 653 642 676 635 q 604 649 629 649 q 395 592 506 649 q 210 441 285 535 q 136 244 136 347 q 166 160 136 196 q 241 106 196 125 q 332 88 286 88 q 513 97 442 88 q 635 145 583 106 q 686 267 686 185 q 669 321 686 306 l 422 321 q 385 340 403 321 q 368 379 368 360 q 389 414 368 414 q 442 400 406 414 q 499 385 475 385 q 593 393 529 385 q 633 397 604 394 q 686 400 663 400 q 733 380 710 400 q 754 335 756 360 l 746 14 q 779 -19 756 -6 q 793 -30 788 -24 q 800 -43 799 -36 q 786 -77 807 -58 q 749 -96 765 -96 m 396 -487 q 368 -462 368 -487 q 381 -397 368 -435 q 400 -286 400 -344 l 399 -233 l 394 -233 q 375 -227 379 -233 q 371 -208 371 -221 q 419 -142 371 -142 q 466 -173 454 -142 q 478 -253 478 -204 l 476 -299 q 453 -431 476 -374 q 396 -487 429 -487 z "},"Ġ":{"ha":871,"x_min":69,"x_max":801,"o":"m 749 -96 q 685 -47 701 -96 q 669 61 669 3 l 674 101 q 513 33 606 58 q 319 8 421 8 q 189 42 246 8 q 101 135 132 76 q 69 269 69 194 q 158 485 69 383 q 377 652 247 588 q 618 725 507 717 q 713 701 674 731 q 751 618 751 671 q 682 633 722 618 q 653 642 676 635 q 604 649 629 649 q 395 592 506 649 q 210 441 285 535 q 136 244 136 347 q 166 160 136 196 q 241 106 196 125 q 332 88 286 88 q 513 97 442 88 q 635 145 583 106 q 686 267 686 185 q 669 321 686 306 l 422 321 q 385 340 403 321 q 368 379 368 360 q 389 414 368 414 q 442 400 406 414 q 499 385 475 385 q 593 393 529 385 q 633 397 604 394 q 686 400 663 400 q 733 380 710 400 q 754 335 756 360 l 746 14 q 779 -19 756 -6 q 793 -30 788 -24 q 800 -43 799 -36 q 786 -77 807 -58 q 749 -96 765 -96 m 501 856 q 456 879 471 856 q 442 938 442 903 q 443 960 442 953 q 468 982 442 982 q 508 973 488 982 q 519 960 528 964 q 533 903 533 924 q 525 874 533 885 q 501 856 517 864 z "},"H":{"ha":807,"x_min":69,"x_max":738,"o":"m 700 0 q 651 34 665 -7 q 636 156 638 75 q 628 353 633 274 q 611 497 624 433 q 356 385 482 436 q 231 336 231 335 l 233 40 q 208 14 233 19 q 165 52 175 7 q 150 194 154 97 q 142 318 147 282 q 75 300 103 299 q 69 346 69 311 q 97 356 81 350 q 120 369 113 361 q 128 392 128 376 q 114 606 128 461 q 99 821 99 736 l 100 885 q 110 897 104 894 q 128 900 117 900 q 151 885 151 900 l 208 396 q 338 446 247 406 q 615 576 428 486 l 621 885 q 661 939 621 939 q 684 926 678 939 q 688 885 690 914 l 686 644 q 700 326 686 522 q 708 252 704 288 q 714 185 711 217 q 726 76 722 99 q 738 35 729 53 q 700 0 731 7 z "},"Ħ":{"ha":729,"x_min":-37,"x_max":743,"o":"m 686 631 q 700 326 686 514 q 708 252 704 288 q 714 185 711 217 q 726 76 722 99 q 738 35 729 53 q 700 0 731 7 q 651 34 665 -7 q 636 156 638 75 q 628 353 633 274 q 611 497 624 433 q 356 385 482 436 q 231 336 231 335 l 233 40 q 208 14 233 19 q 165 52 175 7 q 150 194 154 97 q 142 318 147 282 q 75 300 103 299 q 69 346 69 311 q 97 356 81 350 q 120 369 113 361 q 128 392 128 376 q 113 604 128 472 l 103 711 q -33 688 11 699 q -37 714 -37 704 q -32 731 -37 725 q -14 743 -26 738 q 100 769 18 756 q 99 821 99 786 l 100 885 q 110 897 104 894 q 128 900 117 900 q 151 885 151 900 l 164 779 q 529 813 281 794 l 619 819 l 621 885 q 661 939 621 939 q 684 926 678 939 q 688 885 690 914 l 688 822 q 728 814 715 821 q 743 790 742 807 l 743 785 q 721 758 743 763 q 688 757 711 757 l 686 631 m 208 396 q 338 446 247 406 q 615 576 428 486 l 618 758 q 554 757 575 758 q 389 744 499 756 q 171 719 279 733 l 208 396 z "},"Ĥ":{"ha":807,"x_min":69,"x_max":738,"o":"m 700 0 q 651 34 665 -7 q 636 156 638 75 q 628 353 633 274 q 611 497 624 433 q 356 385 482 436 q 231 336 231 335 l 233 40 q 208 14 233 19 q 165 52 175 7 q 150 194 154 97 q 142 318 147 282 q 75 300 103 299 q 69 346 69 311 q 97 356 81 350 q 120 369 113 361 q 128 392 128 376 q 114 606 128 461 q 99 821 99 736 l 100 885 q 110 897 104 894 q 128 900 117 900 q 151 885 151 900 l 208 396 q 338 446 247 406 q 615 576 428 486 l 621 885 q 661 939 621 939 q 684 926 678 939 q 688 885 690 914 l 686 644 q 700 326 686 522 q 708 252 704 288 q 714 185 711 217 q 726 76 722 99 q 738 35 729 53 q 700 0 731 7 m 574 1026 q 544 1044 558 1026 q 510 1101 531 1063 q 436 1215 474 1168 q 388 1122 419 1167 q 323 1049 357 1076 q 265 1021 289 1021 q 225 1058 239 1021 l 275 1101 q 332 1153 314 1135 q 364 1202 350 1172 q 390 1285 378 1232 q 413 1297 394 1297 q 445 1290 435 1297 q 469 1260 456 1283 q 529 1186 481 1240 q 553 1157 538 1175 q 575 1129 568 1139 q 599 1086 593 1101 q 604 1053 604 1071 q 597 1032 604 1038 q 574 1026 589 1026 z "},"I":{"ha":326,"x_min":69,"x_max":257,"o":"m 231 0 q 197 8 213 -7 q 179 51 181 24 q 167 150 174 92 q 158 236 161 208 q 147 344 156 264 q 128 482 138 424 q 110 551 125 501 q 69 758 69 694 q 89 772 79 772 q 164 628 125 772 q 230 302 203 483 q 257 54 257 121 q 257 37 257 51 q 251 13 257 22 q 231 0 244 3 z "},"Í":{"ha":326,"x_min":-25,"x_max":257,"o":"m 231 0 q 197 8 213 -7 q 179 51 181 24 q 167 150 174 92 q 158 236 161 208 q 147 344 156 264 q 128 482 138 424 q 110 551 125 501 q 69 758 69 694 q 89 772 79 772 q 164 628 125 772 q 230 302 203 483 q 257 54 257 121 q 257 37 257 51 q 251 13 257 22 q 231 0 244 3 m 8 857 q -19 863 -12 857 q -25 889 -25 868 q 19 957 -25 917 q 133 1049 64 997 l 164 1072 q 189 1043 189 1060 q 169 1004 189 1026 q 101 942 149 982 q 8 857 46 894 z "},"Ĭ":{"ha":326,"x_min":-46,"x_max":257,"o":"m 231 0 q 197 8 213 -7 q 179 51 181 24 q 167 150 174 92 q 158 236 161 208 q 147 344 156 264 q 128 482 138 424 q 110 551 125 501 q 69 758 69 694 q 89 772 79 772 q 164 628 125 772 q 230 302 203 483 q 257 54 257 121 q 257 37 257 51 q 251 13 257 22 q 231 0 244 3 m 74 910 q -12 941 22 910 q -46 1022 -46 972 l -46 1032 q -1 1019 -1 1032 q 19 982 -1 994 q 69 969 40 969 q 126 984 101 969 q 151 1024 151 999 q 146 1047 151 1036 q 169 1060 151 1060 q 199 1051 189 1060 q 210 1033 210 1043 q 168 945 210 981 q 74 910 126 910 z "},"Î":{"ha":326,"x_min":-107,"x_max":272,"o":"m 231 0 q 197 8 213 -7 q 179 51 181 24 q 167 150 174 92 q 158 236 161 208 q 147 344 156 264 q 128 482 138 424 q 110 551 125 501 q 69 758 69 694 q 89 772 79 772 q 164 628 125 772 q 230 302 203 483 q 257 54 257 121 q 257 37 257 51 q 251 13 257 22 q 231 0 244 3 m 242 860 q 213 878 226 860 q 178 935 199 896 q 104 1049 142 1001 q 56 955 88 1000 q -9 882 25 910 q -67 854 -43 854 q -107 892 -93 854 l -57 935 q 0 987 -18 968 q 32 1035 18 1006 q 58 1118 46 1065 q 81 1131 63 1131 q 113 1124 103 1131 q 138 1093 124 1117 q 197 1019 149 1074 q 221 990 206 1008 q 243 963 236 972 q 267 919 261 935 q 272 886 272 904 q 265 865 272 871 q 242 860 257 860 z "},"Ȉ":{"ha":326,"x_min":-124,"x_max":257,"o":"m 18 882 q -92 971 0 882 q -117 1003 -111 988 q -117 1025 -124 1018 q -99 1033 -111 1033 q -39 1000 -78 1033 q 8 963 -36 997 q 53 918 53 928 q 45 888 53 894 q 18 882 38 882 m 156 882 q 46 971 138 882 q 20 1003 26 988 q 21 1025 14 1018 q 39 1033 28 1033 q 99 1000 60 1033 q 146 963 101 997 q 190 918 190 928 q 183 888 190 894 q 156 882 175 882 m 231 0 q 197 8 213 -7 q 179 51 181 24 q 167 150 174 92 q 158 236 161 208 q 147 344 156 264 q 128 482 138 424 q 110 551 125 501 q 69 758 69 694 q 89 772 79 772 q 164 628 125 772 q 230 302 203 483 q 257 54 257 121 q 257 37 257 51 q 251 13 257 22 q 231 0 244 3 z "},"Ï":{"ha":326,"x_min":-97,"x_max":260,"o":"m 231 0 q 197 8 213 -7 q 179 51 181 24 q 167 150 174 92 q 158 236 161 208 q 147 344 156 264 q 128 482 138 424 q 110 551 125 501 q 69 758 69 694 q 89 772 79 772 q 164 628 125 772 q 230 302 203 483 q 257 54 257 121 q 257 37 257 51 q 251 13 257 22 q 231 0 244 3 m -32 874 q -78 897 -58 874 q -97 939 -97 919 q -74 979 -97 951 q -39 1007 -51 1007 q 22 983 1 1007 q 43 932 43 960 q 19 894 43 914 q -32 874 -6 874 m 186 874 q 139 897 157 874 q 121 939 121 919 q 144 979 121 951 q 181 1007 167 1007 q 239 983 218 1007 q 260 932 260 960 q 235 894 260 914 q 186 874 211 874 z "},"İ":{"ha":326,"x_min":36,"x_max":257,"o":"m 231 0 q 197 8 213 -7 q 179 51 181 24 q 167 150 174 92 q 158 236 161 208 q 147 344 156 264 q 128 482 138 424 q 110 551 125 501 q 69 758 69 694 q 89 772 79 772 q 164 628 125 772 q 230 302 203 483 q 257 54 257 121 q 257 37 257 51 q 251 13 257 22 q 231 0 244 3 m 96 892 q 51 915 65 892 q 36 974 36 939 q 38 996 36 989 q 63 1018 36 1018 q 102 1009 82 1018 q 114 996 122 1000 q 128 939 128 960 q 119 910 128 921 q 96 892 111 900 z "},"Ị":{"ha":326,"x_min":69,"x_max":276,"o":"m 231 0 q 197 8 213 -7 q 179 51 181 24 q 167 150 174 92 q 158 236 161 208 q 147 344 156 264 q 128 482 138 424 q 110 551 125 501 q 69 758 69 694 q 89 772 79 772 q 164 628 125 772 q 230 302 203 483 q 257 54 257 121 q 257 37 257 51 q 251 13 257 22 q 231 0 244 3 m 244 -237 q 199 -214 214 -237 q 185 -156 185 -190 q 186 -133 185 -140 q 211 -111 185 -111 q 251 -120 231 -111 q 263 -133 271 -129 q 276 -190 276 -169 q 268 -219 276 -208 q 244 -237 260 -229 z "},"Ì":{"ha":326,"x_min":-17,"x_max":257,"o":"m 231 0 q 197 8 213 -7 q 179 51 181 24 q 167 150 174 92 q 158 236 161 208 q 147 344 156 264 q 128 482 138 424 q 110 551 125 501 q 69 758 69 694 q 89 772 79 772 q 164 628 125 772 q 230 302 203 483 q 257 54 257 121 q 257 37 257 51 q 251 13 257 22 q 231 0 244 3 m 138 874 q 15 972 117 874 q -12 1008 -6 992 q -12 1032 -19 1025 q 8 1042 -3 1042 q 74 1004 32 1042 q 126 963 76 1001 q 176 913 176 924 q 168 881 176 888 q 138 874 160 874 z "},"Ỉ":{"ha":326,"x_min":7,"x_max":257,"o":"m 231 0 q 197 8 213 -7 q 179 51 181 24 q 167 150 174 92 q 158 236 161 208 q 147 344 156 264 q 128 482 138 424 q 110 551 125 501 q 69 758 69 694 q 89 772 79 772 q 164 628 125 772 q 230 302 203 483 q 257 54 257 121 q 257 37 257 51 q 251 13 257 22 q 231 0 244 3 m 69 824 q 60 836 60 828 q 74 858 60 844 q 104 888 88 872 q 150 931 133 913 q 167 968 167 950 q 154 1011 167 996 q 100 1026 142 1026 q 61 1017 82 1026 q 31 990 40 1007 q 13 1001 19 992 q 7 1024 7 1010 q 42 1064 7 1050 q 111 1078 78 1078 q 201 1047 175 1078 q 228 979 228 1017 q 213 929 228 949 q 167 885 197 910 q 141 864 153 875 q 124 842 129 853 q 119 825 125 835 q 97 815 113 815 q 69 824 86 815 z "},"Ȋ":{"ha":326,"x_min":-76,"x_max":263,"o":"m 231 0 q 197 8 213 -7 q 179 51 181 24 q 167 150 174 92 q 158 236 161 208 q 147 344 156 264 q 128 482 138 424 q 110 551 125 501 q 69 758 69 694 q 89 772 79 772 q 164 628 125 772 q 230 302 203 483 q 257 54 257 121 q 257 37 257 51 q 251 13 257 22 q 231 0 244 3 m 85 1032 q 208 997 154 1032 q 263 908 263 961 q 252 885 263 894 q 224 874 242 875 l 219 874 q 199 894 194 874 q 200 907 200 899 q 169 958 200 939 q 90 976 139 976 q 14 963 46 976 q -18 922 -18 949 q -27 913 -18 917 q -47 910 -36 910 q -76 919 -75 910 q -31 1001 -76 969 q 85 1032 15 1032 z "},"Ī":{"ha":326,"x_min":-97,"x_max":261,"o":"m 231 0 q 197 8 213 -7 q 179 51 181 24 q 167 150 174 92 q 158 236 161 208 q 147 344 156 264 q 128 482 138 424 q 110 551 125 501 q 69 758 69 694 q 89 772 79 772 q 164 628 125 772 q 230 302 203 483 q 257 54 257 121 q 257 37 257 51 q 251 13 257 22 q 231 0 244 3 m -97 925 q -69 981 -97 963 q -5 1003 -42 999 q 106 1011 32 1008 q 190 1014 175 1014 q 247 1005 233 1014 q 261 967 261 996 q 236 939 261 939 q 183 946 211 939 q 158 950 176 947 q 124 953 140 953 q 65 949 89 953 q 13 939 42 946 q -97 925 -46 925 z "},"Į":{"ha":326,"x_min":39,"x_max":317,"o":"m 314 -165 q 310 -196 317 -181 q 293 -215 304 -211 q 192 -235 243 -235 q 82 -202 125 -235 q 39 -122 39 -169 q 81 -26 39 -69 q 182 38 122 18 q 179 51 179 46 q 167 150 174 92 q 158 236 161 208 q 147 344 156 264 q 128 482 138 424 q 110 551 125 501 q 69 758 69 694 q 89 772 79 772 q 164 628 125 772 q 230 302 203 483 q 257 54 257 121 q 258 37 257 50 q 253 15 258 24 q 236 1 247 6 q 107 -121 107 -49 q 127 -167 107 -149 q 194 -186 147 -186 q 314 -165 239 -186 z "},"Ĩ":{"ha":326,"x_min":-111,"x_max":257,"o":"m 231 0 q 197 8 213 -7 q 179 51 181 24 q 167 150 174 92 q 158 236 161 208 q 147 344 156 264 q 128 482 138 424 q 110 551 125 501 q 69 758 69 694 q 89 772 79 772 q 164 628 125 772 q 230 302 203 483 q 257 54 257 121 q 257 37 257 51 q 251 13 257 22 q 231 0 244 3 m -104 900 q -111 940 -111 924 q -79 1019 -111 988 q -7 1051 -47 1051 q 52 1037 28 1051 q 103 997 76 1022 q 128 976 118 983 q 149 969 139 969 q 174 978 168 969 q 189 1019 181 988 q 199 1058 190 1026 q 233 1018 239 1063 q 206 949 228 974 q 150 924 185 924 q 111 933 126 924 q 75 963 96 943 q 40 991 54 982 q 3 1000 25 1000 q -42 982 -28 1000 q -57 928 -57 964 q -54 892 -57 917 l -54 888 q -76 876 -54 872 q -104 900 -97 881 z "},"J":{"ha":678,"x_min":29,"x_max":594,"o":"m 399 -1 q 118 85 207 0 q 29 303 29 169 q 94 422 29 422 q 107 410 107 417 q 102 394 107 404 q 94 376 97 385 q 88 329 88 351 q 129 210 88 268 q 242 115 171 151 q 393 78 313 78 q 487 131 453 78 q 521 293 521 183 q 510 431 521 360 l 435 939 q 461 960 450 960 q 521 835 496 960 q 579 453 546 711 l 585 407 q 594 281 594 326 q 544 71 594 143 q 399 -1 494 -1 z "},"Ĵ":{"ha":678,"x_min":29,"x_max":665,"o":"m 399 -1 q 118 85 207 0 q 29 303 29 169 q 94 422 29 422 q 107 410 107 417 q 102 394 107 404 q 94 376 97 385 q 88 329 88 351 q 129 210 88 268 q 242 115 171 151 q 393 78 313 78 q 487 131 453 78 q 521 293 521 183 q 510 431 521 360 l 435 939 q 461 960 450 960 q 521 835 496 960 q 579 453 546 711 l 585 407 q 594 281 594 326 q 544 71 594 143 q 399 -1 494 -1 m 635 1076 q 606 1094 619 1076 q 571 1151 592 1113 q 497 1265 535 1218 q 449 1172 481 1217 q 384 1099 418 1126 q 326 1071 350 1071 q 286 1108 300 1071 l 336 1151 q 393 1203 375 1185 q 425 1252 411 1222 q 451 1335 439 1282 q 474 1347 456 1347 q 506 1340 496 1347 q 531 1310 517 1333 q 590 1236 542 1290 q 614 1207 599 1225 q 636 1179 629 1189 q 660 1136 654 1151 q 665 1103 665 1121 q 658 1082 665 1088 q 635 1076 650 1076 z "},"K":{"ha":674,"x_min":83,"x_max":674,"o":"m 185 -3 q 145 65 156 -3 q 128 303 135 132 l 124 404 q 104 567 121 457 q 93 651 103 581 q 83 776 83 722 q 92 798 83 785 q 113 811 100 811 q 137 794 131 811 q 145 762 143 778 q 147 742 147 746 q 160 677 156 718 q 167 590 164 636 q 178 461 172 500 l 221 522 q 384 736 311 656 q 526 814 457 817 q 532 800 532 808 q 518 768 532 786 q 476 721 504 750 l 447 690 q 354 588 432 672 q 265 490 300 531 q 213 417 231 450 q 358 267 274 332 q 578 113 442 201 l 619 86 q 659 60 644 76 q 674 28 674 44 q 669 11 674 19 q 646 -6 660 -6 q 592 14 631 -6 l 517 67 q 308 217 394 147 q 189 349 222 286 l 197 244 q 210 53 210 101 q 204 8 210 18 q 185 -3 199 -3 z "},"Ķ":{"ha":674,"x_min":83,"x_max":674,"o":"m 185 -3 q 145 65 156 -3 q 128 303 135 132 l 124 404 q 104 567 121 457 q 93 651 103 581 q 83 776 83 722 q 92 798 83 785 q 113 811 100 811 q 137 794 131 811 q 145 762 143 778 q 147 742 147 746 q 160 677 156 718 q 167 590 164 636 q 178 461 172 500 l 221 522 q 384 736 311 656 q 526 814 457 817 q 532 800 532 808 q 518 768 532 786 q 476 721 504 750 l 447 690 q 354 588 432 672 q 265 490 300 531 q 213 417 231 450 q 358 267 274 332 q 578 113 442 201 l 619 86 q 659 60 644 76 q 674 28 674 44 q 669 11 674 19 q 646 -6 660 -6 q 592 14 631 -6 l 517 67 q 308 217 394 147 q 189 349 222 286 l 197 244 q 210 53 210 101 q 204 8 210 18 q 185 -3 199 -3 m 357 -487 q 329 -462 329 -487 q 342 -397 329 -435 q 361 -286 361 -344 l 360 -233 l 356 -233 q 336 -227 340 -233 q 332 -208 332 -221 q 381 -142 332 -142 q 427 -173 415 -142 q 439 -253 439 -204 l 438 -299 q 414 -431 438 -374 q 357 -487 390 -487 z "},"L":{"ha":514,"x_min":83,"x_max":514,"o":"m 364 -3 q 154 45 225 -3 q 83 219 83 93 q 172 882 111 914 q 203 788 203 881 q 183 547 203 731 q 158 238 158 336 l 160 197 q 178 136 160 167 q 226 103 197 106 l 499 79 q 514 50 514 78 q 502 15 514 25 q 461 0 490 6 l 364 -3 z "},"Ĺ":{"ha":514,"x_min":83,"x_max":514,"o":"m 499 79 q 514 50 514 78 q 502 15 514 25 q 461 0 490 6 l 364 -3 q 154 45 225 -3 q 83 219 83 93 q 172 882 111 914 q 196 857 188 881 q 325 969 224 894 l 365 1000 q 390 971 390 988 q 370 932 390 954 q 303 869 350 910 q 210 785 247 822 l 203 785 q 197 681 203 744 q 183 551 190 617 q 158 239 158 340 l 160 197 q 178 136 160 167 q 226 103 197 106 l 499 79 z "},"Ľ":{"ha":514,"x_min":83,"x_max":514,"o":"m 364 -3 q 154 45 225 -3 q 83 219 83 93 q 172 882 111 914 q 203 788 203 881 q 183 547 203 731 q 158 238 158 336 l 160 197 q 178 136 160 167 q 226 103 197 106 l 499 79 q 514 50 514 78 q 502 15 514 25 q 461 0 490 6 l 364 -3 m 324 438 q 338 479 324 443 q 353 569 353 515 q 344 646 353 603 q 343 664 343 651 q 358 710 343 690 q 401 731 372 731 q 427 706 419 731 q 435 635 435 682 q 419 540 435 590 q 382 456 404 490 q 340 422 360 422 q 324 438 324 422 z "},"Ļ":{"ha":514,"x_min":83,"x_max":514,"o":"m 364 -3 q 154 45 225 -3 q 83 219 83 93 q 172 882 111 914 q 203 788 203 881 q 183 547 203 731 q 158 238 158 336 l 160 197 q 178 136 160 167 q 226 103 197 106 l 499 79 q 514 50 514 78 q 502 15 514 25 q 461 0 490 6 l 364 -3 m 272 -487 q 244 -462 244 -487 q 257 -397 244 -435 q 276 -286 276 -344 l 275 -233 l 271 -233 q 251 -227 256 -233 q 247 -208 247 -221 q 296 -142 247 -142 q 342 -173 331 -142 q 354 -253 354 -204 l 353 -299 q 329 -431 353 -374 q 272 -487 306 -487 z "},"Ŀ":{"ha":482,"x_min":83,"x_max":514,"o":"m 364 -3 q 154 45 225 -3 q 83 219 83 93 q 172 882 111 914 q 203 788 203 881 q 183 547 203 731 q 158 238 158 336 l 160 197 q 178 136 160 167 q 226 103 197 106 l 499 79 q 514 50 514 78 q 502 15 514 25 q 461 0 490 6 l 364 -3 m 311 244 q 256 272 278 244 q 233 322 233 299 q 249 376 233 347 q 304 404 264 404 q 378 376 351 404 q 404 315 404 347 q 374 269 404 294 q 311 244 343 244 z "},"Ł":{"ha":514,"x_min":-25,"x_max":514,"o":"m 499 79 q 514 50 514 78 q 502 15 514 25 q 461 0 490 6 l 364 -3 q 154 45 225 -3 q 83 219 83 93 l 86 292 q -4 246 13 236 q -19 262 -14 251 q -25 285 -25 272 q -21 304 -25 296 q 93 421 -3 343 q 124 763 104 629 q 172 882 143 897 q 201 789 201 881 q 194 657 201 739 q 176 490 186 575 q 228 538 231 540 q 294 596 272 579 q 332 611 317 613 q 346 586 346 599 q 339 562 346 575 q 329 543 332 549 q 267 460 314 513 q 164 357 221 408 q 158 239 158 274 q 160 197 158 210 q 178 136 160 167 q 226 103 197 106 l 499 79 z "},"M":{"ha":843,"x_min":83,"x_max":760,"o":"m 707 572 q 713 456 707 513 q 733 299 719 400 q 760 26 760 128 q 751 1 760 6 q 732 -3 743 -3 q 717 -3 721 -3 q 686 2 697 -3 q 668 26 675 7 l 639 404 q 628 633 635 461 q 510 528 568 564 q 390 493 451 493 q 215 617 303 493 q 219 561 219 596 q 219 521 219 526 l 218 67 q 203 45 218 53 q 174 38 189 38 q 147 52 154 38 q 135 92 139 67 l 135 286 q 138 386 135 331 q 142 464 140 442 q 149 640 149 561 q 140 685 149 664 q 115 733 132 707 q 91 779 99 760 q 83 821 83 799 q 110 847 83 847 q 178 817 151 847 q 235 728 204 788 q 281 651 261 679 q 331 603 300 624 q 404 583 361 583 q 507 608 467 581 q 568 674 547 635 q 608 768 589 713 q 638 833 625 814 q 668 847 650 851 q 710 771 710 850 q 708 672 710 704 l 707 572 z "},"N":{"ha":938,"x_min":83,"x_max":854,"o":"m 669 692 q 753 613 710 692 q 825 431 796 533 q 854 279 854 329 q 822 142 854 203 q 729 48 789 82 q 593 14 669 14 q 410 71 488 14 q 288 202 333 128 q 193 381 242 276 l 174 422 l 176 86 q 166 27 176 56 q 131 -1 156 -1 q 94 27 106 -1 q 83 83 83 56 q 97 339 83 172 q 111 588 111 506 q 108 628 111 607 q 104 657 106 649 q 97 724 97 694 l 97 729 q 123 735 101 729 q 149 742 144 742 l 163 742 q 319 303 215 504 q 603 103 422 103 q 731 153 688 103 q 775 290 775 204 q 751 426 775 364 q 681 578 728 488 l 643 651 q 639 665 639 658 q 647 684 639 676 q 669 692 656 692 m 176 86 l 176 89 l 176 86 z "},"Ń":{"ha":938,"x_min":83,"x_max":854,"o":"m 669 692 q 753 613 710 692 q 825 431 796 533 q 854 279 854 329 q 822 142 854 203 q 729 48 789 82 q 593 14 669 14 q 410 71 488 14 q 288 202 333 128 q 193 381 242 276 l 174 422 l 176 86 q 166 27 176 56 q 131 -1 156 -1 q 94 27 106 -1 q 83 83 83 56 q 97 339 83 172 q 111 588 111 506 q 108 628 111 607 q 104 657 106 649 q 97 724 97 694 l 97 729 q 123 735 101 729 q 149 742 144 742 l 163 742 q 319 303 215 504 q 603 103 422 103 q 731 153 688 103 q 775 290 775 204 q 751 426 775 364 q 681 578 728 488 l 643 651 q 639 665 639 658 q 647 684 639 676 q 669 692 656 692 m 176 86 l 176 89 l 176 86 m 315 826 q 288 832 294 826 q 282 858 282 838 q 326 926 282 886 q 440 1018 371 967 l 471 1042 q 496 1013 496 1029 q 476 974 496 996 q 408 911 456 951 q 315 826 353 864 z "},"Ň":{"ha":938,"x_min":83,"x_max":854,"o":"m 669 692 q 753 613 710 692 q 825 431 796 533 q 854 279 854 329 q 822 142 854 203 q 729 48 789 82 q 593 14 669 14 q 410 71 488 14 q 288 202 333 128 q 193 381 242 276 l 174 422 l 176 86 q 166 27 176 56 q 131 -1 156 -1 q 94 27 106 -1 q 83 83 83 56 q 97 339 83 172 q 111 588 111 506 q 108 628 111 607 q 104 657 106 649 q 97 724 97 694 l 97 729 q 123 735 101 729 q 149 742 144 742 l 163 742 q 319 303 215 504 q 603 103 422 103 q 731 153 688 103 q 775 290 775 204 q 751 426 775 364 q 681 578 728 488 l 643 651 q 639 665 639 658 q 647 684 639 676 q 669 692 656 692 m 176 86 l 176 89 l 176 86 m 392 828 q 367 835 372 828 q 327 895 349 878 q 253 939 306 913 q 201 965 211 960 q 247 994 217 994 q 327 966 282 994 q 410 896 372 938 q 456 932 425 907 q 514 977 492 963 q 549 992 536 992 q 570 986 565 992 q 575 968 575 981 q 572 950 575 956 q 562 938 569 944 q 549 925 554 931 q 522 904 540 917 q 496 888 503 892 q 444 850 457 863 q 421 833 431 838 q 392 828 411 828 z "},"Ņ":{"ha":938,"x_min":83,"x_max":854,"o":"m 669 692 q 753 613 710 692 q 825 431 796 533 q 854 279 854 329 q 822 142 854 203 q 729 48 789 82 q 593 14 669 14 q 410 71 488 14 q 288 202 333 128 q 193 381 242 276 l 174 422 l 176 86 q 166 27 176 56 q 131 -1 156 -1 q 94 27 106 -1 q 83 83 83 56 q 97 339 83 172 q 111 588 111 506 q 108 628 111 607 q 104 657 106 649 q 97 724 97 694 l 97 729 q 123 735 101 729 q 149 742 144 742 l 163 742 q 319 303 215 504 q 603 103 422 103 q 731 153 688 103 q 775 290 775 204 q 751 426 775 364 q 681 578 728 488 l 643 651 q 639 665 639 658 q 647 684 639 676 q 669 692 656 692 m 176 86 l 176 89 l 176 86 m 442 -487 q 414 -462 414 -487 q 426 -397 414 -435 q 446 -286 446 -344 l 444 -233 l 440 -233 q 421 -227 425 -233 q 417 -208 417 -221 q 465 -142 417 -142 q 512 -173 500 -142 q 524 -253 524 -204 l 522 -299 q 499 -431 522 -374 q 442 -487 475 -487 z "},"Ŋ":{"ha":847,"x_min":83,"x_max":854,"o":"m 822 144 q 829 -31 826 86 q 833 -118 831 -56 q 839 -231 835 -181 q 843 -307 843 -271 q 788 -526 843 -444 q 607 -608 733 -608 q 378 -552 471 -608 q 276 -394 286 -496 q 282 -361 275 -372 q 301 -350 289 -350 q 330 -363 317 -350 q 342 -394 343 -376 q 400 -503 342 -474 q 588 -533 458 -533 q 705 -505 667 -533 q 754 -421 743 -476 q 765 -261 765 -365 l 765 -194 q 763 -49 765 -106 q 753 63 761 7 q 593 14 685 14 q 410 71 488 14 q 288 202 333 128 q 193 381 242 276 l 174 422 l 176 86 q 166 27 176 56 q 131 -1 156 -1 q 94 27 106 -1 q 83 83 83 56 q 97 339 83 172 q 111 588 111 506 q 108 628 111 607 q 104 657 106 649 q 97 724 97 694 l 97 729 q 123 735 101 729 q 149 742 144 742 l 163 742 q 319 303 215 504 q 603 103 422 103 q 749 178 704 103 l 764 303 l 775 306 q 749 436 772 376 q 681 579 725 496 l 643 651 q 639 665 639 658 q 647 684 639 676 q 669 692 656 692 q 753 613 710 692 q 825 431 796 533 q 854 279 854 329 q 822 144 854 204 m 176 86 l 176 89 l 176 86 z "},"Ñ":{"ha":938,"x_min":83,"x_max":854,"o":"m 669 692 q 753 613 710 692 q 825 431 796 533 q 854 279 854 329 q 822 142 854 203 q 729 48 789 82 q 593 14 669 14 q 410 71 488 14 q 288 202 333 128 q 193 381 242 276 l 174 422 l 176 86 q 166 27 176 56 q 131 -1 156 -1 q 94 27 106 -1 q 83 83 83 56 q 97 339 83 172 q 111 588 111 506 q 108 628 111 607 q 104 657 106 649 q 97 724 97 694 l 97 729 q 123 735 101 729 q 149 742 144 742 l 163 742 q 319 303 215 504 q 603 103 422 103 q 731 153 688 103 q 775 290 775 204 q 751 426 775 364 q 681 578 728 488 l 643 651 q 639 665 639 658 q 647 684 639 676 q 669 692 656 692 m 176 86 l 176 89 l 176 86 m 154 869 q 147 911 147 888 q 183 994 147 960 q 264 1029 218 1029 q 332 1017 301 1029 q 411 972 363 1006 q 499 940 458 940 q 558 964 533 940 q 596 1028 583 988 q 621 1023 613 1029 q 629 1004 629 1017 q 626 989 629 1000 q 592 926 611 947 q 543 894 574 904 q 501 888 519 888 q 449 898 474 888 q 383 931 424 908 q 325 960 349 950 q 278 969 301 969 q 219 951 238 969 q 201 896 201 933 q 204 861 201 886 l 204 857 q 197 846 204 849 q 182 846 189 843 q 154 869 161 850 z "},"O":{"ha":913,"x_min":69,"x_max":843,"o":"m 469 -1 q 263 46 354 -1 q 121 179 172 93 q 69 378 69 265 q 100 518 69 454 q 189 620 131 582 q 326 658 247 658 q 594 608 476 658 q 777 463 711 557 q 843 244 843 368 q 783 107 843 163 q 635 25 722 51 q 469 -1 549 -1 m 443 71 q 677 113 582 71 q 772 251 772 154 q 642 506 772 421 q 308 592 511 592 q 172 534 211 592 q 132 378 132 476 q 172 226 132 296 q 282 113 211 156 q 443 71 353 71 z "},"Ó":{"ha":913,"x_min":69,"x_max":843,"o":"m 469 -1 q 263 46 354 -1 q 121 179 172 93 q 69 378 69 265 q 100 518 69 454 q 189 620 131 582 q 326 658 247 658 q 594 608 476 658 q 777 463 711 557 q 843 244 843 368 q 783 107 843 163 q 635 25 722 51 q 469 -1 549 -1 m 443 71 q 677 113 582 71 q 772 251 772 154 q 642 506 772 421 q 308 592 511 592 q 172 534 211 592 q 132 378 132 476 q 172 226 132 296 q 282 113 211 156 q 443 71 353 71 m 271 729 q 244 735 250 729 q 238 761 238 740 q 282 829 238 789 q 396 921 326 869 l 426 944 q 451 915 451 932 q 431 876 451 899 q 364 814 411 854 q 271 729 308 767 z "},"Ŏ":{"ha":913,"x_min":69,"x_max":843,"o":"m 469 -1 q 263 46 354 -1 q 121 179 172 93 q 69 378 69 265 q 100 518 69 454 q 189 620 131 582 q 326 658 247 658 q 594 608 476 658 q 777 463 711 557 q 843 244 843 368 q 783 107 843 163 q 635 25 722 51 q 469 -1 549 -1 m 443 71 q 677 113 582 71 q 772 251 772 154 q 642 506 772 421 q 308 592 511 592 q 172 534 211 592 q 132 378 132 476 q 172 226 132 296 q 282 113 211 156 q 443 71 353 71 m 336 782 q 221 813 267 782 q 175 894 175 844 q 204 904 176 904 q 224 901 215 904 q 233 892 233 897 q 265 851 233 865 q 342 838 297 838 q 421 856 390 838 q 451 907 451 875 q 450 919 451 915 l 450 925 q 471 940 450 940 q 502 930 490 940 q 514 906 514 919 q 460 817 514 853 q 336 782 406 782 z "},"Ô":{"ha":913,"x_min":69,"x_max":843,"o":"m 469 -1 q 263 46 354 -1 q 121 179 172 93 q 69 378 69 265 q 100 518 69 454 q 189 620 131 582 q 326 658 247 658 q 594 608 476 658 q 777 463 711 557 q 843 244 843 368 q 783 107 843 163 q 635 25 722 51 q 469 -1 549 -1 m 443 71 q 677 113 582 71 q 772 251 772 154 q 642 506 772 421 q 308 592 511 592 q 172 534 211 592 q 132 378 132 476 q 172 226 132 296 q 282 113 211 156 q 443 71 353 71 m 504 732 q 475 750 489 732 q 440 807 461 768 q 367 921 404 874 q 319 827 350 872 q 253 754 288 782 q 196 726 219 726 q 156 764 169 726 l 206 807 q 263 859 244 840 q 294 908 281 878 q 321 990 308 938 q 343 1003 325 1003 q 376 996 365 1003 q 400 965 386 989 q 460 892 411 946 q 483 863 468 881 q 506 835 499 844 q 529 792 524 807 q 535 758 535 776 q 527 738 535 743 q 504 732 519 732 z "},"Ố":{"ha":913,"x_min":69,"x_max":843,"o":"m 196 726 q 156 764 169 726 l 206 807 q 263 859 244 840 q 294 908 281 878 q 321 990 308 938 q 343 1003 325 1003 q 376 996 365 1003 q 400 965 386 989 q 419 939 404 957 l 426 944 q 451 915 451 933 q 449 903 451 911 q 475 873 454 896 q 506 835 496 850 q 529 792 524 807 q 535 758 535 776 q 527 738 535 743 q 504 732 519 732 q 475 750 489 732 q 440 807 461 768 l 411 857 l 360 810 q 271 729 304 763 q 249 732 256 729 q 239 744 242 735 q 196 726 214 726 m 367 921 l 354 889 l 378 907 l 367 921 m 326 658 q 594 608 476 658 q 777 463 711 557 q 843 244 843 368 q 783 107 843 163 q 635 25 722 51 q 469 -1 549 -1 q 263 46 354 -1 q 121 179 172 93 q 69 378 69 265 q 100 518 69 454 q 189 620 131 582 q 326 658 247 658 m 443 71 q 677 113 582 71 q 772 251 772 154 q 642 506 772 421 q 308 592 511 592 q 172 534 211 592 q 132 378 132 476 q 172 226 132 296 q 282 113 211 156 q 443 71 353 71 z "},"Ộ":{"ha":847,"x_min":69,"x_max":843,"o":"m 469 -1 q 263 46 354 -1 q 121 179 172 93 q 69 378 69 265 q 100 518 69 454 q 189 620 131 582 q 326 658 247 658 q 594 608 476 658 q 777 463 711 557 q 843 244 843 368 q 783 107 843 163 q 635 25 722 51 q 469 -1 549 -1 m 443 71 q 677 113 582 71 q 772 251 772 154 q 642 506 772 421 q 308 592 511 592 q 172 534 211 592 q 132 378 132 476 q 172 226 132 296 q 282 113 211 156 q 443 71 353 71 m 481 -237 q 435 -214 450 -237 q 421 -156 421 -190 q 422 -133 421 -140 q 447 -111 421 -111 q 487 -120 467 -111 q 499 -133 507 -129 q 513 -190 513 -169 q 504 -219 513 -208 q 481 -237 496 -229 m 488 756 q 458 774 472 756 q 424 831 444 792 q 350 944 388 897 q 302 851 333 896 q 237 778 271 806 q 179 750 203 750 q 139 788 153 750 l 189 831 q 246 883 228 864 q 278 931 264 901 q 304 1014 292 961 q 326 1026 308 1026 q 359 1019 349 1026 q 383 989 369 1013 q 443 915 394 969 q 467 886 451 904 q 489 858 482 868 q 513 815 507 831 q 518 782 518 800 q 510 761 518 767 q 488 756 503 756 z "},"Ồ":{"ha":913,"x_min":69,"x_max":843,"o":"m 156 764 q 211 813 179 786 q 263 860 251 847 q 246 893 246 879 q 250 904 246 900 q 271 914 260 914 q 294 907 282 914 q 321 990 308 938 q 343 1003 325 1003 q 376 996 365 1003 q 400 965 386 989 q 460 892 411 946 q 483 863 468 881 q 506 835 499 844 q 529 792 524 807 q 535 758 535 776 q 527 738 535 743 q 504 732 519 732 q 475 750 489 732 q 440 807 461 768 q 367 921 404 874 q 344 869 360 900 q 439 785 439 797 q 431 753 439 760 q 400 746 422 746 q 310 814 383 746 q 249 751 281 775 q 196 726 218 726 q 156 764 169 726 m 326 658 q 594 608 476 658 q 777 463 711 557 q 843 244 843 368 q 783 107 843 163 q 635 25 722 51 q 469 -1 549 -1 q 263 46 354 -1 q 121 179 172 93 q 69 378 69 265 q 100 518 69 454 q 189 620 131 582 q 326 658 247 658 m 443 71 q 677 113 582 71 q 772 251 772 154 q 642 506 772 421 q 308 592 511 592 q 172 534 211 592 q 132 378 132 476 q 172 226 132 296 q 282 113 211 156 q 443 71 353 71 z "},"Ổ":{"ha":913,"x_min":69,"x_max":843,"o":"m 196 726 q 156 764 169 726 q 204 806 178 785 q 275 874 256 849 q 269 896 269 883 q 306 936 269 922 q 321 990 308 944 q 343 1003 325 1003 q 376 996 365 1003 q 400 965 386 989 l 413 946 q 472 910 454 936 q 490 856 489 885 l 506 835 q 529 792 524 807 q 535 758 535 776 q 527 738 535 743 q 504 732 519 732 q 481 744 492 732 q 456 779 469 756 q 429 757 454 778 q 386 714 397 732 q 381 697 388 707 q 360 688 375 688 q 332 696 349 688 q 322 708 322 700 q 336 732 322 718 q 368 761 350 746 q 410 800 396 786 q 428 829 424 814 q 385 897 400 876 q 363 899 378 899 l 358 899 q 279 779 329 832 q 196 726 229 726 m 326 658 q 594 608 476 658 q 777 463 711 557 q 843 244 843 368 q 783 107 843 163 q 635 25 722 51 q 469 -1 549 -1 q 263 46 354 -1 q 121 179 172 93 q 69 378 69 265 q 100 518 69 454 q 189 620 131 582 q 326 658 247 658 m 443 71 q 677 113 582 71 q 772 251 772 154 q 642 506 772 421 q 308 592 511 592 q 172 534 211 592 q 132 378 132 476 q 172 226 132 296 q 282 113 211 156 q 443 71 353 71 z "},"Ỗ":{"ha":913,"x_min":69,"x_max":843,"o":"m 138 749 q 110 772 117 753 q 103 814 103 790 q 138 897 103 863 q 219 932 174 932 q 297 915 263 932 q 321 990 313 950 q 343 1003 325 1003 q 376 996 365 1003 q 400 965 386 989 q 430 924 408 950 q 458 892 451 899 q 493 851 483 864 q 551 931 532 872 q 576 926 568 932 q 585 907 585 919 q 582 892 585 903 q 556 838 569 858 q 522 807 542 818 q 535 758 535 782 q 527 738 535 743 q 504 732 519 732 q 478 747 490 732 q 449 790 465 761 q 396 803 419 792 q 326 840 372 814 q 258 759 294 792 q 196 726 221 726 q 160 756 171 726 q 150 748 157 750 q 138 749 143 746 m 367 921 q 351 885 364 914 l 367 875 q 415 850 390 858 q 367 921 385 899 m 229 872 q 174 853 192 871 q 157 799 157 835 q 160 767 157 792 l 203 804 q 268 867 251 846 q 229 872 251 872 m 326 658 q 594 608 476 658 q 777 463 711 557 q 843 244 843 368 q 783 107 843 163 q 635 25 722 51 q 469 -1 549 -1 q 263 46 354 -1 q 121 179 172 93 q 69 378 69 265 q 100 518 69 454 q 189 620 131 582 q 326 658 247 658 m 443 71 q 677 113 582 71 q 772 251 772 154 q 642 506 772 421 q 308 592 511 592 q 172 534 211 592 q 132 378 132 476 q 172 226 132 296 q 282 113 211 156 q 443 71 353 71 z "},"Ȍ":{"ha":913,"x_min":69,"x_max":843,"o":"m 281 754 q 171 843 263 754 q 145 875 151 860 q 146 897 139 890 q 164 906 153 906 q 224 872 185 906 q 271 835 226 869 q 315 790 315 800 q 308 760 315 767 q 281 754 300 754 m 418 754 q 308 843 400 754 q 283 875 289 860 q 283 897 276 890 q 301 906 290 906 q 361 872 322 906 q 408 835 364 869 q 453 790 453 800 q 445 760 453 767 q 418 754 438 754 m 469 -1 q 263 46 354 -1 q 121 179 172 93 q 69 378 69 265 q 100 518 69 454 q 189 620 131 582 q 326 658 247 658 q 594 608 476 658 q 777 463 711 557 q 843 244 843 368 q 783 107 843 163 q 635 25 722 51 q 469 -1 549 -1 m 443 71 q 677 113 582 71 q 772 251 772 154 q 642 506 772 421 q 308 592 511 592 q 172 534 211 592 q 132 378 132 476 q 172 226 132 296 q 282 113 211 156 q 443 71 353 71 z "},"Ö":{"ha":913,"x_min":69,"x_max":843,"o":"m 469 -1 q 263 46 354 -1 q 121 179 172 93 q 69 378 69 265 q 100 518 69 454 q 189 620 131 582 q 326 658 247 658 q 594 608 476 658 q 777 463 711 557 q 843 244 843 368 q 783 107 843 163 q 635 25 722 51 q 469 -1 549 -1 m 443 71 q 677 113 582 71 q 772 251 772 154 q 642 506 772 421 q 308 592 511 592 q 172 534 211 592 q 132 378 132 476 q 172 226 132 296 q 282 113 211 156 q 443 71 353 71 m 231 746 q 185 769 204 746 q 165 811 165 792 q 188 851 165 824 q 224 879 211 879 q 285 856 264 879 q 306 804 306 832 q 281 766 306 786 q 231 746 257 746 m 449 746 q 401 769 419 746 q 383 811 383 792 q 406 851 383 824 q 443 879 429 879 q 501 856 481 879 q 522 804 522 832 q 498 766 522 786 q 449 746 474 746 z "},"Ȫ":{"ha":913,"x_min":69,"x_max":843,"o":"m 469 -1 q 263 46 354 -1 q 121 179 172 93 q 69 378 69 265 q 100 518 69 454 q 189 620 131 582 q 326 658 247 658 q 594 608 476 658 q 777 463 711 557 q 843 244 843 368 q 783 107 843 163 q 635 25 722 51 q 469 -1 549 -1 m 443 71 q 677 113 582 71 q 772 251 772 154 q 642 506 772 421 q 308 592 511 592 q 172 534 211 592 q 132 378 132 476 q 172 226 132 296 q 282 113 211 156 q 443 71 353 71 m 231 746 q 185 769 204 746 q 165 811 165 792 q 188 851 165 824 q 224 879 211 879 q 285 856 264 879 q 306 804 306 832 q 281 766 306 786 q 231 746 257 746 m 449 746 q 401 769 419 746 q 383 811 383 792 q 406 851 383 824 q 443 879 429 879 q 501 856 481 879 q 522 804 522 832 q 498 766 522 786 q 449 746 474 746 m 165 933 q 193 989 165 971 q 258 1012 221 1007 q 368 1019 294 1017 q 453 1022 438 1022 q 510 1013 496 1022 q 524 975 524 1004 q 499 947 524 947 q 446 954 474 947 q 421 958 439 956 q 386 961 403 961 q 328 958 351 961 q 275 947 304 954 q 165 933 217 933 z "},"Ȱ":{"ha":913,"x_min":69,"x_max":843,"o":"m 469 -1 q 263 46 354 -1 q 121 179 172 93 q 69 378 69 265 q 100 518 69 454 q 189 620 131 582 q 326 658 247 658 q 594 608 476 658 q 777 463 711 557 q 843 244 843 368 q 783 107 843 163 q 635 25 722 51 q 469 -1 549 -1 m 443 71 q 677 113 582 71 q 772 251 772 154 q 642 506 772 421 q 308 592 511 592 q 172 534 211 592 q 132 378 132 476 q 172 226 132 296 q 282 113 211 156 q 443 71 353 71 m 358 764 q 313 788 328 764 q 299 846 299 811 q 300 868 299 861 q 325 890 299 890 q 365 881 344 890 q 376 868 385 872 q 390 811 390 832 q 382 783 390 793 q 358 764 374 772 m 165 943 q 193 999 165 981 q 258 1022 221 1017 q 368 1029 294 1026 q 453 1032 438 1032 q 510 1023 496 1032 q 524 985 524 1014 q 499 957 524 957 q 446 964 474 957 q 421 968 439 965 q 386 971 403 971 q 328 967 351 971 q 275 957 304 964 q 165 943 217 943 z "},"Ọ":{"ha":913,"x_min":69,"x_max":843,"o":"m 469 -1 q 263 46 354 -1 q 121 179 172 93 q 69 378 69 265 q 100 518 69 454 q 189 620 131 582 q 326 658 247 658 q 594 608 476 658 q 777 463 711 557 q 843 244 843 368 q 783 107 843 163 q 635 25 722 51 q 469 -1 549 -1 m 443 71 q 677 113 582 71 q 772 251 772 154 q 642 506 772 421 q 308 592 511 592 q 172 534 211 592 q 132 378 132 476 q 172 226 132 296 q 282 113 211 156 q 443 71 353 71 m 481 -237 q 435 -214 450 -237 q 421 -156 421 -190 q 422 -133 421 -140 q 447 -111 421 -111 q 487 -120 467 -111 q 499 -133 507 -129 q 513 -190 513 -169 q 504 -219 513 -208 q 481 -237 496 -229 z "},"Ò":{"ha":913,"x_min":69,"x_max":843,"o":"m 469 -1 q 263 46 354 -1 q 121 179 172 93 q 69 378 69 265 q 100 518 69 454 q 189 620 131 582 q 326 658 247 658 q 594 608 476 658 q 777 463 711 557 q 843 244 843 368 q 783 107 843 163 q 635 25 722 51 q 469 -1 549 -1 m 443 71 q 677 113 582 71 q 772 251 772 154 q 642 506 772 421 q 308 592 511 592 q 172 534 211 592 q 132 378 132 476 q 172 226 132 296 q 282 113 211 156 q 443 71 353 71 m 400 746 q 278 844 379 746 q 250 881 257 864 q 250 904 243 897 q 271 914 260 914 q 336 876 294 914 q 389 835 339 874 q 439 785 439 796 q 431 753 439 760 q 400 746 422 746 z "},"Ỏ":{"ha":913,"x_min":69,"x_max":843,"o":"m 469 -1 q 263 46 354 -1 q 121 179 172 93 q 69 378 69 265 q 100 518 69 454 q 189 620 131 582 q 326 658 247 658 q 594 608 476 658 q 777 463 711 557 q 843 244 843 368 q 783 107 843 163 q 635 25 722 51 q 469 -1 549 -1 m 443 71 q 677 113 582 71 q 772 251 772 154 q 642 506 772 421 q 308 592 511 592 q 172 534 211 592 q 132 378 132 476 q 172 226 132 296 q 282 113 211 156 q 443 71 353 71 m 332 696 q 322 708 322 700 q 336 731 322 717 q 367 760 350 744 q 413 803 396 785 q 429 840 429 822 q 417 883 429 868 q 363 899 404 899 q 324 889 344 899 q 293 863 303 879 q 276 873 282 864 q 269 896 269 882 q 305 936 269 922 q 374 950 340 950 q 464 919 438 950 q 490 851 490 889 q 475 801 490 821 q 429 757 460 782 q 403 736 415 747 q 386 714 392 725 q 381 697 388 707 q 360 688 375 688 q 332 696 349 688 z "},"Ơ":{"ha":913,"x_min":69,"x_max":843,"o":"m 667 568 q 797 431 750 514 q 843 244 843 347 q 783 107 843 163 q 635 25 722 51 q 469 -1 549 -1 q 263 46 354 -1 q 121 179 172 93 q 69 378 69 265 q 100 518 69 454 q 189 620 131 582 q 326 658 247 658 q 575 615 463 658 q 642 634 614 617 q 669 681 669 651 q 663 710 669 693 q 674 721 665 717 q 696 724 682 725 q 728 713 717 722 q 740 692 740 703 q 720 621 740 653 q 667 568 700 589 m 443 71 q 677 113 582 71 q 772 251 772 154 q 642 506 772 421 q 308 592 511 592 q 172 534 211 592 q 132 378 132 476 q 172 226 132 296 q 282 113 211 156 q 443 71 353 71 z "},"Ớ":{"ha":913,"x_min":69,"x_max":843,"o":"m 667 568 q 797 431 750 514 q 843 244 843 347 q 783 107 843 163 q 635 25 722 51 q 469 -1 549 -1 q 263 46 354 -1 q 121 179 172 93 q 69 378 69 265 q 100 518 69 454 q 189 620 131 582 q 326 658 247 658 q 575 615 463 658 q 642 634 614 617 q 669 681 669 651 q 663 710 669 693 q 674 721 665 717 q 696 724 682 725 q 728 713 717 722 q 740 692 740 703 q 720 621 740 653 q 667 568 700 589 m 443 71 q 677 113 582 71 q 772 251 772 154 q 642 506 772 421 q 308 592 511 592 q 172 534 211 592 q 132 378 132 476 q 172 226 132 296 q 282 113 211 156 q 443 71 353 71 m 271 729 q 244 735 250 729 q 238 761 238 740 q 282 829 238 789 q 396 921 326 869 l 426 944 q 451 915 451 932 q 431 876 451 899 q 364 814 411 854 q 271 729 308 767 z "},"Ợ":{"ha":913,"x_min":69,"x_max":843,"o":"m 667 568 q 797 431 750 514 q 843 244 843 347 q 783 107 843 163 q 635 25 722 51 q 469 -1 549 -1 q 263 46 354 -1 q 121 179 172 93 q 69 378 69 265 q 100 518 69 454 q 189 620 131 582 q 326 658 247 658 q 575 615 463 658 q 642 634 614 617 q 669 681 669 651 q 663 710 669 693 q 674 721 665 717 q 696 724 682 725 q 728 713 717 722 q 740 692 740 703 q 720 621 740 653 q 667 568 700 589 m 443 71 q 677 113 582 71 q 772 251 772 154 q 642 506 772 421 q 308 592 511 592 q 172 534 211 592 q 132 378 132 476 q 172 226 132 296 q 282 113 211 156 q 443 71 353 71 m 481 -237 q 435 -214 450 -237 q 421 -156 421 -190 q 422 -133 421 -140 q 447 -111 421 -111 q 487 -120 467 -111 q 499 -133 507 -129 q 513 -190 513 -169 q 504 -219 513 -208 q 481 -237 496 -229 z "},"Ờ":{"ha":913,"x_min":69,"x_max":843,"o":"m 667 568 q 797 431 750 514 q 843 244 843 347 q 783 107 843 163 q 635 25 722 51 q 469 -1 549 -1 q 263 46 354 -1 q 121 179 172 93 q 69 378 69 265 q 100 518 69 454 q 189 620 131 582 q 326 658 247 658 q 575 615 463 658 q 642 634 614 617 q 669 681 669 651 q 663 710 669 693 q 674 721 665 717 q 696 724 682 725 q 728 713 717 722 q 740 692 740 703 q 720 621 740 653 q 667 568 700 589 m 443 71 q 677 113 582 71 q 772 251 772 154 q 642 506 772 421 q 308 592 511 592 q 172 534 211 592 q 132 378 132 476 q 172 226 132 296 q 282 113 211 156 q 443 71 353 71 m 400 746 q 278 844 379 746 q 250 881 257 864 q 250 904 243 897 q 271 914 260 914 q 336 876 294 914 q 389 835 339 874 q 439 785 439 796 q 431 753 439 760 q 400 746 422 746 z "},"Ở":{"ha":913,"x_min":69,"x_max":843,"o":"m 667 568 q 797 431 750 514 q 843 244 843 347 q 783 107 843 163 q 635 25 722 51 q 469 -1 549 -1 q 263 46 354 -1 q 121 179 172 93 q 69 378 69 265 q 100 518 69 454 q 189 620 131 582 q 326 658 247 658 q 575 615 463 658 q 642 634 614 617 q 669 681 669 651 q 663 710 669 693 q 674 721 665 717 q 696 724 682 725 q 728 713 717 722 q 740 692 740 703 q 720 621 740 653 q 667 568 700 589 m 443 71 q 677 113 582 71 q 772 251 772 154 q 642 506 772 421 q 308 592 511 592 q 172 534 211 592 q 132 378 132 476 q 172 226 132 296 q 282 113 211 156 q 443 71 353 71 m 332 696 q 322 708 322 700 q 336 731 322 717 q 367 760 350 744 q 413 803 396 785 q 429 840 429 822 q 417 883 429 868 q 363 899 404 899 q 324 889 344 899 q 293 863 303 879 q 276 873 282 864 q 269 896 269 882 q 305 936 269 922 q 374 950 340 950 q 464 919 438 950 q 490 851 490 889 q 475 801 490 821 q 429 757 460 782 q 403 736 415 747 q 386 714 392 725 q 381 697 388 707 q 360 688 375 688 q 332 696 349 688 z "},"Ỡ":{"ha":913,"x_min":69,"x_max":843,"o":"m 667 568 q 797 431 750 514 q 843 244 843 347 q 783 107 843 163 q 635 25 722 51 q 469 -1 549 -1 q 263 46 354 -1 q 121 179 172 93 q 69 378 69 265 q 100 518 69 454 q 189 620 131 582 q 326 658 247 658 q 575 615 463 658 q 642 634 614 617 q 669 681 669 651 q 663 710 669 693 q 674 721 665 717 q 696 724 682 725 q 728 713 717 722 q 740 692 740 703 q 720 621 740 653 q 667 568 700 589 m 443 71 q 677 113 582 71 q 772 251 772 154 q 642 506 772 421 q 308 592 511 592 q 172 534 211 592 q 132 378 132 476 q 172 226 132 296 q 282 113 211 156 q 443 71 353 71 m 110 772 q 103 814 103 790 q 138 897 103 863 q 219 932 174 932 q 288 920 257 932 q 367 875 318 908 q 454 843 414 843 q 514 867 489 843 q 551 931 539 890 q 576 926 568 932 q 585 907 585 919 q 582 892 585 903 q 548 828 567 850 q 499 797 529 807 q 457 790 475 790 q 404 801 429 790 q 339 833 379 811 q 281 863 304 853 q 233 872 257 872 q 175 854 193 872 q 157 799 157 836 q 160 764 157 789 l 160 760 q 152 749 160 751 q 138 749 144 746 q 110 772 117 753 z "},"Ő":{"ha":913,"x_min":69,"x_max":843,"o":"m 469 -1 q 263 46 354 -1 q 121 179 172 93 q 69 378 69 265 q 100 518 69 454 q 189 620 131 582 q 326 658 247 658 q 594 608 476 658 q 777 463 711 557 q 843 244 843 368 q 783 107 843 163 q 635 25 722 51 q 469 -1 549 -1 m 443 71 q 677 113 582 71 q 772 251 772 154 q 642 506 772 421 q 308 592 511 592 q 172 534 211 592 q 132 378 132 476 q 172 226 132 296 q 282 113 211 156 q 443 71 353 71 m 219 776 q 192 783 199 776 q 185 810 185 789 q 206 872 185 849 q 271 922 228 894 q 313 950 285 931 q 349 917 349 933 q 335 888 349 904 q 281 835 321 872 l 219 776 m 374 756 q 347 762 354 756 q 340 788 340 768 q 362 851 340 826 q 426 903 383 875 q 467 931 446 915 q 495 913 486 921 q 504 896 504 906 q 490 869 504 885 q 442 821 476 853 q 374 756 403 785 z "},"Ȏ":{"ha":913,"x_min":69,"x_max":843,"o":"m 469 -1 q 263 46 354 -1 q 121 179 172 93 q 69 378 69 265 q 100 518 69 454 q 189 620 131 582 q 326 658 247 658 q 594 608 476 658 q 777 463 711 557 q 843 244 843 368 q 783 107 843 163 q 635 25 722 51 q 469 -1 549 -1 m 443 71 q 677 113 582 71 q 772 251 772 154 q 642 506 772 421 q 308 592 511 592 q 172 534 211 592 q 132 378 132 476 q 172 226 132 296 q 282 113 211 156 q 443 71 353 71 m 347 904 q 471 869 417 904 q 525 781 525 833 q 515 757 525 767 q 486 746 504 747 l 482 746 q 461 767 457 746 q 463 779 463 771 q 432 830 463 811 q 353 849 401 849 q 276 835 308 849 q 244 794 244 821 q 235 785 244 789 q 215 782 226 782 q 186 792 188 782 q 232 873 186 842 q 347 904 278 904 z "},"Ō":{"ha":913,"x_min":69,"x_max":843,"o":"m 469 -1 q 263 46 354 -1 q 121 179 172 93 q 69 378 69 265 q 100 518 69 454 q 189 620 131 582 q 326 658 247 658 q 594 608 476 658 q 777 463 711 557 q 843 244 843 368 q 783 107 843 163 q 635 25 722 51 q 469 -1 549 -1 m 443 71 q 677 113 582 71 q 772 251 772 154 q 642 506 772 421 q 308 592 511 592 q 172 534 211 592 q 132 378 132 476 q 172 226 132 296 q 282 113 211 156 q 443 71 353 71 m 165 797 q 193 853 165 835 q 258 876 221 871 q 368 883 294 881 q 453 886 438 886 q 510 877 496 886 q 524 839 524 868 q 499 811 524 811 q 446 818 474 811 q 421 822 439 819 q 386 825 403 825 q 328 822 351 825 q 275 811 304 818 q 165 797 217 797 z "},"Ǫ":{"ha":913,"x_min":69,"x_max":843,"o":"m 843 244 q 806 133 843 181 q 704 53 768 85 l 706 50 q 576 -72 576 0 q 597 -119 576 -100 q 664 -137 617 -137 q 783 -117 708 -137 q 780 -147 786 -132 q 763 -167 774 -162 q 661 -186 713 -186 q 551 -153 594 -186 q 508 -74 508 -121 q 535 3 508 -32 q 469 -1 500 -1 q 263 46 354 -1 q 121 179 172 93 q 69 378 69 265 q 100 518 69 454 q 189 620 131 582 q 326 658 247 658 q 594 608 476 658 q 777 463 711 557 q 843 244 843 368 m 443 71 q 677 113 582 71 q 772 251 772 154 q 642 506 772 421 q 308 592 511 592 q 172 534 211 592 q 132 378 132 476 q 172 226 132 296 q 282 113 211 156 q 443 71 353 71 z "},"Ø":{"ha":913,"x_min":69,"x_max":843,"o":"m 644 582 q 791 441 739 528 q 843 244 843 354 q 783 107 843 163 q 635 25 722 51 q 469 -1 549 -1 q 272 42 361 -1 q 167 -51 188 -57 q 148 -35 154 -47 q 142 -10 142 -24 q 143 4 142 0 q 199 89 150 31 q 103 214 138 140 q 69 378 69 288 q 100 518 69 454 q 189 620 131 582 q 326 658 247 658 q 581 613 471 658 q 664 706 625 703 q 682 678 682 697 q 671 638 682 667 q 644 582 665 622 m 132 379 q 161 246 132 308 q 243 140 190 183 l 276 175 l 549 550 l 550 553 q 308 592 446 592 q 132 379 132 592 m 443 71 q 677 113 582 71 q 772 251 772 154 q 611 525 772 436 q 474 313 557 433 q 317 96 390 192 q 443 71 378 71 z "},"Ǿ":{"ha":913,"x_min":69,"x_max":843,"o":"m 644 582 q 791 441 739 528 q 843 244 843 354 q 783 107 843 163 q 635 25 722 51 q 469 -1 549 -1 q 272 42 361 -1 q 167 -51 188 -57 q 148 -35 154 -47 q 142 -10 142 -24 q 143 4 142 0 q 199 89 150 31 q 103 214 138 140 q 69 378 69 288 q 100 518 69 454 q 189 620 131 582 q 326 658 247 658 q 581 613 471 658 q 664 706 625 703 q 682 678 682 697 q 671 638 682 667 q 644 582 665 622 m 132 379 q 161 246 132 308 q 243 140 190 183 l 276 175 l 549 550 l 550 553 q 308 592 446 592 q 132 379 132 592 m 443 71 q 677 113 582 71 q 772 251 772 154 q 611 525 772 436 q 474 313 557 433 q 317 96 390 192 q 443 71 378 71 m 271 729 q 244 735 250 729 q 238 761 238 740 q 282 829 238 789 q 396 921 326 869 l 426 944 q 451 915 451 932 q 431 876 451 899 q 364 814 411 854 q 271 729 308 767 z "},"Õ":{"ha":847,"x_min":69,"x_max":843,"o":"m 469 -1 q 263 46 354 -1 q 121 179 172 93 q 69 378 69 265 q 100 518 69 454 q 189 620 131 582 q 326 658 247 658 q 594 608 476 658 q 777 463 711 557 q 843 244 843 368 q 783 107 843 163 q 635 25 722 51 q 469 -1 549 -1 m 443 71 q 677 113 582 71 q 772 251 772 154 q 642 506 772 421 q 308 592 511 592 q 172 534 211 592 q 132 378 132 476 q 172 226 132 296 q 282 113 211 156 q 443 71 353 71 m 122 746 q 115 788 115 764 q 151 871 115 836 q 232 906 186 906 q 300 894 269 906 q 379 849 331 882 q 467 817 426 817 q 526 840 501 817 q 564 904 551 864 q 589 899 581 906 q 597 881 597 893 q 594 865 597 876 q 560 802 579 824 q 511 771 542 781 q 469 764 488 764 q 417 774 442 764 q 351 807 392 785 q 293 836 317 826 q 246 846 269 846 q 188 828 206 846 q 169 772 169 810 q 172 738 169 763 l 172 733 q 165 722 172 725 q 150 722 157 719 q 122 746 129 726 z "},"Ȭ":{"ha":913,"x_min":69,"x_max":843,"o":"m 469 -1 q 263 46 354 -1 q 121 179 172 93 q 69 378 69 265 q 100 518 69 454 q 189 620 131 582 q 326 658 247 658 q 594 608 476 658 q 777 463 711 557 q 843 244 843 368 q 783 107 843 163 q 635 25 722 51 q 469 -1 549 -1 m 443 71 q 677 113 582 71 q 772 251 772 154 q 642 506 772 421 q 308 592 511 592 q 172 534 211 592 q 132 378 132 476 q 172 226 132 296 q 282 113 211 156 q 443 71 353 71 m 110 772 q 103 814 103 790 q 138 897 103 863 q 219 932 174 932 q 288 920 257 932 q 367 875 318 908 q 454 843 414 843 q 514 867 489 843 q 551 931 539 890 q 576 926 568 932 q 585 907 585 919 q 582 892 585 903 q 548 828 567 850 q 499 797 529 807 q 457 790 475 790 q 404 801 429 790 q 339 833 379 811 q 281 863 304 853 q 233 872 257 872 q 175 854 193 872 q 157 799 157 836 q 160 764 157 789 l 160 760 q 152 749 160 751 q 138 749 144 746 q 110 772 117 753 m 165 989 q 193 1044 165 1026 q 258 1067 221 1063 q 368 1075 294 1072 q 453 1078 438 1078 q 510 1069 496 1078 q 524 1031 524 1060 q 499 1003 524 1003 q 446 1010 474 1003 q 421 1014 439 1011 q 386 1017 403 1017 q 328 1013 351 1017 q 275 1003 304 1010 q 165 989 217 989 z "},"Œ":{"ha":1179,"x_min":21,"x_max":1157,"o":"m 733 1 q 610 17 657 1 q 539 72 563 33 q 481 28 518 43 q 371 3 443 13 q 192 51 271 3 q 70 185 114 99 q 26 382 26 271 q 53 528 21 460 q 147 636 86 596 q 283 676 208 676 q 439 637 381 676 q 533 531 497 597 l 533 615 q 547 648 533 640 q 608 656 560 656 l 692 654 q 957 650 875 650 l 1056 650 q 1114 624 1096 635 q 1132 590 1132 614 q 1128 583 1132 588 q 1121 579 1124 579 l 1056 600 l 601 590 q 593 592 594 590 l 597 576 l 597 389 q 721 403 617 390 q 1039 432 949 432 q 1106 424 1088 432 q 974 348 1106 368 q 657 321 843 328 q 623 319 640 319 q 593 318 606 319 l 593 90 q 674 69 604 69 l 726 71 q 835 75 776 71 q 911 81 893 79 q 1096 90 1018 90 q 1143 86 1129 90 q 1157 72 1157 82 q 1039 15 1157 29 q 779 1 921 1 l 733 1 m 344 75 q 481 133 439 75 q 521 292 524 190 q 487 492 518 424 q 409 583 456 561 q 297 606 363 606 q 133 536 176 606 q 89 382 89 467 q 125 232 89 303 q 221 118 161 161 q 344 75 281 75 z "},"P":{"ha":721,"x_min":28,"x_max":696,"o":"m 253 56 q 213 269 226 161 q 188 624 199 376 q 199 653 188 640 q 226 665 211 665 l 239 665 q 249 518 246 619 q 251 444 249 507 q 265 325 254 381 q 523 388 426 340 q 619 522 619 435 q 522 701 619 632 q 229 771 425 771 q 90 740 147 771 q 76 723 81 736 q 69 686 72 710 q 63 649 67 661 q 47 636 58 636 q 31 655 35 636 q 28 742 28 674 q 81 803 28 781 q 217 825 133 825 q 578 749 460 825 q 696 514 696 672 q 628 372 696 429 q 463 288 560 315 q 276 261 365 261 q 282 231 279 244 q 286 207 285 217 q 306 61 306 113 q 298 13 306 31 q 265 0 290 -6 l 253 56 z "},"Þ":{"ha":690,"x_min":79,"x_max":665,"o":"m 183 -217 q 156 -219 161 -219 q 124 -212 136 -219 q 107 -187 113 -204 l 79 417 l 79 844 q 97 853 83 853 q 128 845 110 853 q 158 829 146 838 l 154 421 q 226 467 183 451 q 318 482 268 482 q 481 444 400 482 q 613 338 561 406 q 665 185 665 269 q 595 51 665 99 q 424 3 525 3 q 281 29 350 3 q 167 108 213 56 l 183 -217 m 588 182 q 544 312 588 258 q 441 392 501 365 q 331 419 381 419 q 156 267 156 419 q 199 171 156 214 q 310 103 243 128 q 440 79 376 79 q 547 105 506 79 q 588 182 588 131 z "},"Q":{"ha":893,"x_min":33,"x_max":908,"o":"m 908 -129 q 860 -150 886 -150 q 769 -111 821 -150 q 611 26 718 -72 q 569 19 596 24 q 514 11 542 15 l 450 1 q 417 0 439 0 q 224 52 311 0 q 85 192 136 104 q 33 379 33 279 q 71 553 33 475 q 172 674 108 631 q 308 718 235 718 q 576 649 450 718 q 779 474 703 581 q 856 263 856 368 q 809 151 856 203 q 686 58 763 100 q 806 -32 742 11 q 876 -83 853 -62 q 908 -129 900 -104 m 407 90 q 467 93 439 90 q 533 103 494 96 q 444 212 474 168 q 414 285 414 256 q 435 322 414 308 q 485 292 458 322 q 554 200 513 261 q 610 124 590 143 q 740 182 690 144 q 789 271 789 219 q 731 442 789 356 q 566 585 672 528 q 325 643 460 643 q 168 569 225 643 q 111 379 111 494 q 145 231 106 297 q 255 128 185 165 q 407 90 325 90 z "},"R":{"ha":768,"x_min":26,"x_max":768,"o":"m 756 -47 q 728 -58 746 -58 q 520 62 663 -58 q 268 301 378 182 q 294 175 275 264 q 309 108 303 140 q 315 58 315 76 q 286 10 315 18 q 249 100 279 -8 q 194 351 219 208 q 168 589 168 493 q 176 668 168 638 q 207 682 194 682 q 242 640 232 682 q 260 507 251 597 l 263 475 q 410 499 317 478 q 578 556 504 519 q 653 644 653 593 q 613 706 653 672 q 492 764 574 740 q 293 788 411 788 l 249 788 q 125 762 169 788 q 81 653 81 736 q 43 679 60 653 q 26 728 26 706 q 109 840 26 814 q 347 867 192 867 q 518 840 429 867 q 668 758 607 814 q 729 618 729 701 q 678 524 729 561 q 560 465 628 486 q 393 422 492 444 q 286 396 311 404 q 492 171 393 251 q 700 25 592 90 q 753 -8 738 3 q 768 -29 768 -19 q 756 -47 768 -39 z "},"Ŕ":{"ha":768,"x_min":26,"x_max":768,"o":"m 756 -47 q 728 -58 746 -58 q 520 62 663 -58 q 268 301 378 182 q 294 175 275 264 q 309 108 303 140 q 315 58 315 76 q 286 10 315 18 q 249 100 279 -8 q 194 351 219 208 q 168 589 168 493 q 176 668 168 638 q 207 682 194 682 q 242 640 232 682 q 260 507 251 597 l 263 475 q 410 499 317 478 q 578 556 504 519 q 653 644 653 593 q 613 706 653 672 q 492 764 574 740 q 293 788 411 788 l 249 788 q 125 762 169 788 q 81 653 81 736 q 43 679 60 653 q 26 728 26 706 q 109 840 26 814 q 347 867 192 867 q 518 840 429 867 q 668 758 607 814 q 729 618 729 701 q 678 524 729 561 q 560 465 628 486 q 393 422 492 444 q 286 396 311 404 q 492 171 393 251 q 700 25 592 90 q 753 -8 738 3 q 768 -29 768 -19 q 756 -47 768 -39 m 249 935 q 222 940 228 935 q 215 967 215 946 q 260 1035 215 994 q 374 1126 304 1075 l 404 1150 q 429 1121 429 1138 q 409 1082 429 1104 q 342 1019 389 1060 q 249 935 286 972 z "},"Ř":{"ha":768,"x_min":26,"x_max":768,"o":"m 756 -47 q 728 -58 746 -58 q 520 62 663 -58 q 268 301 378 182 q 294 175 275 264 q 309 108 303 140 q 315 58 315 76 q 286 10 315 18 q 249 100 279 -8 q 194 351 219 208 q 168 589 168 493 q 176 668 168 638 q 207 682 194 682 q 242 640 232 682 q 260 507 251 597 l 263 475 q 410 499 317 478 q 578 556 504 519 q 653 644 653 593 q 613 706 653 672 q 492 764 574 740 q 293 788 411 788 l 249 788 q 125 762 169 788 q 81 653 81 736 q 43 679 60 653 q 26 728 26 706 q 109 840 26 814 q 347 867 192 867 q 518 840 429 867 q 668 758 607 814 q 729 618 729 701 q 678 524 729 561 q 560 465 628 486 q 393 422 492 444 q 286 396 311 404 q 492 171 393 251 q 700 25 592 90 q 753 -8 738 3 q 768 -29 768 -19 q 756 -47 768 -39 m 325 936 q 300 943 306 936 q 260 1003 282 986 q 186 1047 239 1021 q 135 1074 144 1068 q 181 1103 150 1103 q 260 1074 215 1103 q 343 1004 306 1046 q 389 1040 358 1015 q 447 1085 425 1071 q 482 1100 469 1100 q 503 1094 499 1100 q 508 1076 508 1089 q 506 1058 508 1064 q 495 1046 503 1053 q 482 1033 488 1039 q 455 1013 474 1025 q 429 996 436 1000 q 378 958 390 971 q 354 941 364 946 q 325 936 344 936 z "},"Ŗ":{"ha":768,"x_min":26,"x_max":768,"o":"m 756 -47 q 728 -58 746 -58 q 520 62 663 -58 q 268 301 378 182 q 294 175 275 264 q 309 108 303 140 q 315 58 315 76 q 286 10 315 18 q 249 100 279 -8 q 194 351 219 208 q 168 589 168 493 q 176 668 168 638 q 207 682 194 682 q 242 640 232 682 q 260 507 251 597 l 263 475 q 410 499 317 478 q 578 556 504 519 q 653 644 653 593 q 613 706 653 672 q 492 764 574 740 q 293 788 411 788 l 249 788 q 125 762 169 788 q 81 653 81 736 q 43 679 60 653 q 26 728 26 706 q 109 840 26 814 q 347 867 192 867 q 518 840 429 867 q 668 758 607 814 q 729 618 729 701 q 678 524 729 561 q 560 465 628 486 q 393 422 492 444 q 286 396 311 404 q 492 171 393 251 q 700 25 592 90 q 753 -8 738 3 q 768 -29 768 -19 q 756 -47 768 -39 m 376 -487 q 349 -462 349 -487 q 361 -397 349 -435 q 381 -286 381 -344 l 379 -233 l 375 -233 q 356 -227 360 -233 q 351 -208 351 -221 q 400 -142 351 -142 q 447 -173 435 -142 q 458 -253 458 -204 l 457 -299 q 433 -431 457 -374 q 376 -487 410 -487 z "},"Ȑ":{"ha":768,"x_min":26,"x_max":768,"o":"m 258 960 q 149 1049 240 960 q 123 1081 129 1065 q 124 1103 117 1096 q 142 1111 129 1111 q 201 1078 163 1111 q 249 1040 204 1075 q 293 996 293 1006 q 285 966 293 972 q 258 960 278 960 m 396 960 q 286 1049 378 960 q 260 1081 267 1065 q 261 1103 254 1096 q 279 1111 267 1111 q 339 1078 300 1111 q 386 1040 342 1075 q 431 996 431 1006 q 423 966 431 972 q 396 960 415 960 m 756 -47 q 728 -58 746 -58 q 520 62 663 -58 q 268 301 378 182 q 294 175 275 264 q 309 108 303 140 q 315 58 315 76 q 286 10 315 18 q 249 100 279 -8 q 194 351 219 208 q 168 589 168 493 q 176 668 168 638 q 207 682 194 682 q 242 640 232 682 q 260 507 251 597 l 263 475 q 410 499 317 478 q 578 556 504 519 q 653 644 653 593 q 613 706 653 672 q 492 764 574 740 q 293 788 411 788 l 249 788 q 125 762 169 788 q 81 653 81 736 q 43 679 60 653 q 26 728 26 706 q 109 840 26 814 q 347 867 192 867 q 518 840 429 867 q 668 758 607 814 q 729 618 729 701 q 678 524 729 561 q 560 465 628 486 q 393 422 492 444 q 286 396 311 404 q 492 171 393 251 q 700 25 592 90 q 753 -8 738 3 q 768 -29 768 -19 q 756 -47 768 -39 z "},"Ȓ":{"ha":768,"x_min":26,"x_max":768,"o":"m 756 -47 q 728 -58 746 -58 q 520 62 663 -58 q 268 301 378 182 q 294 175 275 264 q 309 108 303 140 q 315 58 315 76 q 286 10 315 18 q 249 100 279 -8 q 194 351 219 208 q 168 589 168 493 q 176 668 168 638 q 207 682 194 682 q 242 640 232 682 q 260 507 251 597 l 263 475 q 410 499 317 478 q 578 556 504 519 q 653 644 653 593 q 613 706 653 672 q 492 764 574 740 q 293 788 411 788 l 249 788 q 125 762 169 788 q 81 653 81 736 q 43 679 60 653 q 26 728 26 706 q 109 840 26 814 q 347 867 192 867 q 518 840 429 867 q 668 758 607 814 q 729 618 729 701 q 678 524 729 561 q 560 465 628 486 q 393 422 492 444 q 286 396 311 404 q 492 171 393 251 q 700 25 592 90 q 753 -8 738 3 q 768 -29 768 -19 q 756 -47 768 -39 m 325 1110 q 449 1074 394 1110 q 503 986 503 1039 q 492 963 503 972 q 464 951 482 953 l 460 951 q 439 972 435 951 q 440 985 440 976 q 410 1035 440 1017 q 331 1054 379 1054 q 254 1040 286 1054 q 222 1000 222 1026 q 213 991 222 994 q 193 988 204 988 q 164 997 165 988 q 210 1078 164 1047 q 325 1110 256 1110 z "},"S":{"ha":892,"x_min":56,"x_max":836,"o":"m 508 53 q 685 85 622 53 q 747 178 747 117 q 710 272 747 232 q 617 339 672 311 q 465 404 561 367 q 425 419 457 407 q 224 525 294 472 q 154 661 154 578 q 228 801 154 754 q 417 849 301 849 q 573 827 501 849 q 687 768 644 806 q 729 683 729 731 q 697 675 713 675 q 663 683 681 675 q 613 708 646 690 q 511 755 558 738 q 400 772 464 772 q 269 744 319 772 q 219 667 219 717 q 253 596 219 628 q 340 540 288 564 q 479 482 392 515 q 663 401 590 439 q 785 306 735 364 q 836 169 836 249 q 747 26 836 76 q 526 -25 658 -25 q 321 6 422 -25 q 147 97 219 36 q 56 242 75 157 q 76 306 56 279 q 128 333 97 333 q 178 180 128 243 q 316 85 229 117 q 508 53 403 53 z "},"Ś":{"ha":892,"x_min":56,"x_max":836,"o":"m 508 53 q 685 85 622 53 q 747 178 747 117 q 710 272 747 232 q 617 339 672 311 q 465 404 561 367 q 425 419 457 407 q 224 525 294 472 q 154 661 154 578 q 228 801 154 754 q 417 849 301 849 q 573 827 501 849 q 687 768 644 806 q 729 683 729 731 q 697 675 713 675 q 663 683 681 675 q 613 708 646 690 q 511 755 558 738 q 400 772 464 772 q 269 744 319 772 q 219 667 219 717 q 253 596 219 628 q 340 540 288 564 q 479 482 392 515 q 663 401 590 439 q 785 306 735 364 q 836 169 836 249 q 747 26 836 76 q 526 -25 658 -25 q 321 6 422 -25 q 147 97 219 36 q 56 242 75 157 q 76 306 56 279 q 128 333 97 333 q 178 180 128 243 q 316 85 229 117 q 508 53 403 53 m 378 910 q 351 915 357 910 q 344 942 344 921 q 389 1010 344 969 q 503 1101 433 1050 l 533 1125 q 558 1096 558 1113 q 538 1057 558 1079 q 471 994 518 1035 q 378 910 415 947 z "},"Š":{"ha":892,"x_min":56,"x_max":836,"o":"m 508 53 q 685 85 622 53 q 747 178 747 117 q 710 272 747 232 q 617 339 672 311 q 465 404 561 367 q 425 419 457 407 q 224 525 294 472 q 154 661 154 578 q 228 801 154 754 q 417 849 301 849 q 573 827 501 849 q 687 768 644 806 q 729 683 729 731 q 697 675 713 675 q 663 683 681 675 q 613 708 646 690 q 511 755 558 738 q 400 772 464 772 q 269 744 319 772 q 219 667 219 717 q 253 596 219 628 q 340 540 288 564 q 479 482 392 515 q 663 401 590 439 q 785 306 735 364 q 836 169 836 249 q 747 26 836 76 q 526 -25 658 -25 q 321 6 422 -25 q 147 97 219 36 q 56 242 75 157 q 76 306 56 279 q 128 333 97 333 q 178 180 128 243 q 316 85 229 117 q 508 53 403 53 m 454 911 q 429 918 435 911 q 390 978 411 961 q 315 1022 368 996 q 264 1049 274 1043 q 310 1078 279 1078 q 390 1049 344 1078 q 472 979 435 1021 q 518 1015 488 990 q 576 1060 554 1046 q 611 1075 599 1075 q 633 1069 628 1075 q 638 1051 638 1064 q 635 1033 638 1039 q 624 1021 632 1028 q 611 1008 617 1014 q 584 988 603 1000 q 558 971 565 975 q 507 933 519 946 q 483 916 493 921 q 454 911 474 911 z "},"Ş":{"ha":892,"x_min":56,"x_max":836,"o":"m 836 169 q 747 26 836 76 q 526 -25 658 -25 q 432 -18 485 -25 q 458 -86 435 -62 q 532 -125 482 -110 q 625 -170 593 -147 q 657 -242 657 -193 q 633 -315 657 -282 q 572 -367 608 -349 q 500 -385 536 -385 q 308 -251 378 -385 q 329 -237 317 -243 q 354 -232 342 -232 q 381 -242 371 -232 q 406 -274 392 -253 q 442 -321 422 -304 q 501 -337 463 -337 q 560 -316 538 -337 q 583 -258 583 -294 q 566 -201 583 -218 q 524 -176 549 -185 q 490 -162 500 -167 q 408 -110 440 -144 q 372 -8 376 -75 q 165 83 251 18 q 56 242 78 147 q 76 306 56 279 q 128 333 97 333 q 178 180 128 243 q 316 85 229 117 q 508 53 403 53 q 685 85 622 53 q 747 178 747 117 q 710 272 747 232 q 617 339 672 311 q 465 404 561 367 q 425 419 457 407 q 224 525 294 472 q 154 661 154 578 q 228 801 154 754 q 417 849 301 849 q 573 827 501 849 q 687 768 644 806 q 729 683 729 731 q 697 675 713 675 q 663 683 681 675 q 613 708 646 690 q 511 755 558 738 q 400 772 464 772 q 269 744 319 772 q 219 667 219 717 q 253 596 219 628 q 340 540 288 564 q 479 482 392 515 q 663 401 590 439 q 785 306 735 364 q 836 169 836 249 z "},"Ŝ":{"ha":892,"x_min":56,"x_max":836,"o":"m 508 53 q 685 85 622 53 q 747 178 747 117 q 710 272 747 232 q 617 339 672 311 q 465 404 561 367 q 425 419 457 407 q 224 525 294 472 q 154 661 154 578 q 228 801 154 754 q 417 849 301 849 q 573 827 501 849 q 687 768 644 806 q 729 683 729 731 q 697 675 713 675 q 663 683 681 675 q 613 708 646 690 q 511 755 558 738 q 400 772 464 772 q 269 744 319 772 q 219 667 219 717 q 253 596 219 628 q 340 540 288 564 q 479 482 392 515 q 663 401 590 439 q 785 306 735 364 q 836 169 836 249 q 747 26 836 76 q 526 -25 658 -25 q 321 6 422 -25 q 147 97 219 36 q 56 242 75 157 q 76 306 56 279 q 128 333 97 333 q 178 180 128 243 q 316 85 229 117 q 508 53 403 53 m 611 913 q 582 931 596 913 q 547 988 568 949 q 474 1101 511 1054 q 426 1008 457 1053 q 360 935 394 963 q 303 907 326 907 q 263 944 276 907 l 313 988 q 369 1040 351 1021 q 401 1088 388 1058 q 428 1171 415 1118 q 450 1183 432 1183 q 483 1176 472 1183 q 507 1146 493 1169 q 567 1072 518 1126 q 590 1043 575 1061 q 613 1015 606 1025 q 636 972 631 988 q 642 939 642 957 q 634 918 642 924 q 611 913 626 913 z "},"Ș":{"ha":892,"x_min":56,"x_max":836,"o":"m 508 53 q 685 85 622 53 q 747 178 747 117 q 710 272 747 232 q 617 339 672 311 q 465 404 561 367 q 425 419 457 407 q 224 525 294 472 q 154 661 154 578 q 228 801 154 754 q 417 849 301 849 q 573 827 501 849 q 687 768 644 806 q 729 683 729 731 q 697 675 713 675 q 663 683 681 675 q 613 708 646 690 q 511 755 558 738 q 400 772 464 772 q 269 744 319 772 q 219 667 219 717 q 253 596 219 628 q 340 540 288 564 q 479 482 392 515 q 663 401 590 439 q 785 306 735 364 q 836 169 836 249 q 747 26 836 76 q 526 -25 658 -25 q 321 6 422 -25 q 147 97 219 36 q 56 242 75 157 q 76 306 56 279 q 128 333 97 333 q 178 180 128 243 q 316 85 229 117 q 508 53 403 53 m 369 -446 q 342 -421 342 -446 q 354 -356 342 -393 q 374 -244 374 -303 l 372 -192 l 368 -192 q 349 -185 353 -192 q 344 -167 344 -179 q 393 -100 344 -100 q 440 -131 428 -100 q 451 -211 451 -162 l 450 -257 q 426 -389 450 -332 q 369 -446 403 -446 z "},"ẞ":{"ha":715,"x_min":69,"x_max":646,"o":"m 510 417 q 608 328 569 392 q 646 190 646 264 q 602 49 646 99 q 489 0 558 0 q 356 108 378 0 q 373 119 365 117 q 394 121 381 121 q 418 101 406 121 q 446 74 432 83 q 486 64 460 64 q 556 89 535 64 q 578 171 578 114 q 464 363 578 318 q 355 443 389 388 q 321 571 321 499 q 363 718 321 651 q 476 804 404 785 q 417 885 447 863 q 335 907 386 907 q 190 801 239 907 q 142 519 142 696 q 165 335 142 417 q 217 201 188 253 q 286 92 246 149 q 312 54 301 72 q 322 26 322 36 q 299 -1 322 -1 q 203 63 251 -1 q 120 231 156 128 q 75 442 85 335 q 69 549 69 503 q 130 849 69 721 q 342 978 190 978 q 485 924 426 978 q 553 782 544 869 l 553 778 q 528 754 553 758 q 432 695 474 744 q 390 578 390 646 q 510 417 390 454 z "},"Ə":{"ha":806,"x_min":94,"x_max":736,"o":"m 414 963 q 575 902 501 963 q 692 730 649 842 q 736 472 736 618 q 690 235 736 343 q 556 61 644 126 q 343 -4 467 -4 q 160 61 225 -4 q 99 254 94 126 q 153 415 99 346 q 295 523 208 485 q 474 561 382 561 q 565 549 533 561 q 596 501 596 536 q 591 488 596 490 q 565 485 586 485 l 472 486 q 317 458 389 486 q 203 377 246 431 q 161 250 161 324 q 210 108 161 157 q 336 58 258 58 q 500 115 425 58 q 618 267 575 172 q 661 474 661 363 q 628 690 661 596 q 534 837 594 785 q 394 889 474 889 q 306 881 343 889 q 210 856 268 874 q 165 843 199 853 q 97 826 131 833 q 238 930 150 897 q 414 963 326 963 z "},"T":{"ha":796,"x_min":35,"x_max":761,"o":"m 485 -1 q 431 39 446 -1 q 406 147 415 79 l 401 182 q 368 403 381 293 q 343 671 356 514 l 335 774 q 97 781 251 772 l 69 782 q 42 801 50 783 q 35 849 35 818 l 131 849 q 567 831 372 849 q 761 757 761 813 q 756 736 761 742 q 736 731 751 731 q 564 754 681 735 q 500 764 538 758 q 415 775 463 769 q 475 156 415 574 q 494 96 478 135 q 508 60 501 79 q 514 26 514 42 q 508 3 514 7 q 495 -1 503 -1 q 485 -1 488 -1 z "},"Ŧ":{"ha":796,"x_min":35,"x_max":761,"o":"m 131 849 q 567 831 372 849 q 761 757 761 813 q 756 736 761 742 q 736 731 751 731 q 564 754 681 735 q 500 764 538 758 q 415 775 463 769 q 436 453 415 664 q 478 456 450 453 q 521 457 493 457 q 606 446 576 457 q 635 419 635 435 q 608 392 635 392 q 564 399 588 392 q 497 407 531 407 q 442 403 471 407 q 475 156 461 247 q 494 96 478 135 q 508 60 501 79 q 514 26 514 42 q 508 3 514 7 q 495 -1 503 -1 q 485 -1 488 -1 q 431 39 446 -1 q 406 147 415 79 l 401 182 q 369 390 383 274 l 342 385 q 254 368 288 374 q 186 363 221 363 q 232 414 186 394 q 364 444 278 433 q 340 706 347 622 l 335 774 q 97 781 251 772 l 69 782 q 42 801 50 783 q 35 849 35 818 l 131 849 z "},"Ť":{"ha":796,"x_min":35,"x_max":761,"o":"m 485 -1 q 431 39 446 -1 q 406 147 415 79 l 401 182 q 368 403 381 293 q 343 671 356 514 l 335 774 q 97 781 251 772 l 69 782 q 42 801 50 783 q 35 849 35 818 l 131 849 q 567 831 372 849 q 761 757 761 813 q 756 736 761 742 q 736 731 751 731 q 564 754 681 735 q 500 764 538 758 q 415 775 463 769 q 475 156 415 574 q 494 96 478 135 q 508 60 501 79 q 514 26 514 42 q 508 3 514 7 q 495 -1 503 -1 q 485 -1 488 -1 m 379 906 q 354 913 360 906 q 315 973 336 956 q 240 1017 293 990 q 189 1043 199 1038 q 235 1072 204 1072 q 315 1044 269 1072 q 397 974 360 1015 q 443 1010 413 985 q 501 1055 479 1040 q 536 1069 524 1069 q 558 1064 553 1069 q 563 1046 563 1058 q 560 1028 563 1033 q 549 1015 557 1022 q 536 1003 542 1008 q 509 982 528 994 q 483 965 490 969 q 432 928 444 940 q 408 910 418 915 q 379 906 399 906 z "},"Ţ":{"ha":796,"x_min":35,"x_max":761,"o":"m 761 757 q 756 736 761 742 q 736 731 751 731 q 564 754 681 735 q 500 764 538 758 q 415 775 463 769 q 475 156 415 574 q 494 96 478 135 q 508 60 501 79 q 514 26 514 42 q 513 13 514 17 q 521 -21 521 0 q 544 -98 521 -72 q 621 -140 568 -124 q 714 -185 682 -162 q 746 -257 746 -208 q 722 -331 746 -297 q 661 -382 697 -364 q 589 -400 625 -400 q 397 -267 467 -400 q 418 -253 406 -258 q 443 -247 431 -247 q 470 -258 460 -247 q 494 -289 481 -268 q 531 -336 511 -319 q 590 -353 551 -353 q 649 -331 626 -353 q 672 -274 672 -310 q 655 -217 672 -233 q 613 -191 638 -200 q 579 -178 589 -182 q 492 -119 525 -158 q 460 -3 460 -81 l 460 4 q 424 54 435 18 q 406 149 414 90 l 401 182 q 368 403 381 293 q 343 671 356 514 l 335 774 q 97 781 251 772 l 69 782 q 42 801 50 783 q 35 849 35 818 l 131 849 q 567 831 372 849 q 761 757 761 813 z "},"Ț":{"ha":796,"x_min":35,"x_max":761,"o":"m 485 -1 q 431 39 446 -1 q 406 147 415 79 l 401 182 q 368 403 381 293 q 343 671 356 514 l 335 774 q 97 781 251 772 l 69 782 q 42 801 50 783 q 35 849 35 818 l 131 849 q 567 831 372 849 q 761 757 761 813 q 756 736 761 742 q 736 731 751 731 q 564 754 681 735 q 500 764 538 758 q 415 775 463 769 q 475 156 415 574 q 494 96 478 135 q 508 60 501 79 q 514 26 514 42 q 508 3 514 7 q 495 -1 503 -1 q 485 -1 488 -1 m 458 -461 q 431 -436 431 -461 q 443 -371 431 -408 q 463 -260 463 -318 l 461 -207 l 457 -207 q 438 -201 442 -207 q 433 -182 433 -194 q 482 -115 433 -115 q 528 -147 517 -115 q 540 -226 540 -178 l 539 -272 q 515 -404 539 -347 q 458 -461 492 -461 z "},"U":{"ha":878,"x_min":83,"x_max":822,"o":"m 397 -1 q 165 146 233 -1 q 85 529 96 293 q 83 589 83 550 q 103 712 83 668 q 179 756 124 756 q 203 748 194 756 q 211 728 211 740 q 179 676 211 701 q 155 653 161 676 q 149 581 149 629 q 150 510 149 536 q 226 183 158 303 q 415 63 294 63 q 540 96 485 63 q 627 185 596 129 q 658 307 658 242 q 636 467 644 421 q 606 615 628 513 q 596 686 596 656 q 608 731 596 718 q 646 743 621 743 q 669 725 661 743 q 685 654 678 707 q 703 482 692 601 q 730 349 710 414 q 783 199 750 283 q 799 158 786 190 q 817 104 811 125 q 822 71 822 83 q 789 39 822 39 q 707 210 778 39 q 644 99 692 147 q 532 25 597 51 q 397 -1 467 -1 z "},"Ú":{"ha":878,"x_min":83,"x_max":822,"o":"m 397 -1 q 165 146 233 -1 q 85 529 96 293 q 83 589 83 550 q 103 712 83 668 q 179 756 124 756 q 203 748 194 756 q 211 728 211 740 q 179 676 211 701 q 155 653 161 676 q 149 581 149 629 q 150 510 149 536 q 226 183 158 303 q 415 63 294 63 q 540 96 485 63 q 627 185 596 129 q 658 307 658 242 q 636 467 644 421 q 606 615 628 513 q 596 686 596 656 q 608 731 596 718 q 646 743 621 743 q 669 725 661 743 q 685 654 678 707 q 703 482 692 601 q 730 349 710 414 q 783 199 750 283 q 799 158 786 190 q 817 104 811 125 q 822 71 822 83 q 789 39 822 39 q 707 210 778 39 q 644 99 692 147 q 532 25 597 51 q 397 -1 467 -1 m 296 829 q 269 835 275 829 q 263 861 263 840 q 307 929 263 889 q 421 1021 351 969 l 451 1044 q 476 1015 476 1032 q 456 976 476 999 q 389 914 436 954 q 296 829 333 867 z "},"Ŭ":{"ha":878,"x_min":83,"x_max":822,"o":"m 397 -1 q 165 146 233 -1 q 85 529 96 293 q 83 589 83 550 q 103 712 83 668 q 179 756 124 756 q 203 748 194 756 q 211 728 211 740 q 179 676 211 701 q 155 653 161 676 q 149 581 149 629 q 150 510 149 536 q 226 183 158 303 q 415 63 294 63 q 540 96 485 63 q 627 185 596 129 q 658 307 658 242 q 636 467 644 421 q 606 615 628 513 q 596 686 596 656 q 608 731 596 718 q 646 743 621 743 q 669 725 661 743 q 685 654 678 707 q 703 482 692 601 q 730 349 710 414 q 783 199 750 283 q 799 158 786 190 q 817 104 811 125 q 822 71 822 83 q 789 39 822 39 q 707 210 778 39 q 644 99 692 147 q 532 25 597 51 q 397 -1 467 -1 m 361 882 q 246 913 292 882 q 200 994 200 944 q 229 1004 201 1004 q 249 1001 240 1004 q 258 992 258 997 q 290 951 258 965 q 367 938 322 938 q 446 956 415 938 q 476 1007 476 975 q 475 1019 476 1015 l 475 1025 q 496 1040 475 1040 q 527 1030 515 1040 q 539 1006 539 1019 q 485 917 539 953 q 361 882 431 882 z "},"Û":{"ha":878,"x_min":83,"x_max":822,"o":"m 397 -1 q 165 146 233 -1 q 85 529 96 293 q 83 589 83 550 q 103 712 83 668 q 179 756 124 756 q 203 748 194 756 q 211 728 211 740 q 179 676 211 701 q 155 653 161 676 q 149 581 149 629 q 150 510 149 536 q 226 183 158 303 q 415 63 294 63 q 540 96 485 63 q 627 185 596 129 q 658 307 658 242 q 636 467 644 421 q 606 615 628 513 q 596 686 596 656 q 608 731 596 718 q 646 743 621 743 q 669 725 661 743 q 685 654 678 707 q 703 482 692 601 q 730 349 710 414 q 783 199 750 283 q 799 158 786 190 q 817 104 811 125 q 822 71 822 83 q 789 39 822 39 q 707 210 778 39 q 644 99 692 147 q 532 25 597 51 q 397 -1 467 -1 m 529 832 q 500 850 514 832 q 465 907 486 868 q 392 1021 429 974 q 344 927 375 972 q 278 854 313 882 q 221 826 244 826 q 181 864 194 826 l 231 907 q 288 959 269 940 q 319 1008 306 978 q 346 1090 333 1038 q 368 1103 350 1103 q 401 1096 390 1103 q 425 1065 411 1089 q 485 992 436 1046 q 508 963 493 981 q 531 935 524 944 q 554 892 549 907 q 560 858 560 876 q 552 838 560 843 q 529 832 544 832 z "},"Ȕ":{"ha":878,"x_min":83,"x_max":822,"o":"m 306 854 q 196 943 288 854 q 170 975 176 960 q 171 997 164 990 q 189 1006 178 1006 q 249 972 210 1006 q 296 935 251 969 q 340 890 340 900 q 333 860 340 867 q 306 854 325 854 m 443 854 q 333 943 425 854 q 308 975 314 960 q 308 997 301 990 q 326 1006 315 1006 q 386 972 347 1006 q 433 935 389 969 q 478 890 478 900 q 470 860 478 867 q 443 854 463 854 m 397 -1 q 165 146 233 -1 q 85 529 96 293 q 83 589 83 550 q 103 712 83 668 q 179 756 124 756 q 203 748 194 756 q 211 728 211 740 q 179 676 211 701 q 155 653 161 676 q 149 581 149 629 q 150 510 149 536 q 226 183 158 303 q 415 63 294 63 q 540 96 485 63 q 627 185 596 129 q 658 307 658 242 q 636 467 644 421 q 606 615 628 513 q 596 686 596 656 q 608 731 596 718 q 646 743 621 743 q 669 725 661 743 q 685 654 678 707 q 703 482 692 601 q 730 349 710 414 q 783 199 750 283 q 799 158 786 190 q 817 104 811 125 q 822 71 822 83 q 789 39 822 39 q 707 210 778 39 q 644 99 692 147 q 532 25 597 51 q 397 -1 467 -1 z "},"Ü":{"ha":878,"x_min":83,"x_max":822,"o":"m 397 -1 q 165 146 233 -1 q 85 529 96 293 q 83 589 83 550 q 103 712 83 668 q 179 756 124 756 q 203 748 194 756 q 211 728 211 740 q 179 676 211 701 q 155 653 161 676 q 149 581 149 629 q 150 510 149 536 q 226 183 158 303 q 415 63 294 63 q 540 96 485 63 q 627 185 596 129 q 658 307 658 242 q 636 467 644 421 q 606 615 628 513 q 596 686 596 656 q 608 731 596 718 q 646 743 621 743 q 669 725 661 743 q 685 654 678 707 q 703 482 692 601 q 730 349 710 414 q 783 199 750 283 q 799 158 786 190 q 817 104 811 125 q 822 71 822 83 q 789 39 822 39 q 707 210 778 39 q 644 99 692 147 q 532 25 597 51 q 397 -1 467 -1 m 256 846 q 210 869 229 846 q 190 911 190 892 q 213 951 190 924 q 249 979 236 979 q 310 956 289 979 q 331 904 331 932 q 306 866 331 886 q 256 846 282 846 m 474 846 q 426 869 444 846 q 408 911 408 892 q 431 951 408 924 q 468 979 454 979 q 526 956 506 979 q 547 904 547 932 q 523 866 547 886 q 474 846 499 846 z "},"Ụ":{"ha":878,"x_min":83,"x_max":822,"o":"m 397 -1 q 165 146 233 -1 q 85 529 96 293 q 83 589 83 550 q 103 712 83 668 q 179 756 124 756 q 203 748 194 756 q 211 728 211 740 q 179 676 211 701 q 155 653 161 676 q 149 581 149 629 q 150 510 149 536 q 226 183 158 303 q 415 63 294 63 q 540 96 485 63 q 627 185 596 129 q 658 307 658 242 q 636 467 644 421 q 606 615 628 513 q 596 686 596 656 q 608 731 596 718 q 646 743 621 743 q 669 725 661 743 q 685 654 678 707 q 703 482 692 601 q 730 349 710 414 q 783 199 750 283 q 799 158 786 190 q 817 104 811 125 q 822 71 822 83 q 789 39 822 39 q 707 210 778 39 q 644 99 692 147 q 532 25 597 51 q 397 -1 467 -1 m 404 -237 q 359 -214 374 -237 q 344 -156 344 -190 q 346 -133 344 -140 q 371 -111 344 -111 q 410 -120 390 -111 q 422 -133 431 -129 q 436 -190 436 -169 q 428 -219 436 -208 q 404 -237 419 -229 z "},"Ù":{"ha":878,"x_min":83,"x_max":822,"o":"m 397 -1 q 165 146 233 -1 q 85 529 96 293 q 83 589 83 550 q 103 712 83 668 q 179 756 124 756 q 203 748 194 756 q 211 728 211 740 q 179 676 211 701 q 155 653 161 676 q 149 581 149 629 q 150 510 149 536 q 226 183 158 303 q 415 63 294 63 q 540 96 485 63 q 627 185 596 129 q 658 307 658 242 q 636 467 644 421 q 606 615 628 513 q 596 686 596 656 q 608 731 596 718 q 646 743 621 743 q 669 725 661 743 q 685 654 678 707 q 703 482 692 601 q 730 349 710 414 q 783 199 750 283 q 799 158 786 190 q 817 104 811 125 q 822 71 822 83 q 789 39 822 39 q 707 210 778 39 q 644 99 692 147 q 532 25 597 51 q 397 -1 467 -1 m 425 846 q 303 944 404 846 q 275 981 282 964 q 275 1004 268 997 q 296 1014 285 1014 q 361 976 319 1014 q 414 935 364 974 q 464 885 464 896 q 456 853 464 860 q 425 846 447 846 z "},"Ủ":{"ha":878,"x_min":83,"x_max":822,"o":"m 397 -1 q 165 146 233 -1 q 85 529 96 293 q 83 589 83 550 q 103 712 83 668 q 179 756 124 756 q 203 748 194 756 q 211 728 211 740 q 179 676 211 701 q 155 653 161 676 q 149 581 149 629 q 150 510 149 536 q 226 183 158 303 q 415 63 294 63 q 540 96 485 63 q 627 185 596 129 q 658 307 658 242 q 636 467 644 421 q 606 615 628 513 q 596 686 596 656 q 608 731 596 718 q 646 743 621 743 q 669 725 661 743 q 685 654 678 707 q 703 482 692 601 q 730 349 710 414 q 783 199 750 283 q 799 158 786 190 q 817 104 811 125 q 822 71 822 83 q 789 39 822 39 q 707 210 778 39 q 644 99 692 147 q 532 25 597 51 q 397 -1 467 -1 m 357 796 q 347 808 347 800 q 361 831 347 817 q 392 860 375 844 q 438 903 421 885 q 454 940 454 922 q 442 983 454 968 q 388 999 429 999 q 349 989 369 999 q 318 963 328 979 q 301 973 307 964 q 294 996 294 982 q 330 1036 294 1022 q 399 1050 365 1050 q 489 1019 463 1050 q 515 951 515 989 q 500 901 515 921 q 454 857 485 882 q 428 836 440 847 q 411 814 417 825 q 406 797 413 807 q 385 788 400 788 q 357 796 374 788 z "},"Ư":{"ha":878,"x_min":83,"x_max":822,"o":"m 703 482 q 730 349 710 414 q 783 199 750 283 q 799 158 786 190 q 817 104 811 125 q 822 71 822 83 q 789 39 822 39 q 707 210 778 39 q 644 99 692 147 q 532 25 597 51 q 397 -1 467 -1 q 165 146 233 -1 q 85 529 96 293 q 83 589 83 550 q 103 712 83 668 q 179 756 124 756 q 203 748 194 756 q 211 728 211 740 q 179 676 211 701 q 155 653 161 676 q 149 581 149 629 q 150 510 149 536 q 226 183 158 303 q 415 63 294 63 q 540 96 485 63 q 627 185 596 129 q 658 307 658 242 q 636 467 644 421 q 606 615 628 513 q 596 686 596 656 q 608 731 596 718 q 646 743 621 743 q 656 742 653 743 q 708 763 688 747 q 728 804 728 779 q 721 833 728 817 q 732 844 724 840 q 754 847 740 849 q 787 836 775 846 q 799 815 799 826 q 765 726 799 764 q 682 674 732 688 q 703 482 692 608 z "},"Ứ":{"ha":878,"x_min":83,"x_max":822,"o":"m 703 482 q 730 349 710 414 q 783 199 750 283 q 799 158 786 190 q 817 104 811 125 q 822 71 822 83 q 789 39 822 39 q 707 210 778 39 q 644 99 692 147 q 532 25 597 51 q 397 -1 467 -1 q 165 146 233 -1 q 85 529 96 293 q 83 589 83 550 q 103 712 83 668 q 179 756 124 756 q 203 748 194 756 q 211 728 211 740 q 179 676 211 701 q 155 653 161 676 q 149 581 149 629 q 150 510 149 536 q 226 183 158 303 q 415 63 294 63 q 540 96 485 63 q 627 185 596 129 q 658 307 658 242 q 636 467 644 421 q 606 615 628 513 q 596 686 596 656 q 608 731 596 718 q 646 743 621 743 q 656 742 653 743 q 708 763 688 747 q 728 804 728 779 q 721 833 728 817 q 732 844 724 840 q 754 847 740 849 q 787 836 775 846 q 799 815 799 826 q 765 726 799 764 q 682 674 732 688 q 703 482 692 608 m 290 836 q 263 842 269 836 q 257 868 257 847 q 301 936 257 896 q 415 1028 346 976 l 446 1051 q 471 1022 471 1039 q 451 983 471 1006 q 383 921 431 961 q 290 836 328 874 z "},"Ự":{"ha":878,"x_min":83,"x_max":822,"o":"m 703 482 q 730 349 710 414 q 783 199 750 283 q 799 158 786 190 q 817 104 811 125 q 822 71 822 83 q 789 39 822 39 q 707 210 778 39 q 644 99 692 147 q 532 25 597 51 q 397 -1 467 -1 q 165 146 233 -1 q 85 529 96 293 q 83 589 83 550 q 103 712 83 668 q 179 756 124 756 q 203 748 194 756 q 211 728 211 740 q 179 676 211 701 q 155 653 161 676 q 149 581 149 629 q 150 510 149 536 q 226 183 158 303 q 415 63 294 63 q 540 96 485 63 q 627 185 596 129 q 658 307 658 242 q 636 467 644 421 q 606 615 628 513 q 596 686 596 656 q 608 731 596 718 q 646 743 621 743 q 656 742 653 743 q 708 763 688 747 q 728 804 728 779 q 721 833 728 817 q 732 844 724 840 q 754 847 740 849 q 787 836 775 846 q 799 815 799 826 q 765 726 799 764 q 682 674 732 688 q 703 482 692 608 m 411 -237 q 366 -214 381 -237 q 351 -156 351 -190 q 353 -133 351 -140 q 378 -111 351 -111 q 417 -120 397 -111 q 429 -133 438 -129 q 443 -190 443 -169 q 435 -219 443 -208 q 411 -237 426 -229 z "},"Ừ":{"ha":878,"x_min":83,"x_max":822,"o":"m 703 482 q 730 349 710 414 q 783 199 750 283 q 799 158 786 190 q 817 104 811 125 q 822 71 822 83 q 789 39 822 39 q 707 210 778 39 q 644 99 692 147 q 532 25 597 51 q 397 -1 467 -1 q 165 146 233 -1 q 85 529 96 293 q 83 589 83 550 q 103 712 83 668 q 179 756 124 756 q 203 748 194 756 q 211 728 211 740 q 179 676 211 701 q 155 653 161 676 q 149 581 149 629 q 150 510 149 536 q 226 183 158 303 q 415 63 294 63 q 540 96 485 63 q 627 185 596 129 q 658 307 658 242 q 636 467 644 421 q 606 615 628 513 q 596 686 596 656 q 608 731 596 718 q 646 743 621 743 q 656 742 653 743 q 708 763 688 747 q 728 804 728 779 q 721 833 728 817 q 732 844 724 840 q 754 847 740 849 q 787 836 775 846 q 799 815 799 826 q 765 726 799 764 q 682 674 732 688 q 703 482 692 608 m 419 853 q 297 951 399 853 q 269 988 276 971 q 269 1011 263 1004 q 290 1021 279 1021 q 356 983 314 1021 q 408 942 358 981 q 458 892 458 903 q 450 860 458 867 q 419 853 442 853 z "},"Ử":{"ha":878,"x_min":83,"x_max":822,"o":"m 703 482 q 730 349 710 414 q 783 199 750 283 q 799 158 786 190 q 817 104 811 125 q 822 71 822 83 q 789 39 822 39 q 707 210 778 39 q 644 99 692 147 q 532 25 597 51 q 397 -1 467 -1 q 165 146 233 -1 q 85 529 96 293 q 83 589 83 550 q 103 712 83 668 q 179 756 124 756 q 203 748 194 756 q 211 728 211 740 q 179 676 211 701 q 155 653 161 676 q 149 581 149 629 q 150 510 149 536 q 226 183 158 303 q 415 63 294 63 q 540 96 485 63 q 627 185 596 129 q 658 307 658 242 q 636 467 644 421 q 606 615 628 513 q 596 686 596 656 q 608 731 596 718 q 646 743 621 743 q 656 742 653 743 q 708 763 688 747 q 728 804 728 779 q 721 833 728 817 q 732 844 724 840 q 754 847 740 849 q 787 836 775 846 q 799 815 799 826 q 765 726 799 764 q 682 674 732 688 q 703 482 692 608 m 351 803 q 342 815 342 807 q 356 838 342 824 q 386 867 369 851 q 432 910 415 892 q 449 947 449 929 q 436 990 449 975 q 382 1006 424 1006 q 343 996 364 1006 q 313 969 322 986 q 295 980 301 971 q 289 1003 289 989 q 324 1043 289 1029 q 393 1057 360 1057 q 483 1026 457 1057 q 510 958 510 996 q 494 908 510 928 q 449 864 479 889 q 423 843 435 854 q 406 821 411 832 q 401 804 407 814 q 379 794 394 794 q 351 803 368 794 z "},"Ữ":{"ha":878,"x_min":83,"x_max":822,"o":"m 703 482 q 730 349 710 414 q 783 199 750 283 q 799 158 786 190 q 817 104 811 125 q 822 71 822 83 q 789 39 822 39 q 707 210 778 39 q 644 99 692 147 q 532 25 597 51 q 397 -1 467 -1 q 165 146 233 -1 q 85 529 96 293 q 83 589 83 550 q 103 712 83 668 q 179 756 124 756 q 203 748 194 756 q 211 728 211 740 q 179 676 211 701 q 155 653 161 676 q 149 581 149 629 q 150 510 149 536 q 226 183 158 303 q 415 63 294 63 q 540 96 485 63 q 627 185 596 129 q 658 307 658 242 q 636 467 644 421 q 606 615 628 513 q 596 686 596 656 q 608 731 596 718 q 646 743 621 743 q 656 742 653 743 q 708 763 688 747 q 728 804 728 779 q 721 833 728 817 q 732 844 724 840 q 754 847 740 849 q 787 836 775 846 q 799 815 799 826 q 765 726 799 764 q 682 674 732 688 q 703 482 692 608 m 129 879 q 122 921 122 897 q 158 1004 122 969 q 239 1039 193 1039 q 307 1027 276 1039 q 386 982 338 1015 q 474 950 433 950 q 533 974 508 950 q 571 1038 558 997 q 596 1033 588 1039 q 604 1014 604 1026 q 601 999 604 1010 q 567 935 586 957 q 518 904 549 914 q 476 897 494 897 q 424 908 449 897 q 358 940 399 918 q 300 969 324 960 q 253 979 276 979 q 194 961 213 979 q 176 906 176 943 q 179 871 176 896 l 179 867 q 172 856 179 858 q 157 856 164 853 q 129 879 136 860 z "},"Ű":{"ha":878,"x_min":83,"x_max":822,"o":"m 397 -1 q 165 146 233 -1 q 85 529 96 293 q 83 589 83 550 q 103 712 83 668 q 179 756 124 756 q 203 748 194 756 q 211 728 211 740 q 179 676 211 701 q 155 653 161 676 q 149 581 149 629 q 150 510 149 536 q 226 183 158 303 q 415 63 294 63 q 540 96 485 63 q 627 185 596 129 q 658 307 658 242 q 636 467 644 421 q 606 615 628 513 q 596 686 596 656 q 608 731 596 718 q 646 743 621 743 q 669 725 661 743 q 685 654 678 707 q 703 482 692 601 q 730 349 710 414 q 783 199 750 283 q 799 158 786 190 q 817 104 811 125 q 822 71 822 83 q 789 39 822 39 q 707 210 778 39 q 644 99 692 147 q 532 25 597 51 q 397 -1 467 -1 m 244 876 q 217 883 224 876 q 210 910 210 889 q 231 972 210 949 q 296 1022 253 994 q 338 1050 310 1031 q 374 1017 374 1033 q 360 988 374 1004 q 306 935 346 972 l 244 876 m 399 856 q 372 862 379 856 q 365 888 365 868 q 387 951 365 926 q 451 1003 408 975 q 492 1031 471 1015 q 520 1013 511 1021 q 529 996 529 1006 q 515 969 529 985 q 467 921 501 953 q 399 856 428 885 z "},"Ȗ":{"ha":878,"x_min":83,"x_max":822,"o":"m 397 -1 q 165 146 233 -1 q 85 529 96 293 q 83 589 83 550 q 103 712 83 668 q 179 756 124 756 q 203 748 194 756 q 211 728 211 740 q 179 676 211 701 q 155 653 161 676 q 149 581 149 629 q 150 510 149 536 q 226 183 158 303 q 415 63 294 63 q 540 96 485 63 q 627 185 596 129 q 658 307 658 242 q 636 467 644 421 q 606 615 628 513 q 596 686 596 656 q 608 731 596 718 q 646 743 621 743 q 669 725 661 743 q 685 654 678 707 q 703 482 692 601 q 730 349 710 414 q 783 199 750 283 q 799 158 786 190 q 817 104 811 125 q 822 71 822 83 q 789 39 822 39 q 707 210 778 39 q 644 99 692 147 q 532 25 597 51 q 397 -1 467 -1 m 372 1004 q 496 969 442 1004 q 550 881 550 933 q 540 857 550 867 q 511 846 529 847 l 507 846 q 486 867 482 846 q 488 879 488 871 q 457 930 488 911 q 378 949 426 949 q 301 935 333 949 q 269 894 269 921 q 260 885 269 889 q 240 882 251 882 q 211 892 213 882 q 257 973 211 942 q 372 1004 303 1004 z "},"Ū":{"ha":878,"x_min":83,"x_max":822,"o":"m 397 -1 q 165 146 233 -1 q 85 529 96 293 q 83 589 83 550 q 103 712 83 668 q 179 756 124 756 q 203 748 194 756 q 211 728 211 740 q 179 676 211 701 q 155 653 161 676 q 149 581 149 629 q 150 510 149 536 q 226 183 158 303 q 415 63 294 63 q 540 96 485 63 q 627 185 596 129 q 658 307 658 242 q 636 467 644 421 q 606 615 628 513 q 596 686 596 656 q 608 731 596 718 q 646 743 621 743 q 669 725 661 743 q 685 654 678 707 q 703 482 692 601 q 730 349 710 414 q 783 199 750 283 q 799 158 786 190 q 817 104 811 125 q 822 71 822 83 q 789 39 822 39 q 707 210 778 39 q 644 99 692 147 q 532 25 597 51 q 397 -1 467 -1 m 190 897 q 218 953 190 935 q 283 976 246 971 q 393 983 319 981 q 478 986 463 986 q 535 977 521 986 q 549 939 549 968 q 524 911 549 911 q 471 918 499 911 q 446 922 464 919 q 411 925 428 925 q 353 922 376 925 q 300 911 329 918 q 190 897 242 897 z "},"Ų":{"ha":878,"x_min":83,"x_max":885,"o":"m 882 -125 q 878 -156 885 -140 q 861 -175 872 -171 q 760 -194 811 -194 q 650 -162 693 -194 q 607 -82 607 -129 q 653 19 607 -26 q 763 82 699 64 q 707 210 743 122 q 644 99 692 147 q 532 25 597 51 q 397 -1 467 -1 q 165 146 233 -1 q 85 529 96 293 q 83 589 83 550 q 103 712 83 668 q 179 756 124 756 q 203 748 194 756 q 211 728 211 740 q 179 676 211 701 q 155 653 161 676 q 149 581 149 629 q 150 510 149 536 q 226 183 158 303 q 415 63 294 63 q 540 96 485 63 q 627 185 596 129 q 658 307 658 242 q 636 467 644 421 q 606 615 628 513 q 596 686 596 656 q 608 731 596 718 q 646 743 621 743 q 669 725 661 743 q 685 654 678 707 q 703 482 692 601 q 730 349 710 414 q 783 199 750 283 q 799 158 786 190 q 817 104 811 125 q 822 71 822 83 q 799 40 822 44 q 675 -81 675 -10 q 695 -127 675 -108 q 763 -146 715 -146 q 882 -125 807 -146 z "},"Ů":{"ha":878,"x_min":83,"x_max":822,"o":"m 397 -1 q 165 146 233 -1 q 85 529 96 293 q 83 589 83 550 q 103 712 83 668 q 179 756 124 756 q 203 748 194 756 q 211 728 211 740 q 179 676 211 701 q 155 653 161 676 q 149 581 149 629 q 150 510 149 536 q 226 183 158 303 q 415 63 294 63 q 540 96 485 63 q 627 185 596 129 q 658 307 658 242 q 636 467 644 421 q 606 615 628 513 q 596 686 596 656 q 608 731 596 718 q 646 743 621 743 q 669 725 661 743 q 685 654 678 707 q 703 482 692 601 q 730 349 710 414 q 783 199 750 283 q 799 158 786 190 q 817 104 811 125 q 822 71 822 83 q 789 39 822 39 q 707 210 778 39 q 644 99 692 147 q 532 25 597 51 q 397 -1 467 -1 m 363 840 q 276 872 310 840 q 243 953 243 903 q 285 1038 243 1010 q 386 1067 326 1067 q 467 1032 438 1067 q 496 958 496 997 q 456 873 496 906 q 363 840 417 840 m 371 892 q 423 911 399 889 q 447 963 447 933 q 435 1003 447 985 q 390 1022 424 1021 q 322 1010 350 1025 q 294 957 294 996 q 315 908 294 925 q 371 892 335 892 z "},"Ũ":{"ha":878,"x_min":83,"x_max":822,"o":"m 397 -1 q 165 146 233 -1 q 85 529 96 293 q 83 589 83 550 q 103 712 83 668 q 179 756 124 756 q 203 748 194 756 q 211 728 211 740 q 179 676 211 701 q 155 653 161 676 q 149 581 149 629 q 150 510 149 536 q 226 183 158 303 q 415 63 294 63 q 540 96 485 63 q 627 185 596 129 q 658 307 658 242 q 636 467 644 421 q 606 615 628 513 q 596 686 596 656 q 608 731 596 718 q 646 743 621 743 q 669 725 661 743 q 685 654 678 707 q 703 482 692 601 q 730 349 710 414 q 783 199 750 283 q 799 158 786 190 q 817 104 811 125 q 822 71 822 83 q 789 39 822 39 q 707 210 778 39 q 644 99 692 147 q 532 25 597 51 q 397 -1 467 -1 m 135 872 q 128 914 128 890 q 163 997 128 963 q 244 1032 199 1032 q 313 1020 282 1032 q 392 975 343 1008 q 479 943 439 943 q 539 967 514 943 q 576 1031 564 990 q 601 1026 593 1032 q 610 1007 610 1019 q 607 992 610 1003 q 573 928 592 950 q 524 897 554 907 q 482 890 500 890 q 429 901 454 890 q 364 933 404 911 q 306 963 329 953 q 258 972 282 972 q 200 954 218 972 q 182 899 182 936 q 185 864 182 889 l 185 860 q 177 849 185 851 q 163 849 169 846 q 135 872 142 853 z "},"V":{"ha":653,"x_min":-1,"x_max":658,"o":"m 356 -1 q 342 -4 347 -4 q 326 0 335 -4 q 270 95 290 56 q 204 233 250 135 q 76 563 154 350 q -1 822 -1 775 q 4 841 -1 835 q 18 847 10 847 q 29 844 25 847 q 83 748 46 835 q 185 489 119 661 q 354 69 292 206 q 440 242 385 99 q 542 561 496 386 q 597 858 589 736 q 658 810 658 863 q 608 532 658 721 q 488 184 558 343 q 356 -1 417 25 z "},"W":{"ha":1076,"x_min":69,"x_max":1007,"o":"m 768 0 q 613 65 681 0 q 496 240 544 129 q 407 77 468 131 q 272 24 346 24 q 119 203 168 24 q 69 632 69 382 q 81 747 69 704 q 122 789 92 789 q 142 742 135 789 q 150 622 150 694 q 283 103 150 103 q 368 131 333 103 q 433 221 403 158 q 449 344 449 258 l 447 432 q 472 444 454 444 q 497 438 485 444 q 513 418 508 432 q 552 269 522 344 q 633 141 582 193 q 753 89 683 89 q 889 131 849 89 q 929 246 929 174 q 908 498 929 403 q 851 678 886 593 q 830 738 836 718 q 824 778 824 757 q 850 800 833 800 q 917 726 881 800 q 981 528 954 653 q 1007 261 1007 404 q 974 123 1007 182 q 887 32 942 64 q 768 0 832 0 z "},"Ẃ":{"ha":1076,"x_min":69,"x_max":1007,"o":"m 768 0 q 613 65 681 0 q 496 240 544 129 q 407 77 468 131 q 272 24 346 24 q 119 203 168 24 q 69 632 69 382 q 81 747 69 704 q 122 789 92 789 q 142 742 135 789 q 150 622 150 694 q 283 103 150 103 q 368 131 333 103 q 433 221 403 158 q 449 344 449 258 l 447 432 q 472 444 454 444 q 497 438 485 444 q 513 418 508 432 q 552 269 522 344 q 633 141 582 193 q 753 89 683 89 q 889 131 849 89 q 929 246 929 174 q 908 498 929 403 q 851 678 886 593 q 830 738 836 718 q 824 778 824 757 q 850 800 833 800 q 917 726 881 800 q 981 528 954 653 q 1007 261 1007 404 q 974 123 1007 182 q 887 32 942 64 q 768 0 832 0 m 393 700 q 366 706 372 700 q 360 732 360 711 q 404 800 360 760 q 518 892 449 840 l 549 915 q 574 886 574 903 q 553 847 574 869 q 486 785 533 825 q 393 700 431 738 z "},"Ŵ":{"ha":1076,"x_min":69,"x_max":1007,"o":"m 768 0 q 613 65 681 0 q 496 240 544 129 q 407 77 468 131 q 272 24 346 24 q 119 203 168 24 q 69 632 69 382 q 81 747 69 704 q 122 789 92 789 q 142 742 135 789 q 150 622 150 694 q 283 103 150 103 q 368 131 333 103 q 433 221 403 158 q 449 344 449 258 l 447 432 q 472 444 454 444 q 497 438 485 444 q 513 418 508 432 q 552 269 522 344 q 633 141 582 193 q 753 89 683 89 q 889 131 849 89 q 929 246 929 174 q 908 498 929 403 q 851 678 886 593 q 830 738 836 718 q 824 778 824 757 q 850 800 833 800 q 917 726 881 800 q 981 528 954 653 q 1007 261 1007 404 q 974 123 1007 182 q 887 32 942 64 q 768 0 832 0 m 626 703 q 597 721 611 703 q 563 778 583 739 q 489 892 526 844 q 441 798 472 843 q 376 725 410 753 q 318 697 342 697 q 278 735 292 697 l 328 778 q 385 830 367 811 q 417 878 403 849 q 443 961 431 908 q 465 974 447 974 q 498 967 488 974 q 522 936 508 960 q 582 863 533 917 q 606 833 590 851 q 628 806 621 815 q 651 763 646 778 q 657 729 657 747 q 649 708 657 714 q 626 703 642 703 z "},"Ẅ":{"ha":1076,"x_min":69,"x_max":1007,"o":"m 768 0 q 613 65 681 0 q 496 240 544 129 q 407 77 468 131 q 272 24 346 24 q 119 203 168 24 q 69 632 69 382 q 81 747 69 704 q 122 789 92 789 q 142 742 135 789 q 150 622 150 694 q 283 103 150 103 q 368 131 333 103 q 433 221 403 158 q 449 344 449 258 l 447 432 q 472 444 454 444 q 497 438 485 444 q 513 418 508 432 q 552 269 522 344 q 633 141 582 193 q 753 89 683 89 q 889 131 849 89 q 929 246 929 174 q 908 498 929 403 q 851 678 886 593 q 830 738 836 718 q 824 778 824 757 q 850 800 833 800 q 917 726 881 800 q 981 528 954 653 q 1007 261 1007 404 q 974 123 1007 182 q 887 32 942 64 q 768 0 832 0 m 353 717 q 307 740 326 717 q 288 782 288 763 q 310 822 288 794 q 346 850 333 850 q 407 826 386 850 q 428 775 428 803 q 403 737 428 757 q 353 717 379 717 m 571 717 q 524 740 542 717 q 506 782 506 763 q 528 822 506 794 q 565 850 551 850 q 624 826 603 850 q 644 775 644 803 q 620 737 644 757 q 571 717 596 717 z "},"Ẁ":{"ha":1076,"x_min":69,"x_max":1007,"o":"m 768 0 q 613 65 681 0 q 496 240 544 129 q 407 77 468 131 q 272 24 346 24 q 119 203 168 24 q 69 632 69 382 q 81 747 69 704 q 122 789 92 789 q 142 742 135 789 q 150 622 150 694 q 283 103 150 103 q 368 131 333 103 q 433 221 403 158 q 449 344 449 258 l 447 432 q 472 444 454 444 q 497 438 485 444 q 513 418 508 432 q 552 269 522 344 q 633 141 582 193 q 753 89 683 89 q 889 131 849 89 q 929 246 929 174 q 908 498 929 403 q 851 678 886 593 q 830 738 836 718 q 824 778 824 757 q 850 800 833 800 q 917 726 881 800 q 981 528 954 653 q 1007 261 1007 404 q 974 123 1007 182 q 887 32 942 64 q 768 0 832 0 m 522 717 q 400 815 501 717 q 372 851 379 835 q 372 875 365 868 q 393 885 382 885 q 458 847 417 885 q 511 806 461 844 q 561 756 561 767 q 553 724 561 731 q 522 717 544 717 z "},"X":{"ha":800,"x_min":63,"x_max":765,"o":"m 88 -85 q 67 -74 72 -85 q 63 -42 63 -64 q 120 124 63 33 q 271 329 178 215 q 308 376 296 358 l 261 451 q 177 594 204 540 q 150 697 150 649 q 156 722 150 715 q 179 729 163 729 q 222 684 193 729 q 301 553 251 639 q 334 497 311 535 q 365 451 357 458 q 474 543 431 511 q 604 631 517 575 q 670 667 639 651 q 729 683 701 683 q 765 654 760 683 q 572 515 672 596 q 414 361 472 435 q 460 278 426 325 q 546 164 493 231 q 619 65 597 97 q 642 14 642 32 q 621 -1 642 -1 q 593 3 610 -1 q 519 77 554 33 q 439 188 485 121 q 349 307 369 283 q 210 119 290 239 l 179 75 q 140 -1 165 54 q 111 -61 122 -42 q 88 -85 100 -81 z "},"Y":{"ha":638,"x_min":21,"x_max":619,"o":"m 549 799 q 565 812 549 806 q 597 818 582 818 q 614 813 608 818 q 614 799 619 808 q 564 704 603 776 q 471 515 506 596 q 411 319 436 435 q 386 56 386 204 l 388 -24 q 376 -44 388 -37 q 346 -51 364 -51 q 328 -47 332 -51 q 325 -35 325 -43 q 325 -22 325 -26 q 321 81 321 32 q 340 290 321 190 q 205 466 257 393 q 107 628 153 539 q 21 833 61 717 q 49 835 24 832 q 76 838 74 838 l 121 753 q 247 524 200 603 q 358 372 294 446 q 430 573 388 483 q 531 767 472 663 l 549 799 z "},"Ý":{"ha":638,"x_min":21,"x_max":617,"o":"m 549 799 q 565 812 549 806 q 597 818 582 818 q 614 813 608 818 q 614 799 619 808 q 564 704 603 776 q 471 515 506 596 q 411 319 436 435 q 386 56 386 204 l 388 -24 q 376 -44 388 -37 q 346 -51 364 -51 q 328 -47 332 -51 q 325 -35 325 -43 q 325 -22 325 -26 q 321 81 321 32 q 340 290 321 190 q 205 466 257 393 q 107 628 153 539 q 21 833 61 717 q 49 835 24 832 q 76 838 74 838 l 121 753 q 247 524 200 603 q 358 372 294 446 q 430 573 388 483 q 531 767 472 663 l 549 799 m 314 829 q 287 835 293 829 q 281 861 281 840 q 325 929 281 889 q 439 1021 369 969 l 469 1044 q 494 1015 494 1032 q 474 976 494 999 q 407 914 454 954 q 314 829 351 867 z "},"Ŷ":{"ha":638,"x_min":21,"x_max":617,"o":"m 549 799 q 565 812 549 806 q 597 818 582 818 q 614 813 608 818 q 614 799 619 808 q 564 704 603 776 q 471 515 506 596 q 411 319 436 435 q 386 56 386 204 l 388 -24 q 376 -44 388 -37 q 346 -51 364 -51 q 328 -47 332 -51 q 325 -35 325 -43 q 325 -22 325 -26 q 321 81 321 32 q 340 290 321 190 q 205 466 257 393 q 107 628 153 539 q 21 833 61 717 q 49 835 24 832 q 76 838 74 838 l 121 753 q 247 524 200 603 q 358 372 294 446 q 430 573 388 483 q 531 767 472 663 l 549 799 m 547 832 q 518 850 532 832 q 483 907 504 868 q 410 1021 447 974 q 362 927 393 972 q 297 854 331 882 q 239 826 263 826 q 199 864 213 826 l 249 907 q 306 959 288 940 q 338 1008 324 978 q 364 1090 351 1038 q 386 1103 368 1103 q 419 1096 408 1103 q 443 1065 429 1089 q 503 992 454 1046 q 526 963 511 981 q 549 935 542 944 q 572 892 567 907 q 578 858 578 876 q 570 838 578 843 q 547 832 563 832 z "},"Ÿ":{"ha":638,"x_min":21,"x_max":617,"o":"m 549 799 q 565 812 549 806 q 597 818 582 818 q 614 813 608 818 q 614 799 619 808 q 564 704 603 776 q 471 515 506 596 q 411 319 436 435 q 386 56 386 204 l 388 -24 q 376 -44 388 -37 q 346 -51 364 -51 q 328 -47 332 -51 q 325 -35 325 -43 q 325 -22 325 -26 q 321 81 321 32 q 340 290 321 190 q 205 466 257 393 q 107 628 153 539 q 21 833 61 717 q 49 835 24 832 q 76 838 74 838 l 121 753 q 247 524 200 603 q 358 372 294 446 q 430 573 388 483 q 531 767 472 663 l 549 799 m 274 846 q 228 869 247 846 q 208 911 208 892 q 231 951 208 924 q 267 979 254 979 q 328 956 307 979 q 349 904 349 932 q 324 866 349 886 q 274 846 300 846 m 492 846 q 444 869 463 846 q 426 911 426 892 q 449 951 426 924 q 486 979 472 979 q 544 956 524 979 q 565 904 565 932 q 541 866 565 886 q 492 846 517 846 z "},"Ỵ":{"ha":638,"x_min":21,"x_max":622,"o":"m 549 799 q 565 812 549 806 q 597 818 582 818 q 614 813 608 818 q 614 799 619 808 q 564 704 603 776 q 471 515 506 596 q 411 319 436 435 q 386 56 386 204 l 388 -24 q 376 -44 388 -37 q 346 -51 364 -51 q 328 -47 332 -51 q 325 -35 325 -43 q 325 -22 325 -26 q 321 81 321 32 q 340 290 321 190 q 205 466 257 393 q 107 628 153 539 q 21 833 61 717 q 49 835 24 832 q 76 838 74 838 l 121 753 q 247 524 200 603 q 358 372 294 446 q 430 573 388 483 q 531 767 472 663 l 549 799 m 590 -131 q 545 -107 560 -131 q 531 -49 531 -83 q 532 -26 531 -33 q 557 -4 531 -4 q 597 -13 576 -4 q 608 -26 617 -22 q 622 -83 622 -62 q 614 -112 622 -101 q 590 -131 606 -122 z "},"Ỳ":{"ha":638,"x_min":21,"x_max":617,"o":"m 549 799 q 565 812 549 806 q 597 818 582 818 q 614 813 608 818 q 614 799 619 808 q 564 704 603 776 q 471 515 506 596 q 411 319 436 435 q 386 56 386 204 l 388 -24 q 376 -44 388 -37 q 346 -51 364 -51 q 328 -47 332 -51 q 325 -35 325 -43 q 325 -22 325 -26 q 321 81 321 32 q 340 290 321 190 q 205 466 257 393 q 107 628 153 539 q 21 833 61 717 q 49 835 24 832 q 76 838 74 838 l 121 753 q 247 524 200 603 q 358 372 294 446 q 430 573 388 483 q 531 767 472 663 l 549 799 m 443 846 q 321 944 422 846 q 293 981 300 964 q 293 1004 286 997 q 314 1014 303 1014 q 379 976 338 1014 q 432 935 382 974 q 482 885 482 896 q 474 853 482 860 q 443 846 465 846 z "},"Ỷ":{"ha":638,"x_min":21,"x_max":617,"o":"m 549 799 q 565 812 549 806 q 597 818 582 818 q 614 813 608 818 q 614 799 619 808 q 564 704 603 776 q 471 515 506 596 q 411 319 436 435 q 386 56 386 204 l 388 -24 q 376 -44 388 -37 q 346 -51 364 -51 q 328 -47 332 -51 q 325 -35 325 -43 q 325 -22 325 -26 q 321 81 321 32 q 340 290 321 190 q 205 466 257 393 q 107 628 153 539 q 21 833 61 717 q 49 835 24 832 q 76 838 74 838 l 121 753 q 247 524 200 603 q 358 372 294 446 q 430 573 388 483 q 531 767 472 663 l 549 799 m 375 796 q 365 808 365 800 q 379 831 365 817 q 410 860 393 844 q 456 903 439 885 q 472 940 472 922 q 460 983 472 968 q 406 999 447 999 q 367 989 388 999 q 336 963 346 979 q 319 973 325 964 q 313 996 313 982 q 348 1036 313 1022 q 417 1050 383 1050 q 507 1019 481 1050 q 533 951 533 989 q 518 901 533 921 q 472 857 503 882 q 447 836 458 847 q 429 814 435 825 q 424 797 431 807 q 403 788 418 788 q 375 796 392 788 z "},"Ȳ":{"ha":638,"x_min":21,"x_max":617,"o":"m 549 799 q 565 812 549 806 q 597 818 582 818 q 614 813 608 818 q 614 799 619 808 q 564 704 603 776 q 471 515 506 596 q 411 319 436 435 q 386 56 386 204 l 388 -24 q 376 -44 388 -37 q 346 -51 364 -51 q 328 -47 332 -51 q 325 -35 325 -43 q 325 -22 325 -26 q 321 81 321 32 q 340 290 321 190 q 205 466 257 393 q 107 628 153 539 q 21 833 61 717 q 49 835 24 832 q 76 838 74 838 l 121 753 q 247 524 200 603 q 358 372 294 446 q 430 573 388 483 q 531 767 472 663 l 549 799 m 208 897 q 236 953 208 935 q 301 976 264 971 q 411 983 338 981 q 496 986 481 986 q 553 977 539 986 q 567 939 567 968 q 542 911 567 911 q 489 918 517 911 q 464 922 482 919 q 429 925 446 925 q 371 922 394 925 q 318 911 347 918 q 208 897 260 897 z "},"Ỹ":{"ha":638,"x_min":21,"x_max":628,"o":"m 549 799 q 565 812 549 806 q 597 818 582 818 q 614 813 608 818 q 614 799 619 808 q 564 704 603 776 q 471 515 506 596 q 411 319 436 435 q 386 56 386 204 l 388 -24 q 376 -44 388 -37 q 346 -51 364 -51 q 328 -47 332 -51 q 325 -35 325 -43 q 325 -22 325 -26 q 321 81 321 32 q 340 290 321 190 q 205 466 257 393 q 107 628 153 539 q 21 833 61 717 q 49 835 24 832 q 76 838 74 838 l 121 753 q 247 524 200 603 q 358 372 294 446 q 430 573 388 483 q 531 767 472 663 l 549 799 m 153 872 q 146 914 146 890 q 181 997 146 963 q 263 1032 217 1032 q 331 1020 300 1032 q 410 975 361 1008 q 497 943 457 943 q 557 967 532 943 q 594 1031 582 990 q 619 1026 611 1032 q 628 1007 628 1019 q 625 992 628 1003 q 591 928 610 950 q 542 897 572 907 q 500 890 518 890 q 447 901 472 890 q 382 933 422 911 q 324 963 347 953 q 276 972 300 972 q 218 954 236 972 q 200 899 200 936 q 203 864 200 889 l 203 860 q 195 849 203 851 q 181 849 188 846 q 153 872 160 853 z "},"Z":{"ha":789,"x_min":63,"x_max":726,"o":"m 283 0 q 234 28 251 10 q 217 69 217 46 q 268 188 217 106 q 396 385 319 271 q 313 374 338 376 q 131 349 171 353 q 165 417 131 403 q 297 442 251 435 q 438 458 343 449 q 524 657 524 572 q 468 759 524 724 q 313 794 413 794 q 210 784 251 794 q 128 757 169 774 q 75 742 90 742 q 66 748 69 742 q 63 763 63 754 q 91 810 63 788 q 172 846 119 832 q 290 860 224 860 q 506 806 424 860 q 588 658 588 751 q 508 461 588 571 l 560 463 q 658 452 624 463 q 701 417 693 442 q 663 384 685 390 q 601 378 642 378 q 567 382 596 378 q 471 386 538 386 q 378 238 449 350 q 322 151 346 190 q 299 100 299 111 q 346 78 299 78 q 452 83 404 78 q 556 100 500 89 q 627 112 590 107 q 697 117 664 117 q 720 108 714 117 q 726 82 726 99 q 722 53 726 63 q 697 39 717 44 q 549 12 647 25 q 374 -1 450 -1 l 283 0 z "},"Ź":{"ha":789,"x_min":63,"x_max":726,"o":"m 283 0 q 234 28 251 10 q 217 69 217 46 q 268 188 217 106 q 396 385 319 271 q 313 374 338 376 q 131 349 171 353 q 165 417 131 403 q 297 442 251 435 q 438 458 343 449 q 524 657 524 572 q 468 759 524 724 q 313 794 413 794 q 210 784 251 794 q 128 757 169 774 q 75 742 90 742 q 66 748 69 742 q 63 763 63 754 q 91 810 63 788 q 172 846 119 832 q 290 860 224 860 q 506 806 424 860 q 588 658 588 751 q 508 461 588 571 l 560 463 q 658 452 624 463 q 701 417 693 442 q 663 384 685 390 q 601 378 642 378 q 567 382 596 378 q 471 386 538 386 q 378 238 449 350 q 322 151 346 190 q 299 100 299 111 q 346 78 299 78 q 452 83 404 78 q 556 100 500 89 q 627 112 590 107 q 697 117 664 117 q 720 108 714 117 q 726 82 726 99 q 722 53 726 63 q 697 39 717 44 q 549 12 647 25 q 374 -1 450 -1 l 283 0 m 236 942 q 209 947 215 942 q 203 974 203 953 q 247 1042 203 1001 q 361 1133 292 1082 l 392 1157 q 417 1128 417 1144 q 397 1089 417 1111 q 329 1026 376 1067 q 236 942 274 979 z "},"Ž":{"ha":789,"x_min":63,"x_max":726,"o":"m 283 0 q 234 28 251 10 q 217 69 217 46 q 268 188 217 106 q 396 385 319 271 q 313 374 338 376 q 131 349 171 353 q 165 417 131 403 q 297 442 251 435 q 438 458 343 449 q 524 657 524 572 q 468 759 524 724 q 313 794 413 794 q 210 784 251 794 q 128 757 169 774 q 75 742 90 742 q 66 748 69 742 q 63 763 63 754 q 91 810 63 788 q 172 846 119 832 q 290 860 224 860 q 506 806 424 860 q 588 658 588 751 q 508 461 588 571 l 560 463 q 658 452 624 463 q 701 417 693 442 q 663 384 685 390 q 601 378 642 378 q 567 382 596 378 q 471 386 538 386 q 378 238 449 350 q 322 151 346 190 q 299 100 299 111 q 346 78 299 78 q 452 83 404 78 q 556 100 500 89 q 627 112 590 107 q 697 117 664 117 q 720 108 714 117 q 726 82 726 99 q 722 53 726 63 q 697 39 717 44 q 549 12 647 25 q 374 -1 450 -1 l 283 0 m 313 943 q 288 950 293 943 q 248 1010 269 993 q 174 1054 226 1028 q 122 1081 132 1075 q 168 1110 138 1110 q 248 1081 203 1110 q 331 1011 293 1053 q 376 1047 346 1022 q 435 1092 413 1078 q 469 1107 457 1107 q 491 1101 486 1107 q 496 1083 496 1096 q 493 1065 496 1071 q 483 1053 490 1060 q 469 1040 475 1046 q 442 1019 461 1032 q 417 1003 424 1007 q 365 965 378 978 q 342 948 351 953 q 313 943 332 943 z "},"Ż":{"ha":789,"x_min":63,"x_max":726,"o":"m 283 0 q 234 28 251 10 q 217 69 217 46 q 268 188 217 106 q 396 385 319 271 q 313 374 338 376 q 131 349 171 353 q 165 417 131 403 q 297 442 251 435 q 438 458 343 449 q 524 657 524 572 q 468 759 524 724 q 313 794 413 794 q 210 784 251 794 q 128 757 169 774 q 75 742 90 742 q 66 748 69 742 q 63 763 63 754 q 91 810 63 788 q 172 846 119 832 q 290 860 224 860 q 506 806 424 860 q 588 658 588 751 q 508 461 588 571 l 560 463 q 658 452 624 463 q 701 417 693 442 q 663 384 685 390 q 601 378 642 378 q 567 382 596 378 q 471 386 538 386 q 378 238 449 350 q 322 151 346 190 q 299 100 299 111 q 346 78 299 78 q 452 83 404 78 q 556 100 500 89 q 627 112 590 107 q 697 117 664 117 q 720 108 714 117 q 726 82 726 99 q 722 53 726 63 q 697 39 717 44 q 549 12 647 25 q 374 -1 450 -1 l 283 0 m 324 976 q 278 1000 293 976 q 264 1058 264 1024 q 265 1081 264 1074 q 290 1103 264 1103 q 330 1094 310 1103 q 342 1081 350 1085 q 356 1024 356 1044 q 347 995 356 1006 q 324 976 339 985 z "},"a":{"ha":750,"x_min":56,"x_max":694,"o":"m 413 0 q 162 51 268 0 q 56 229 56 101 q 83 318 56 275 q 165 388 111 361 q 297 415 219 415 q 399 410 357 415 q 494 379 440 404 q 607 300 549 354 q 540 468 585 396 q 441 580 496 540 q 333 619 386 619 q 287 610 308 619 q 235 585 265 601 q 183 563 200 563 q 172 567 176 563 q 167 579 167 572 q 216 665 167 635 q 336 693 265 696 q 514 610 433 688 q 641 419 594 533 q 688 196 688 306 q 685 144 688 178 l 640 147 q 505 299 588 254 q 339 344 422 344 q 186 313 232 344 q 140 219 140 281 q 204 117 140 156 q 368 78 268 78 q 457 84 424 78 q 526 101 490 90 q 578 115 556 111 q 635 119 600 119 q 684 114 674 119 q 694 89 694 108 q 638 54 694 75 q 510 17 581 33 q 413 0 439 0 z "},"á":{"ha":703,"x_min":56,"x_max":694,"o":"m 413 0 q 162 51 268 0 q 56 229 56 101 q 83 318 56 275 q 165 388 111 361 q 297 415 219 415 q 399 410 357 415 q 494 379 440 404 q 607 300 549 354 q 540 468 585 396 q 441 580 496 540 q 333 619 386 619 q 287 610 308 619 q 235 585 265 601 q 183 563 200 563 q 172 567 176 563 q 167 579 167 572 q 216 665 167 635 q 336 693 265 696 q 514 610 433 688 q 641 419 594 533 q 688 196 688 306 q 685 144 688 178 l 640 147 q 505 299 588 254 q 339 344 422 344 q 186 313 232 344 q 140 219 140 281 q 204 117 140 156 q 368 78 268 78 q 457 84 424 78 q 526 101 490 90 q 578 115 556 111 q 635 119 600 119 q 684 114 674 119 q 694 89 694 108 q 638 54 694 75 q 510 17 581 33 q 413 0 439 0 m 250 746 q 223 751 229 746 q 217 778 217 757 q 261 846 217 806 q 375 938 306 886 l 406 961 q 431 932 431 949 q 410 893 431 915 q 343 831 390 871 q 250 746 288 783 z "},"ă":{"ha":703,"x_min":56,"x_max":694,"o":"m 413 0 q 162 51 268 0 q 56 229 56 101 q 83 318 56 275 q 165 388 111 361 q 297 415 219 415 q 399 410 357 415 q 494 379 440 404 q 607 300 549 354 q 540 468 585 396 q 441 580 496 540 q 333 619 386 619 q 287 610 308 619 q 235 585 265 601 q 183 563 200 563 q 172 567 176 563 q 167 579 167 572 q 216 665 167 635 q 336 693 265 696 q 514 610 433 688 q 641 419 594 533 q 688 196 688 306 q 685 144 688 178 l 640 147 q 505 299 588 254 q 339 344 422 344 q 186 313 232 344 q 140 219 140 281 q 204 117 140 156 q 368 78 268 78 q 457 84 424 78 q 526 101 490 90 q 578 115 556 111 q 635 119 600 119 q 684 114 674 119 q 694 89 694 108 q 638 54 694 75 q 510 17 581 33 q 413 0 439 0 m 318 767 q 203 798 249 767 q 157 879 157 829 q 186 889 158 889 q 206 885 197 889 q 215 876 215 882 q 247 836 215 850 q 324 822 279 822 q 403 841 372 822 q 433 892 433 860 q 432 904 433 900 l 432 910 q 453 925 432 925 q 484 915 472 925 q 496 890 496 904 q 442 802 496 838 q 318 767 388 767 z "},"ắ":{"ha":750,"x_min":56,"x_max":694,"o":"m 413 0 q 162 51 268 0 q 56 229 56 101 q 83 318 56 275 q 165 388 111 361 q 297 415 219 415 q 399 410 357 415 q 494 379 440 404 q 607 300 549 354 q 540 468 585 396 q 441 580 496 540 q 333 619 386 619 q 287 610 308 619 q 235 585 265 601 q 183 563 200 563 q 172 567 176 563 q 167 579 167 572 q 216 665 167 635 q 336 693 265 696 q 514 610 433 688 q 641 419 594 533 q 688 196 688 306 q 685 144 688 178 l 640 147 q 505 299 588 254 q 339 344 422 344 q 186 313 232 344 q 140 219 140 281 q 204 117 140 156 q 368 78 268 78 q 457 84 424 78 q 526 101 490 90 q 578 115 556 111 q 635 119 600 119 q 684 114 674 119 q 694 89 694 108 q 638 54 694 75 q 510 17 581 33 q 413 0 439 0 m 344 794 q 229 826 275 794 q 183 907 183 857 q 213 917 185 917 q 233 913 224 917 q 242 904 242 910 q 274 864 242 878 q 350 850 306 850 q 429 869 399 850 q 460 919 460 888 q 458 932 460 928 l 458 938 q 479 953 458 953 q 510 942 499 953 q 522 918 522 932 q 468 830 522 865 q 344 794 414 794 m 279 960 q 252 965 258 960 q 246 992 246 971 q 290 1060 246 1019 q 404 1151 335 1100 l 435 1175 q 460 1146 460 1163 q 440 1107 460 1129 q 372 1044 419 1085 q 279 960 317 997 z "},"ặ":{"ha":703,"x_min":56,"x_max":694,"o":"m 413 0 q 162 51 268 0 q 56 229 56 101 q 83 318 56 275 q 165 388 111 361 q 297 415 219 415 q 399 410 357 415 q 494 379 440 404 q 607 300 549 354 q 540 468 585 396 q 441 580 496 540 q 333 619 386 619 q 287 610 308 619 q 235 585 265 601 q 183 563 200 563 q 172 567 176 563 q 167 579 167 572 q 216 665 167 635 q 336 693 265 696 q 514 610 433 688 q 641 419 594 533 q 688 196 688 306 q 685 144 688 178 l 640 147 q 505 299 588 254 q 339 344 422 344 q 186 313 232 344 q 140 219 140 281 q 204 117 140 156 q 368 78 268 78 q 457 84 424 78 q 526 101 490 90 q 578 115 556 111 q 635 119 600 119 q 684 114 674 119 q 694 89 694 108 q 638 54 694 75 q 510 17 581 33 q 413 0 439 0 m 394 -237 q 349 -214 364 -237 q 335 -156 335 -190 q 336 -133 335 -140 q 361 -111 335 -111 q 401 -120 381 -111 q 413 -133 421 -129 q 426 -190 426 -169 q 418 -219 426 -208 q 394 -237 410 -229 m 424 767 q 308 798 354 767 q 263 879 263 829 q 292 889 264 889 q 312 885 303 889 q 321 876 321 882 q 353 836 321 850 q 429 822 385 822 q 508 841 478 822 q 539 892 539 860 q 538 904 539 900 l 538 910 q 558 925 538 925 q 590 915 578 925 q 601 890 601 904 q 547 802 601 838 q 424 767 493 767 z "},"ằ":{"ha":750,"x_min":56,"x_max":694,"o":"m 413 0 q 162 51 268 0 q 56 229 56 101 q 83 318 56 275 q 165 388 111 361 q 297 415 219 415 q 399 410 357 415 q 494 379 440 404 q 607 300 549 354 q 540 468 585 396 q 441 580 496 540 q 333 619 386 619 q 287 610 308 619 q 235 585 265 601 q 183 563 200 563 q 172 567 176 563 q 167 579 167 572 q 216 665 167 635 q 336 693 265 696 q 514 610 433 688 q 641 419 594 533 q 688 196 688 306 q 685 144 688 178 l 640 147 q 505 299 588 254 q 339 344 422 344 q 186 313 232 344 q 140 219 140 281 q 204 117 140 156 q 368 78 268 78 q 457 84 424 78 q 526 101 490 90 q 578 115 556 111 q 635 119 600 119 q 684 114 674 119 q 694 89 694 108 q 638 54 694 75 q 510 17 581 33 q 413 0 439 0 m 356 794 q 240 826 286 794 q 194 907 194 857 q 224 917 196 917 q 244 913 235 917 q 253 904 253 910 q 285 864 253 878 q 361 850 317 850 q 440 869 410 850 q 471 919 471 888 q 469 932 471 928 l 469 938 q 490 953 469 953 q 522 942 510 953 q 533 918 533 932 q 479 830 533 865 q 356 794 425 794 m 247 975 q 125 1074 226 975 q 97 1110 104 1093 q 97 1133 90 1126 q 118 1143 107 1143 q 183 1106 142 1143 q 236 1064 186 1103 q 286 1014 286 1025 q 278 982 286 989 q 247 975 269 975 z "},"ẳ":{"ha":750,"x_min":56,"x_max":694,"o":"m 413 0 q 162 51 268 0 q 56 229 56 101 q 83 318 56 275 q 165 388 111 361 q 297 415 219 415 q 399 410 357 415 q 494 379 440 404 q 607 300 549 354 q 540 468 585 396 q 441 580 496 540 q 333 619 386 619 q 287 610 308 619 q 235 585 265 601 q 183 563 200 563 q 172 567 176 563 q 167 579 167 572 q 216 665 167 635 q 336 693 265 696 q 514 610 433 688 q 641 419 594 533 q 688 196 688 306 q 685 144 688 178 l 640 147 q 505 299 588 254 q 339 344 422 344 q 186 313 232 344 q 140 219 140 281 q 204 117 140 156 q 368 78 268 78 q 457 84 424 78 q 526 101 490 90 q 578 115 556 111 q 635 119 600 119 q 684 114 674 119 q 694 89 694 108 q 638 54 694 75 q 510 17 581 33 q 413 0 439 0 m 425 794 q 310 826 356 794 q 264 907 264 857 q 293 917 265 917 q 313 913 304 917 q 322 904 322 910 q 354 864 322 878 q 431 850 386 850 q 510 869 479 850 q 540 919 540 888 q 539 932 540 928 l 539 938 q 560 953 539 953 q 591 942 579 953 q 603 918 603 932 q 549 830 603 865 q 425 794 494 794 m 311 956 q 301 968 301 960 q 315 990 301 976 q 346 1019 329 1004 q 392 1063 375 1044 q 408 1100 408 1082 q 396 1143 408 1128 q 342 1158 383 1158 q 303 1149 324 1158 q 272 1122 282 1139 q 255 1133 261 1124 q 249 1156 249 1142 q 284 1196 249 1182 q 353 1210 319 1210 q 443 1179 417 1210 q 469 1111 469 1149 q 454 1061 469 1081 q 408 1017 439 1042 q 383 996 394 1007 q 365 974 371 985 q 360 957 367 967 q 339 947 354 947 q 311 956 328 947 z "},"ẵ":{"ha":750,"x_min":40,"x_max":694,"o":"m 413 0 q 162 51 268 0 q 56 229 56 101 q 83 318 56 275 q 165 388 111 361 q 297 415 219 415 q 399 410 357 415 q 494 379 440 404 q 607 300 549 354 q 540 468 585 396 q 441 580 496 540 q 333 619 386 619 q 287 610 308 619 q 235 585 265 601 q 183 563 200 563 q 172 567 176 563 q 167 579 167 572 q 216 665 167 635 q 336 693 265 696 q 514 610 433 688 q 641 419 594 533 q 688 196 688 306 q 685 144 688 178 l 640 147 q 505 299 588 254 q 339 344 422 344 q 186 313 232 344 q 140 219 140 281 q 204 117 140 156 q 368 78 268 78 q 457 84 424 78 q 526 101 490 90 q 578 115 556 111 q 635 119 600 119 q 684 114 674 119 q 694 89 694 108 q 638 54 694 75 q 510 17 581 33 q 413 0 439 0 m 426 794 q 311 826 357 794 q 265 907 265 857 q 294 917 267 917 q 315 913 306 917 q 324 904 324 910 q 356 864 324 878 q 432 850 388 850 q 511 869 481 850 q 542 919 542 888 q 540 932 542 928 l 540 938 q 561 953 540 953 q 592 942 581 953 q 604 918 604 932 q 550 830 604 865 q 426 794 496 794 m 47 976 q 40 1017 40 1000 q 72 1096 40 1064 q 144 1128 104 1128 q 203 1113 179 1128 q 254 1074 228 1099 q 280 1053 269 1060 q 300 1046 290 1046 q 326 1055 319 1046 q 340 1096 332 1064 q 350 1135 342 1103 q 385 1094 390 1139 q 358 1025 379 1050 q 301 1000 336 1000 q 263 1010 278 1000 q 226 1039 247 1019 q 191 1067 206 1058 q 154 1076 176 1076 q 109 1058 124 1076 q 94 1004 94 1040 q 97 968 94 993 l 97 964 q 75 953 97 949 q 47 976 54 957 z "},"â":{"ha":750,"x_min":56,"x_max":694,"o":"m 413 0 q 162 51 268 0 q 56 229 56 101 q 83 318 56 275 q 165 388 111 361 q 297 415 219 415 q 399 410 357 415 q 494 379 440 404 q 607 300 549 354 q 540 468 585 396 q 441 580 496 540 q 333 619 386 619 q 287 610 308 619 q 235 585 265 601 q 183 563 200 563 q 172 567 176 563 q 167 579 167 572 q 216 665 167 635 q 336 693 265 696 q 514 610 433 688 q 641 419 594 533 q 688 196 688 306 q 685 144 688 178 l 640 147 q 505 299 588 254 q 339 344 422 344 q 186 313 232 344 q 140 219 140 281 q 204 117 140 156 q 368 78 268 78 q 457 84 424 78 q 526 101 490 90 q 578 115 556 111 q 635 119 600 119 q 684 114 674 119 q 694 89 694 108 q 638 54 694 75 q 510 17 581 33 q 413 0 439 0 m 513 744 q 483 763 497 744 q 449 819 469 781 q 375 933 413 886 q 327 840 358 885 q 262 767 296 794 q 204 739 228 739 q 164 776 178 739 l 214 819 q 271 872 253 853 q 303 920 289 890 q 329 1003 317 950 q 351 1015 333 1015 q 384 1008 374 1015 q 408 978 394 1001 q 468 904 419 958 q 492 875 476 893 q 514 847 507 857 q 538 804 532 819 q 543 771 543 789 q 535 750 543 756 q 513 744 528 744 z "},"ấ":{"ha":750,"x_min":56,"x_max":719,"o":"m 413 0 q 162 51 268 0 q 56 229 56 101 q 83 318 56 275 q 165 388 111 361 q 297 415 219 415 q 399 410 357 415 q 494 379 440 404 q 607 300 549 354 q 540 468 585 396 q 441 580 496 540 q 333 619 386 619 q 287 610 308 619 q 235 585 265 601 q 183 563 200 563 q 172 567 176 563 q 167 579 167 572 q 216 665 167 635 q 336 693 265 696 q 514 610 433 688 q 641 419 594 533 q 688 196 688 306 q 685 144 688 178 l 640 147 q 505 299 588 254 q 339 344 422 344 q 186 313 232 344 q 140 219 140 281 q 204 117 140 156 q 368 78 268 78 q 457 84 424 78 q 526 101 490 90 q 578 115 556 111 q 635 119 600 119 q 684 114 674 119 q 694 89 694 108 q 638 54 694 75 q 510 17 581 33 q 413 0 439 0 m 478 744 q 449 763 463 744 q 414 819 435 781 q 340 933 378 886 q 292 840 324 885 q 227 767 261 794 q 169 739 193 739 q 129 776 143 739 l 179 819 q 236 872 218 853 q 268 920 254 890 q 294 1003 282 950 q 317 1015 299 1015 q 349 1008 339 1015 q 374 978 360 1001 q 433 904 385 958 q 457 875 442 893 q 479 847 472 857 q 503 804 497 819 q 508 771 508 789 q 501 750 508 756 q 478 744 493 744 m 539 900 q 512 906 518 900 q 506 932 506 911 q 550 1000 506 960 q 664 1092 594 1040 l 694 1115 q 719 1086 719 1103 q 699 1047 719 1069 q 632 985 679 1025 q 539 900 576 938 z "},"ậ":{"ha":703,"x_min":56,"x_max":694,"o":"m 413 0 q 162 51 268 0 q 56 229 56 101 q 83 318 56 275 q 165 388 111 361 q 297 415 219 415 q 399 410 357 415 q 494 379 440 404 q 607 300 549 354 q 540 468 585 396 q 441 580 496 540 q 333 619 386 619 q 287 610 308 619 q 235 585 265 601 q 183 563 200 563 q 172 567 176 563 q 167 579 167 572 q 216 665 167 635 q 336 693 265 696 q 514 610 433 688 q 641 419 594 533 q 688 196 688 306 q 685 144 688 178 l 640 147 q 505 299 588 254 q 339 344 422 344 q 186 313 232 344 q 140 219 140 281 q 204 117 140 156 q 368 78 268 78 q 457 84 424 78 q 526 101 490 90 q 578 115 556 111 q 635 119 600 119 q 684 114 674 119 q 694 89 694 108 q 638 54 694 75 q 510 17 581 33 q 413 0 439 0 m 394 -237 q 349 -214 364 -237 q 335 -156 335 -190 q 336 -133 335 -140 q 361 -111 335 -111 q 401 -120 381 -111 q 413 -133 421 -129 q 426 -190 426 -169 q 418 -219 426 -208 q 394 -237 410 -229 m 511 754 q 482 772 496 754 q 447 829 468 790 q 374 943 411 896 q 326 849 357 894 q 260 776 294 804 q 203 749 226 749 q 163 786 176 749 l 213 829 q 269 881 251 863 q 301 930 288 900 q 328 1013 315 960 q 350 1025 332 1025 q 383 1018 372 1025 q 407 988 393 1011 q 467 914 418 968 q 490 885 475 903 q 513 857 506 867 q 536 814 531 829 q 542 781 542 799 q 534 760 542 765 q 511 754 526 754 z "},"ầ":{"ha":750,"x_min":56,"x_max":694,"o":"m 413 0 q 162 51 268 0 q 56 229 56 101 q 83 318 56 275 q 165 388 111 361 q 297 415 219 415 q 399 410 357 415 q 494 379 440 404 q 607 300 549 354 q 540 468 585 396 q 441 580 496 540 q 333 619 386 619 q 287 610 308 619 q 235 585 265 601 q 183 563 200 563 q 172 567 176 563 q 167 579 167 572 q 216 665 167 635 q 336 693 265 696 q 514 610 433 688 q 641 419 594 533 q 688 196 688 306 q 685 144 688 178 l 640 147 q 505 299 588 254 q 339 344 422 344 q 186 313 232 344 q 140 219 140 281 q 204 117 140 156 q 368 78 268 78 q 457 84 424 78 q 526 101 490 90 q 578 115 556 111 q 635 119 600 119 q 684 114 674 119 q 694 89 694 108 q 638 54 694 75 q 510 17 581 33 q 413 0 439 0 m 479 744 q 450 763 464 744 q 415 819 436 781 q 342 933 379 886 q 294 840 325 885 q 228 767 263 794 q 171 739 194 739 q 131 776 144 739 l 181 819 q 238 872 219 853 q 269 920 256 890 q 296 1003 283 950 q 318 1015 300 1015 q 351 1008 340 1015 q 375 978 361 1001 q 435 904 386 958 q 458 875 443 893 q 481 847 474 857 q 504 804 499 819 q 510 771 510 789 q 502 750 510 756 q 479 744 494 744 m 400 1051 q 278 1150 379 1051 q 250 1186 257 1169 q 250 1210 243 1203 q 271 1219 260 1219 q 336 1182 294 1219 q 389 1140 339 1179 q 439 1090 439 1101 q 431 1058 439 1065 q 400 1051 422 1051 z "},"ẩ":{"ha":750,"x_min":56,"x_max":694,"o":"m 413 0 q 162 51 268 0 q 56 229 56 101 q 83 318 56 275 q 165 388 111 361 q 297 415 219 415 q 399 410 357 415 q 494 379 440 404 q 607 300 549 354 q 540 468 585 396 q 441 580 496 540 q 333 619 386 619 q 287 610 308 619 q 235 585 265 601 q 183 563 200 563 q 172 567 176 563 q 167 579 167 572 q 216 665 167 635 q 336 693 265 696 q 514 610 433 688 q 641 419 594 533 q 688 196 688 306 q 685 144 688 178 l 640 147 q 505 299 588 254 q 339 344 422 344 q 186 313 232 344 q 140 219 140 281 q 204 117 140 156 q 368 78 268 78 q 457 84 424 78 q 526 101 490 90 q 578 115 556 111 q 635 119 600 119 q 684 114 674 119 q 694 89 694 108 q 638 54 694 75 q 510 17 581 33 q 413 0 439 0 m 494 744 q 465 763 479 744 q 431 819 451 781 q 357 933 394 886 q 309 840 340 885 q 244 767 278 794 q 186 739 210 739 q 146 776 160 739 l 196 819 q 253 872 235 853 q 285 920 271 890 q 311 1003 299 950 q 333 1015 315 1015 q 366 1008 356 1015 q 390 978 376 1001 q 450 904 401 958 q 474 875 458 893 q 496 847 489 857 q 519 804 514 819 q 525 771 525 789 q 517 750 525 756 q 494 744 510 744 m 504 924 q 494 936 494 928 q 508 958 494 944 q 539 988 522 972 q 585 1031 568 1013 q 601 1068 601 1050 q 589 1111 601 1096 q 535 1126 576 1126 q 496 1117 517 1126 q 465 1090 475 1107 q 448 1101 454 1092 q 442 1124 442 1110 q 477 1164 442 1150 q 546 1178 513 1178 q 636 1147 610 1178 q 663 1079 663 1117 q 647 1029 663 1049 q 601 985 632 1010 q 576 964 588 975 q 558 942 564 953 q 553 925 560 935 q 532 915 547 915 q 504 924 521 915 z "},"ẫ":{"ha":750,"x_min":26,"x_max":694,"o":"m 413 0 q 162 51 268 0 q 56 229 56 101 q 83 318 56 275 q 165 388 111 361 q 297 415 219 415 q 399 410 357 415 q 494 379 440 404 q 607 300 549 354 q 540 468 585 396 q 441 580 496 540 q 333 619 386 619 q 287 610 308 619 q 235 585 265 601 q 183 563 200 563 q 172 567 176 563 q 167 579 167 572 q 216 665 167 635 q 336 693 265 696 q 514 610 433 688 q 641 419 594 533 q 688 196 688 306 q 685 144 688 178 l 640 147 q 505 299 588 254 q 339 344 422 344 q 186 313 232 344 q 140 219 140 281 q 204 117 140 156 q 368 78 268 78 q 457 84 424 78 q 526 101 490 90 q 578 115 556 111 q 635 119 600 119 q 684 114 674 119 q 694 89 694 108 q 638 54 694 75 q 510 17 581 33 q 413 0 439 0 m 490 744 q 461 763 475 744 q 426 819 447 781 q 353 933 390 886 q 305 840 336 885 q 240 767 274 794 q 182 739 206 739 q 142 776 156 739 l 192 819 q 249 872 231 853 q 281 920 267 890 q 307 1003 294 950 q 329 1015 311 1015 q 362 1008 351 1015 q 386 978 372 1001 q 446 904 397 958 q 469 875 454 893 q 492 847 485 857 q 515 804 510 819 q 521 771 521 789 q 513 750 521 756 q 490 744 506 744 m 33 1018 q 26 1058 26 1042 q 58 1138 26 1106 q 131 1169 90 1169 q 190 1155 165 1169 q 240 1115 214 1140 q 266 1094 256 1101 q 286 1088 276 1088 q 312 1097 306 1088 q 326 1138 318 1106 q 336 1176 328 1144 q 371 1136 376 1181 q 344 1067 365 1092 q 288 1042 322 1042 q 249 1051 264 1042 q 213 1081 233 1061 q 177 1109 192 1100 q 140 1118 163 1118 q 95 1100 110 1118 q 81 1046 81 1082 q 83 1010 81 1035 l 83 1006 q 61 994 83 990 q 33 1018 40 999 z "},"ȁ":{"ha":750,"x_min":56,"x_max":694,"o":"m 289 767 q 179 856 271 767 q 153 888 160 872 q 154 910 147 903 q 172 918 161 918 q 232 885 193 918 q 279 847 235 882 q 324 803 324 813 q 316 773 324 779 q 289 767 308 767 m 426 767 q 317 856 408 767 q 291 888 297 872 q 292 910 285 903 q 310 918 299 918 q 369 885 331 918 q 417 847 372 882 q 461 803 461 813 q 453 773 461 779 q 426 767 446 767 m 413 0 q 162 51 268 0 q 56 229 56 101 q 83 318 56 275 q 165 388 111 361 q 297 415 219 415 q 399 410 357 415 q 494 379 440 404 q 607 300 549 354 q 540 468 585 396 q 441 580 496 540 q 333 619 386 619 q 287 610 308 619 q 235 585 265 601 q 183 563 200 563 q 172 567 176 563 q 167 579 167 572 q 216 665 167 635 q 336 693 265 696 q 514 610 433 688 q 641 419 594 533 q 688 196 688 306 q 685 144 688 178 l 640 147 q 505 299 588 254 q 339 344 422 344 q 186 313 232 344 q 140 219 140 281 q 204 117 140 156 q 368 78 268 78 q 457 84 424 78 q 526 101 490 90 q 578 115 556 111 q 635 119 600 119 q 684 114 674 119 q 694 89 694 108 q 638 54 694 75 q 510 17 581 33 q 413 0 439 0 z "},"ä":{"ha":703,"x_min":56,"x_max":694,"o":"m 413 0 q 162 51 268 0 q 56 229 56 101 q 83 318 56 275 q 165 388 111 361 q 297 415 219 415 q 399 410 357 415 q 494 379 440 404 q 607 300 549 354 q 540 468 585 396 q 441 580 496 540 q 333 619 386 619 q 287 610 308 619 q 235 585 265 601 q 183 563 200 563 q 172 567 176 563 q 167 579 167 572 q 216 665 167 635 q 336 693 265 696 q 514 610 433 688 q 641 419 594 533 q 688 196 688 306 q 685 144 688 178 l 640 147 q 505 299 588 254 q 339 344 422 344 q 186 313 232 344 q 140 219 140 281 q 204 117 140 156 q 368 78 268 78 q 457 84 424 78 q 526 101 490 90 q 578 115 556 111 q 635 119 600 119 q 684 114 674 119 q 694 89 694 108 q 638 54 694 75 q 510 17 581 33 q 413 0 439 0 m 242 758 q 196 781 215 758 q 176 824 176 804 q 199 864 176 836 q 235 892 222 892 q 296 868 275 892 q 317 817 317 844 q 292 778 317 799 q 242 758 268 758 m 460 758 q 413 781 431 758 q 394 824 394 804 q 417 864 394 836 q 454 892 440 892 q 513 868 492 892 q 533 817 533 844 q 509 778 533 799 q 460 758 485 758 z "},"ạ":{"ha":750,"x_min":56,"x_max":694,"o":"m 413 0 q 162 51 268 0 q 56 229 56 101 q 83 318 56 275 q 165 388 111 361 q 297 415 219 415 q 399 410 357 415 q 494 379 440 404 q 607 300 549 354 q 540 468 585 396 q 441 580 496 540 q 333 619 386 619 q 287 610 308 619 q 235 585 265 601 q 183 563 200 563 q 172 567 176 563 q 167 579 167 572 q 216 665 167 635 q 336 693 265 696 q 514 610 433 688 q 641 419 594 533 q 688 196 688 306 q 685 144 688 178 l 640 147 q 505 299 588 254 q 339 344 422 344 q 186 313 232 344 q 140 219 140 281 q 204 117 140 156 q 368 78 268 78 q 457 84 424 78 q 526 101 490 90 q 578 115 556 111 q 635 119 600 119 q 684 114 674 119 q 694 89 694 108 q 638 54 694 75 q 510 17 581 33 q 413 0 439 0 m 394 -237 q 349 -214 364 -237 q 335 -156 335 -190 q 336 -133 335 -140 q 361 -111 335 -111 q 401 -120 381 -111 q 413 -133 421 -129 q 426 -190 426 -169 q 418 -219 426 -208 q 394 -237 410 -229 z "},"à":{"ha":703,"x_min":56,"x_max":694,"o":"m 413 0 q 162 51 268 0 q 56 229 56 101 q 83 318 56 275 q 165 388 111 361 q 297 415 219 415 q 399 410 357 415 q 494 379 440 404 q 607 300 549 354 q 540 468 585 396 q 441 580 496 540 q 333 619 386 619 q 287 610 308 619 q 235 585 265 601 q 183 563 200 563 q 172 567 176 563 q 167 579 167 572 q 216 665 167 635 q 336 693 265 696 q 514 610 433 688 q 641 419 594 533 q 688 196 688 306 q 685 144 688 178 l 640 147 q 505 299 588 254 q 339 344 422 344 q 186 313 232 344 q 140 219 140 281 q 204 117 140 156 q 368 78 268 78 q 457 84 424 78 q 526 101 490 90 q 578 115 556 111 q 635 119 600 119 q 684 114 674 119 q 694 89 694 108 q 638 54 694 75 q 510 17 581 33 q 413 0 439 0 m 382 733 q 260 832 361 733 q 232 868 239 851 q 232 892 225 885 q 253 901 242 901 q 318 864 276 901 q 371 822 321 861 q 421 772 421 783 q 413 740 421 747 q 382 733 404 733 z "},"ả":{"ha":703,"x_min":56,"x_max":694,"o":"m 413 0 q 162 51 268 0 q 56 229 56 101 q 83 318 56 275 q 165 388 111 361 q 297 415 219 415 q 399 410 357 415 q 494 379 440 404 q 607 300 549 354 q 540 468 585 396 q 441 580 496 540 q 333 619 386 619 q 287 610 308 619 q 235 585 265 601 q 183 563 200 563 q 172 567 176 563 q 167 579 167 572 q 216 665 167 635 q 336 693 265 696 q 514 610 433 688 q 641 419 594 533 q 688 196 688 306 q 685 144 688 178 l 640 147 q 505 299 588 254 q 339 344 422 344 q 186 313 232 344 q 140 219 140 281 q 204 117 140 156 q 368 78 268 78 q 457 84 424 78 q 526 101 490 90 q 578 115 556 111 q 635 119 600 119 q 684 114 674 119 q 694 89 694 108 q 638 54 694 75 q 510 17 581 33 q 413 0 439 0 m 311 786 q 301 799 301 790 q 315 821 301 807 q 346 850 329 835 q 392 894 375 875 q 408 931 408 913 q 396 974 408 958 q 342 989 383 989 q 303 979 324 989 q 272 953 282 969 q 255 963 261 954 q 249 986 249 972 q 284 1026 249 1013 q 353 1040 319 1040 q 443 1010 417 1040 q 469 942 469 979 q 454 892 469 911 q 408 847 439 872 q 383 826 394 838 q 365 804 371 815 q 360 788 367 797 q 339 778 354 778 q 311 786 328 778 z "},"ȃ":{"ha":750,"x_min":56,"x_max":694,"o":"m 413 0 q 162 51 268 0 q 56 229 56 101 q 83 318 56 275 q 165 388 111 361 q 297 415 219 415 q 399 410 357 415 q 494 379 440 404 q 607 300 549 354 q 540 468 585 396 q 441 580 496 540 q 333 619 386 619 q 287 610 308 619 q 235 585 265 601 q 183 563 200 563 q 172 567 176 563 q 167 579 167 572 q 216 665 167 635 q 336 693 265 696 q 514 610 433 688 q 641 419 594 533 q 688 196 688 306 q 685 144 688 178 l 640 147 q 505 299 588 254 q 339 344 422 344 q 186 313 232 344 q 140 219 140 281 q 204 117 140 156 q 368 78 268 78 q 457 84 424 78 q 526 101 490 90 q 578 115 556 111 q 635 119 600 119 q 684 114 674 119 q 694 89 694 108 q 638 54 694 75 q 510 17 581 33 q 413 0 439 0 m 356 917 q 479 881 425 917 q 533 793 533 846 q 523 769 533 779 q 494 758 513 760 l 490 758 q 469 779 465 758 q 471 792 471 783 q 440 842 471 824 q 361 861 410 861 q 285 847 317 861 q 253 807 253 833 q 244 798 253 801 q 224 794 235 794 q 194 804 196 794 q 240 885 194 854 q 356 917 286 917 z "},"ā":{"ha":703,"x_min":56,"x_max":694,"o":"m 413 0 q 162 51 268 0 q 56 229 56 101 q 83 318 56 275 q 165 388 111 361 q 297 415 219 415 q 399 410 357 415 q 494 379 440 404 q 607 300 549 354 q 540 468 585 396 q 441 580 496 540 q 333 619 386 619 q 287 610 308 619 q 235 585 265 601 q 183 563 200 563 q 172 567 176 563 q 167 579 167 572 q 216 665 167 635 q 336 693 265 696 q 514 610 433 688 q 641 419 594 533 q 688 196 688 306 q 685 144 688 178 l 640 147 q 505 299 588 254 q 339 344 422 344 q 186 313 232 344 q 140 219 140 281 q 204 117 140 156 q 368 78 268 78 q 457 84 424 78 q 526 101 490 90 q 578 115 556 111 q 635 119 600 119 q 684 114 674 119 q 694 89 694 108 q 638 54 694 75 q 510 17 581 33 q 413 0 439 0 m 156 797 q 183 853 156 835 q 248 876 211 871 q 358 883 285 881 q 443 886 428 886 q 500 877 486 886 q 514 839 514 868 q 489 811 514 811 q 436 818 464 811 q 411 822 429 819 q 376 825 393 825 q 267 811 325 825 q 214 801 238 804 q 156 797 190 797 z "}}}
